<svg width="1921" height="1259" viewBox="0 0 1921 1259" fill="none" xmlns="http://www.w3.org/2000/svg">
<path fill-rule="evenodd" clip-rule="evenodd" d="M1404.01 1253.69L1349.12 1227.09H1242.86L1281.65 1253.45L1281.42 1253.69H1404.01ZM1309.92 1204.49L1349.8 1223.82H1449.56L1398.98 1204.49H1309.92ZM1303.18 1201.22L1265.82 1183.11L1343.03 1183.11L1390.43 1201.22H1303.18ZM1228.73 1165.14L1259.07 1179.84L1334.47 1179.84L1295.99 1165.14L1228.73 1165.14ZM1221.99 1161.87L1198.67 1150.57L1257.85 1150.57L1287.43 1161.87L1221.99 1161.87ZM1168.6 1136L1191.92 1147.3L1249.29 1147.3L1219.71 1136L1168.6 1136ZM1161.86 1132.73L1138.54 1121.42L1181.58 1121.42L1211.16 1132.73L1161.86 1132.73ZM1108.47 1106.85L1131.79 1118.15L1173.02 1118.15L1143.44 1106.85L1108.47 1106.85ZM1101.73 1103.58L1100.26 1102.87L1099.78 1103.58L445.505 1103.58L445.463 1103.32L443.822 1103.58L67.4282 1103.58V1104.35L-80.3073 1118.15L-87.7191 1118.15V1118.85L-236.297 1132.73H-242.522V1133.31L-392.276 1147.3H-399.68V1147.99L-548.276 1161.87H-554.832V1162.48L-740.665 1179.84H-748.137V1180.54L-969.516 1201.22H-974.548V1201.69L-1211.38 1223.82H-1225.24V1225.11L-1531.16 1253.69H-1539.7V1254.49L-1539.76 1254.49L-1539.7 1255.09V1256.96H-1539.53L-1539.46 1257.75L-1531.01 1256.96H-1411.3L-1411.2 1257.91L-1401.58 1256.96H-1283.07L-1282.96 1258.04L-1272.6 1256.96H-1154.74L-1154.68 1257.51L-1149.69 1256.96H-1027.06L-1026.94 1257.93L-1018.66 1256.96H-898.819L-898.68 1258.07L-889.851 1256.96H-770.51L-770.414 1257.67L-765.099 1256.96H-642.234L-642.124 1257.72L-636.841 1256.96H-500.643L-500.554 1257.52L-497.065 1256.96H-388.987L-388.759 1258.29L-380.976 1256.96H-259.274L-259.027 1258.26L-252.111 1256.96H-129.618L-129.456 1257.72L-125.851 1256.96H-1.59537L-1.56046 1257.11L-0.944246 1256.96H126.345L126.454 1257.36L127.921 1256.96H254.464L254.93 1258.03L258.31 1256.96H384.257L384.93 1258.23L388.255 1256.96H512.484L513.254 1258.09L515.549 1256.96H641.072L641.793 1257.71L642.885 1256.96H770.161L770.373 1257.09L770.487 1256.96H1661.83L1663.94 1257.63L1664.15 1256.96H1790.06L1791.95 1257.47L1792.09 1256.96H1917.14L1919.82 1257.59L1919.97 1256.96H2044.87L2047.92 1257.6L2048.06 1256.96H2173.49L2176.01 1257.44L2176.1 1256.96H2300.27L2304.46 1257.68L2304.58 1256.96H2430.08L2432.83 1257.39L2432.89 1256.96H2557.37L2561.08 1257.49L2561.16 1256.96H2686.57L2689.5 1257.35L2689.55 1256.96H2816.77L2817.89 1257.1L2817.9 1256.96H2946.34L2946.49 1256.98L2946.49 1256.96H3071.88L3074.78 1257.28L3074.81 1256.96H3327.36L3331.61 1257.39L3331.65 1256.96H3455.58L3459.95 1257.38L3459.99 1256.96H3460.23V1254.52L3460.27 1254.12L3460.23 1254.12V1253.69H3455.74L3154.48 1224.73V1223.82H3144.98L2911.03 1201.33V1201.22H2909.94L2500.63 1161.87H2500.58L1894.32 1103.59V1103.58H1894.23L1893.19 1103.48L1893.18 1103.58L1847.18 1103.58L1846.3 1103.49L1846.29 1103.58L1753.43 1103.58L1752.54 1103.49L1752.53 1103.58L1706.27 1103.58L1705.66 1103.51L1705.65 1103.58L1659.86 1103.58L1658.81 1103.46L1658.79 1103.58L1613.03 1103.58L1611.93 1103.44L1611.91 1103.58L1565.67 1103.58L1565.05 1103.5L1565.04 1103.58L1518.67 1103.58L1518.19 1103.51L1518.18 1103.58L1471.55 1103.58L1471.32 1103.54L1471.31 1103.58L1424.95 1103.58L1424.47 1103.5L1424.45 1103.58L1378.1 1103.58L1377.61 1103.49L1377.59 1103.58L1331.18 1103.58L1330.76 1103.49L1330.74 1103.58L1284.24 1103.58L1283.9 1103.5L1283.88 1103.58L1237.32 1103.58L1237.08 1103.52L1237.06 1103.58L1143.97 1103.58L1142.68 1103.09L1142.42 1103.58L1101.73 1103.58ZM1249.37 1106.85L1291.02 1118.15L1331.55 1118.15L1283.86 1106.85L1249.37 1106.85ZM1298.04 1106.85L1345.72 1118.15L1384.6 1118.15L1330.84 1106.85L1298.04 1106.85ZM1346.73 1106.85L1400.49 1118.15L1437.71 1118.15L1377.8 1106.85L1346.73 1106.85ZM1395.44 1106.85L1455.35 1118.15L1490.6 1118.15L1424.67 1106.85L1395.44 1106.85ZM1444.02 1106.85L1509.95 1118.15L1543.49 1118.15L1471.3 1106.85L1444.02 1106.85ZM1492.43 1106.85L1564.63 1118.15L1596.66 1118.15L1518.44 1106.85L1492.43 1106.85ZM1541.3 1106.85L1619.53 1118.15L1649.87 1118.15L1565.45 1106.85L1541.3 1106.85ZM1590.09 1106.85L1674.51 1118.15L1703.48 1118.15L1612.83 1106.85L1590.09 1106.85ZM1639.26 1106.85L1729.91 1118.15L1756.55 1118.15L1659.67 1106.85L1639.26 1106.85ZM1687.88 1106.85L1784.77 1118.15L1808.93 1118.15L1706.09 1106.85L1687.88 1106.85ZM1736.02 1106.85L1838.86 1118.15L1862.48 1118.15L1753.27 1106.85L1736.02 1106.85ZM1785.03 1106.85L1894.24 1118.15L1958.48 1118.15L1847.01 1106.85L1785.03 1106.85ZM1879.42 1106.85L1990.89 1118.15L2011.65 1118.15L1894.07 1106.85L1879.42 1106.85ZM1236.88 1106.85L1278.54 1118.15L1235.61 1118.15L1200.02 1106.85L1236.88 1106.85ZM1189.22 1106.85L1152.53 1106.85L1182.11 1118.15L1224.81 1118.15L1189.22 1106.85ZM69.3017 1106.85L69.3582 1107.46L-45.1553 1118.15L-26.47 1118.15L88.2171 1106.85L69.3017 1106.85ZM117.663 1106.85L117.701 1107.23L6.86716 1118.15L28.1983 1118.15L136.689 1106.85L117.663 1106.85ZM164.576 1106.85L164.615 1107.23L59.7522 1118.15L82.2667 1118.15L185.017 1106.85L164.576 1106.85ZM211.461 1106.85L211.502 1107.23L112.17 1118.15L137.127 1118.15L233.526 1106.85L211.461 1106.85ZM258.376 1106.85L258.419 1107.22L165.204 1118.15L191.764 1118.15L281.979 1106.85L258.376 1106.85ZM305.279 1106.85L305.326 1107.22L218.065 1118.15L246.02 1118.15L330.358 1106.85L305.279 1106.85ZM352.188 1106.85L352.238 1107.22L270.635 1118.15L300.605 1118.15L378.8 1106.85L352.188 1106.85ZM399.099 1106.85L399.151 1107.21L323.46 1118.15L352.457 1118.15L423.322 1106.85L399.099 1106.85ZM444.081 1106.85L373.216 1118.15L410.705 1118.15L476.748 1106.85L444.081 1106.85ZM492.917 1106.85L493.008 1107.39L430.087 1118.15L465.638 1118.15L525.518 1106.85L492.917 1106.85ZM539.835 1106.85L539.949 1107.45L483.266 1118.15L513.026 1118.15L566.332 1106.85L539.835 1106.85ZM582.095 1106.85L528.789 1118.15L567.892 1118.15L615.361 1106.85L582.095 1106.85ZM629.476 1106.85L582.008 1118.15L623.191 1118.15L664.529 1106.85L629.476 1106.85ZM676.513 1106.85L676.541 1106.96L635.588 1118.15L687.01 1118.15L722.798 1106.85L676.513 1106.85ZM731.572 1106.85L731.816 1107.41L697.807 1118.15L741.807 1118.15L771.335 1106.85L731.572 1106.85ZM778.016 1106.85L778.42 1107.61L750.886 1118.15L789.839 1118.15L812.77 1106.85L778.016 1106.85ZM818.533 1106.85L818.925 1107.43L797.163 1118.15L837.929 1118.15L854.273 1106.85L818.533 1106.85ZM859.263 1106.85L859.537 1107.14L843.607 1118.15L885.936 1118.15L895.685 1106.85L859.263 1106.85ZM899.952 1106.85L890.203 1118.15L933.93 1118.15L937.082 1106.85L899.952 1106.85ZM940.468 1106.85L937.315 1118.15L981.949 1118.15L978.505 1106.85L940.468 1106.85ZM981.913 1106.85L985.357 1118.15L1028.97 1118.15L1018.92 1106.85L981.913 1106.85ZM1023.24 1106.85L1033.29 1118.15L1076.84 1118.15L1060.21 1106.85L1023.24 1106.85ZM1065.95 1106.85L1101.05 1106.85L1124.37 1118.15L1082.58 1118.15L1065.95 1106.85ZM1220.25 1132.73L1190.67 1121.42L1235.1 1121.42L1270.69 1132.73L1220.25 1132.73ZM1245.9 1121.42L1290.59 1121.42L1332.24 1132.73L1281.49 1132.73L1245.9 1121.42ZM1344.72 1132.73L1303.07 1121.42L1345.34 1121.42L1393.02 1132.73L1344.72 1132.73ZM1407.2 1132.73L1359.52 1121.42L1400.15 1121.42L1453.92 1132.73L1407.2 1132.73ZM1469.81 1132.73L1416.05 1121.42L1455.04 1121.42L1514.96 1132.73L1469.81 1132.73ZM1532.59 1132.73L1472.68 1121.42L1509.67 1121.42L1575.6 1132.73L1532.59 1132.73ZM1594.95 1132.73L1529.02 1121.42L1564.37 1121.42L1636.57 1132.73L1594.95 1132.73ZM1657.7 1132.73L1585.51 1121.42L1619.29 1121.42L1697.52 1132.73L1657.7 1132.73ZM1720.39 1132.73L1642.16 1121.42L1674.29 1121.42L1758.7 1132.73L1720.39 1132.73ZM1783.34 1132.73L1698.93 1121.42L1729.71 1121.42L1820.36 1132.73L1783.34 1132.73ZM1846.79 1132.73L1756.13 1121.42L1784.58 1121.42L1881.46 1132.73L1846.79 1132.73ZM1909.67 1132.73L1812.79 1121.42L1838.68 1121.42L1941.52 1132.73L1909.67 1132.73ZM1971.45 1132.73L1868.61 1121.42L1894.07 1121.42L2003.28 1132.73L1971.45 1132.73ZM2035.04 1132.73L1925.83 1121.42L1990.72 1121.42L2102.19 1132.73L2035.04 1132.73ZM2134.6 1132.73L2023.13 1121.42L2045.61 1121.42V1121.42L2163.23 1132.73L2134.6 1132.73ZM-201.145 1132.73L-80.1549 1121.42L-59.6464 1121.42L-174.334 1132.73L-201.145 1132.73ZM-140.996 1132.73L-26.3092 1121.42L-3.18558 1121.42L-111.676 1132.73L-140.996 1132.73ZM-80.1226 1132.73L28.3683 1121.42L52.5433 1121.42L-50.2072 1132.73L-80.1226 1132.73ZM-20.3045 1132.73L82.446 1121.42L109.24 1121.42L12.8409 1132.73L-20.3045 1132.73ZM40.9182 1132.73L137.318 1121.42L165.667 1121.42L75.4514 1132.73L40.9182 1132.73ZM101.753 1132.73L191.968 1121.42L221.623 1121.42L137.286 1132.73L101.753 1132.73ZM161.901 1132.73L246.238 1121.42L277.985 1121.42L199.79 1132.73L161.901 1132.73ZM222.645 1132.73L300.84 1121.42L331.957 1121.42L261.092 1132.73L222.645 1132.73ZM281.851 1132.73L352.716 1121.42L391.6 1121.42L325.557 1132.73L281.851 1132.73ZM344.939 1132.73L410.982 1121.42L448.316 1121.42L388.436 1132.73L344.939 1132.73ZM406.064 1132.73L465.944 1121.42L497.605 1121.42L444.3 1132.73L406.064 1132.73ZM460.063 1132.73L513.368 1121.42L554.161 1121.42L506.692 1132.73L460.063 1132.73ZM520.808 1132.73L568.276 1121.42L611.233 1121.42L569.895 1132.73L520.808 1132.73ZM582.292 1132.73L623.63 1121.42L676.658 1121.42L640.871 1132.73L582.292 1132.73ZM651.667 1132.73L687.454 1121.42L733.265 1121.42L703.737 1132.73L651.667 1132.73ZM712.816 1132.73L742.345 1121.42L783.205 1121.42L760.274 1132.73L712.816 1132.73ZM767.598 1132.73L790.529 1121.42L833.201 1121.42L816.857 1132.73L767.598 1132.73ZM822.534 1132.73L838.878 1121.42L883.117 1121.42L873.368 1132.73L822.534 1132.73ZM877.635 1132.73L887.384 1121.42L933.018 1121.42L929.864 1132.73L877.635 1132.73ZM933.25 1132.73L936.403 1121.42L982.945 1121.42L986.389 1132.73L933.25 1132.73ZM989.797 1132.73L986.353 1121.42L1031.87 1121.42L1041.91 1132.73L989.797 1132.73ZM1046.23 1132.73L1036.19 1121.42L1081.65 1121.42L1098.28 1132.73L1046.23 1132.73ZM1104.02 1132.73L1087.39 1121.42L1131.11 1121.42L1154.43 1132.73L1104.02 1132.73ZM1228.81 1136L1280.98 1136L1316.57 1147.3L1258.39 1147.3L1228.81 1136ZM1291.78 1136L1327.37 1147.3L1385.93 1147.3L1344.29 1136L1291.78 1136ZM1356.77 1136L1398.42 1147.3L1454.5 1147.3L1406.82 1136L1356.77 1136ZM1420.99 1136L1468.67 1147.3L1523.23 1147.3L1469.47 1136L1420.99 1136ZM1485.36 1136L1539.12 1147.3L1592.19 1147.3L1532.29 1136L1485.36 1136ZM1549.92 1136L1609.83 1147.3L1660.6 1147.3L1594.67 1136L1549.92 1136ZM1614.02 1136L1679.95 1147.3L1729.64 1147.3L1657.45 1136L1614.02 1136ZM1678.59 1136L1750.78 1147.3L1798.37 1147.3L1720.15 1136L1678.59 1136ZM1743.02 1136L1821.24 1147.3L1867.53 1147.3L1783.12 1136H1743.02ZM1807.76 1136L1892.17 1147.3L1937.23 1147.3L1846.58 1136L1807.76 1136ZM1873.01 1136L1963.65 1147.3L2006.36 1147.3L1909.48 1136H1873.01ZM1937.7 1136L2034.57 1147.3L2074.1 1147.3L1971.27 1136L1937.7 1136ZM2001.2 1136L2104.03 1147.3L2144.07 1147.3L2034.87 1136H2001.2ZM2066.63 1136L2175.83 1147.3L2245.89 1147.3L2134.43 1136L2066.63 1136ZM2166.84 1136L2278.3 1147.3L2314.81 1147.3L2197.22 1136L2166.84 1136ZM-236.144 1136L-357.124 1147.3L-322.187 1147.3L-207.51 1136L-236.144 1136ZM-174.173 1136L-288.85 1147.3H-251.542L-143.06 1136H-174.173ZM-111.507 1136L-219.988 1147.3L-182.672 1147.3L-79.9307 1136L-111.507 1136ZM-50.0279 1136L-152.769 1147.3L-111.436 1147.3L-15.0453 1136L-50.0279 1136ZM13.032 1136L-83.3592 1147.3L-40.8534 1147.3L49.3541 1136L13.032 1136ZM75.6554 1136L-14.552 1147.3L28.5582 1147.3L112.889 1136L75.6554 1136ZM137.504 1136L53.1733 1147.3L98.9808 1147.3L177.169 1136L137.504 1136ZM200.025 1136L121.836 1147.3L169.733 1147.3L240.592 1136L200.025 1136ZM261.351 1136L190.492 1147.3L240.415 1147.3L306.452 1136L261.351 1136ZM325.834 1136L259.797 1147.3L311.239 1147.3L371.114 1136L325.834 1136ZM388.742 1136L328.867 1147.3L375.578 1147.3L428.879 1136L388.742 1136ZM444.642 1136L391.341 1147.3L445.496 1147.3L492.961 1136L444.642 1136ZM507.076 1136L459.612 1147.3L516.602 1147.3L557.936 1136L507.076 1136ZM570.333 1136L528.999 1147.3L594.734 1147.3L630.518 1136L570.333 1136ZM641.314 1136L605.53 1147.3L665.669 1147.3L695.195 1136L641.314 1136ZM704.274 1136L674.749 1147.3L730.712 1147.3L753.641 1136L704.274 1136ZM760.964 1136L738.035 1147.3L795.786 1147.3L812.129 1136L760.964 1136ZM817.806 1136L801.463 1147.3L860.801 1147.3L870.548 1136L817.806 1136ZM874.815 1136L865.068 1147.3L925.8 1147.3L928.952 1136L874.815 1136ZM932.338 1136L929.185 1147.3L990.829 1147.3L987.385 1136L932.338 1136ZM990.793 1136L994.236 1147.3L1054.86 1147.3L1044.82 1136L990.793 1136ZM1049.14 1136L1059.18 1147.3L1119.72 1147.3L1103.09 1136L1049.14 1136ZM1108.83 1136L1125.46 1147.3L1184.5 1147.3L1161.18 1136L1108.83 1136ZM1296.53 1161.87L1266.94 1150.57L1326.86 1150.57L1362.45 1161.87L1296.53 1161.87ZM1373.25 1161.87L1337.66 1150.57L1397.98 1150.57L1439.64 1161.87L1373.25 1161.87ZM1452.12 1161.87L1410.47 1150.57L1468.29 1150.57L1515.98 1161.87L1452.12 1161.87ZM1530.15 1161.87L1482.47 1150.57L1538.78 1150.57L1592.55 1161.87L1530.15 1161.87ZM1608.44 1161.87L1554.68 1150.57L1609.53 1150.57L1669.44 1161.87L1608.44 1161.87ZM1687.08 1161.87L1627.16 1150.57L1679.67 1150.57L1745.6 1161.87L1687.08 1161.87ZM1764.95 1161.87L1699.02 1150.57L1750.52 1150.57L1822.72 1161.87L1764.95 1161.87ZM1899.24 1161.87L1843.86 1161.87L1771.66 1150.57L1821 1150.57L1899.24 1161.87ZM1922.1 1161.87L1843.87 1150.57L1891.95 1150.57L1976.38 1161.87L1922.1 1161.87ZM2001.01 1161.87L1916.59 1150.57L1963.45 1150.57L2054.11 1161.87L2001.01 1161.87ZM2080.54 1161.87L1989.88 1150.57L2034.38 1150.57L2131.27 1161.87L2080.54 1161.87ZM2159.49 1161.87L2062.6 1150.57L2103.85 1150.57L2206.7 1161.87L2159.49 1161.87ZM2236.62 1161.87L2133.78 1150.57L2175.67 1150.57L2284.89 1161.87L2236.62 1161.87ZM2316.65 1161.87L2207.43 1150.57L2278.13 1150.57L2389.61 1161.87L2316.65 1161.87ZM2422.02 1161.87L2310.54 1150.57L2348.77 1150.57V1150.56L2466.41 1161.87L2422.02 1161.87ZM-513.124 1161.87L-392.123 1150.57L-355.364 1150.57L-470.061 1161.87L-513.124 1161.87ZM-436.723 1161.87L-322.026 1150.57L-282.926 1150.57L-391.426 1161.87L-436.723 1161.87ZM-359.872 1161.87L-251.372 1150.57L-212.396 1150.57L-315.155 1161.87L-359.872 1161.87ZM-285.252 1161.87L-182.493 1150.57L-139.323 1150.57L-235.731 1161.87L-285.252 1161.87ZM-207.653 1161.87L-111.245 1150.57L-66.9507 1150.57L-157.174 1161.87L-207.653 1161.87ZM-130.872 1161.87L-40.6493 1150.57L4.16122 1150.57L-80.1837 1161.87L-130.872 1161.87ZM-55.5686 1161.87L28.7763 1150.57L76.3607 1150.57L-1.84134 1161.87L-55.5686 1161.87ZM21.014 1161.87L99.216 1150.57L149.234 1150.57L78.3624 1161.87L21.014 1161.87ZM99.1212 1161.87L169.992 1150.57L221.31 1150.57L155.261 1161.87L99.1212 1161.87ZM174.644 1161.87L240.692 1150.57L293.917 1150.57L234.032 1161.87L174.644 1161.87ZM251.66 1161.87L311.545 1150.57L360.158 1150.57L306.847 1161.87L251.66 1161.87ZM322.61 1161.87L375.921 1150.57L431.765 1150.57L384.292 1161.87L322.61 1161.87ZM398.407 1161.87L445.88 1150.57L504.644 1150.57L463.302 1161.87L398.407 1161.87ZM475.699 1161.87L517.04 1150.57L584.381 1150.57L548.591 1161.87L475.699 1161.87ZM559.387 1161.87L595.178 1150.57L657.127 1150.57L627.596 1161.87L559.387 1161.87ZM636.676 1161.87L666.207 1150.57L724.078 1150.57L701.145 1161.87L636.676 1161.87ZM708.468 1161.87L731.402 1150.57L791.058 1150.57L774.712 1161.87L708.468 1161.87ZM780.389 1161.87L796.735 1150.57L857.981 1150.57L848.232 1161.87L780.389 1161.87ZM852.499 1161.87L862.248 1150.57L924.888 1150.57L921.734 1161.87L852.499 1161.87ZM925.12 1161.87L928.273 1150.57L991.825 1150.57L995.269 1161.87L925.12 1161.87ZM998.677 1161.87L995.233 1150.57L1057.77 1150.57L1067.81 1161.87L998.677 1161.87ZM1072.13 1161.87L1062.09 1150.57L1124.53 1150.57L1141.16 1161.87L1072.13 1161.87ZM1146.9 1161.87L1130.27 1150.57L1191.24 1150.57L1214.56 1161.87L1146.9 1161.87ZM1305.09 1165.14L1343.57 1179.84L1419.03 1179.84L1372.74 1165.14L1305.09 1165.14ZM1451.69 1165.14L1383.54 1165.14L1429.84 1179.84L1505.87 1179.84L1451.69 1165.14ZM1464.17 1165.14L1518.36 1179.84L1591.8 1179.84L1529.77 1165.14L1464.17 1165.14ZM1543.95 1165.14L1605.98 1179.84L1678.04 1179.84L1608.1 1165.14L1543.95 1165.14ZM1624 1165.14L1693.94 1179.84L1764.71 1179.84L1686.78 1165.14L1624 1165.14ZM1704.41 1165.14L1782.35 1179.84H1850.44L1764.68 1165.14L1704.41 1165.14ZM1784.03 1165.14L1869.79 1179.84H1937.52L1843.6 1165.14L1784.03 1165.14ZM1864.74 1165.14L1958.65 1179.84H2023.63L1921.87 1165.14L1864.74 1165.14ZM1944.73 1165.14L2046.5 1179.84H2110.61L2000.8 1165.14L1944.73 1165.14ZM2025.43 1165.14L2135.25 1179.84H2198.26L2080.34 1165.14L2025.43 1165.14ZM2106.76 1165.14L2224.69 1179.84H2285.33L2159.3 1165.14L2106.76 1165.14ZM2187.52 1165.14L2313.54 1179.84H2370.22L2236.44 1165.14L2187.52 1165.14ZM2266.37 1165.14L2400.15 1179.84H2458.55L2316.48 1165.14L2266.37 1165.14ZM2348.24 1165.14L2490.31 1179.84L2566.85 1179.84L2421.85 1165.14L2348.24 1165.14ZM2454.26 1165.14L2599.26 1179.84L2653.37 1179.84L2500.42 1165.14L2454.26 1165.14ZM-548.123 1165.14L-705.513 1179.84L-652.428 1179.84L-503.237 1165.14L-548.123 1165.14ZM-469.9 1165.14L-619.09 1179.84L-563.94 1179.84L-422.81 1165.14L-469.9 1165.14ZM-391.256 1165.14L-532.386 1179.84L-478.541 1179.84L-344.879 1165.14L-391.256 1165.14ZM-314.976 1165.14L-448.639 1179.84L-389.018 1179.84L-263.617 1165.14L-314.976 1165.14ZM-235.539 1165.14L-360.941 1179.84L-300.627 1179.84L-183.271 1165.14L-235.539 1165.14ZM-156.97 1165.14L-274.326 1179.84L-214.291 1179.84L-104.581 1165.14L-156.97 1165.14ZM-79.9656 1165.14L-189.676 1179.84L-126.182 1179.84L-24.4615 1165.14L-79.9656 1165.14ZM-1.60623 1165.14L-103.326 1179.84L-34.3221 1179.84L57.8628 1165.14L-1.60623 1165.14ZM78.6215 1165.14L-13.5633 1179.84L50.2441 1179.84L136.156 1165.14L78.6215 1165.14ZM155.539 1165.14L69.6267 1179.84L138.815 1179.84L216.71 1165.14L155.539 1165.14ZM234.337 1165.14L156.442 1179.84L222.084 1179.84L291.427 1165.14L234.337 1165.14ZM307.19 1165.14L237.847 1179.84L308.811 1179.84L370.56 1165.14L307.19 1165.14ZM384.676 1165.14L322.926 1179.84L397.569 1179.84L451.343 1165.14L384.676 1165.14ZM463.741 1165.14L409.966 1179.84L491.685 1179.84L538.239 1165.14L463.741 1165.14ZM549.035 1165.14L502.481 1179.84L580.643 1179.84L619.055 1165.14L549.035 1165.14ZM628.134 1165.14L589.722 1179.84L664.682 1179.84L694.511 1165.14L628.134 1165.14ZM701.835 1165.14L672.005 1179.84L748.722 1179.84L769.984 1165.14L701.835 1165.14ZM775.661 1165.14L754.4 1179.84L832.731 1179.84L845.412 1165.14L775.661 1165.14ZM849.679 1165.14L836.998 1179.84L916.721 1179.84L920.822 1165.14L849.679 1165.14ZM924.208 1165.14L920.106 1179.84L1000.75 1179.84L996.265 1165.14L924.208 1165.14ZM999.673 1165.14L1004.15 1179.84L1083.78 1179.84L1070.71 1165.14L999.673 1165.14ZM1075.04 1165.14L1088.1 1179.84L1167.6 1179.84L1145.97 1165.14L1075.04 1165.14ZM1151.72 1165.14L1173.35 1179.84L1251.64 1179.84L1221.31 1165.14L1151.72 1165.14ZM1429.33 1183.11L1352.12 1183.11L1399.52 1201.22H1486.35L1429.33 1183.11ZM1497.15 1201.22L1440.13 1183.11L1517.92 1183.11L1584.66 1201.22H1497.15ZM1597.14 1201.22L1530.41 1183.11H1605.6L1682 1201.22H1597.14ZM1696.17 1201.22L1619.77 1183.11H1693.6L1779.74 1201.22H1696.17ZM1795.63 1201.22L1709.49 1183.11H1782.04L1878.04 1201.22H1795.63ZM1895.68 1201.22L1799.68 1183.11H1869.51L1975.15 1201.22H1895.68ZM1994.5 1201.22L1888.86 1183.11L1958.4 1183.11L2074.07 1201.22H1994.5ZM2095.21 1201.22L1979.54 1183.11L2046.26 1183.11L2171.6 1201.22H2095.21ZM2194.47 1201.22L2069.13 1183.11L2135.03 1183.11L2270.28 1201.22H2194.47ZM2294.92 1201.22L2159.67 1183.11L2224.49 1183.11L2369.73 1201.22H2294.92ZM2396.16 1201.22L2250.91 1183.11L2313.35 1183.11L2468.58 1201.22H2396.16ZM2496.8 1201.22L2341.57 1183.11L2399.97 1183.11L2564.74 1201.22H2496.8ZM2594.67 1201.22L2429.9 1183.11L2490.14 1183.11L2665.12 1201.22H2594.67ZM2696.88 1201.22L2521.9 1183.11L2599.09 1183.11L2777.69 1201.22H2696.88ZM2810.1 1201.22L2631.5 1183.11L2687.38 1183.11H2687.43L2875.77 1201.22H2810.1ZM-934.364 1201.22L-740.513 1183.11L-685.604 1183.11L-869.358 1201.22H-934.364ZM-836.021 1201.22L-652.267 1183.11L-595.324 1183.11L-769.15 1201.22H-836.021ZM-737.596 1201.22L-563.77 1183.11L-508.265 1183.11L-672.894 1201.22H-737.596ZM-642.991 1201.22L-478.362 1183.11L-416.904 1183.11L-571.357 1201.22H-642.991ZM-543.28 1201.22L-388.827 1183.11L-326.725 1183.11L-471.269 1201.22H-543.28ZM-444.968 1201.22L-300.423 1183.11L-238.688 1183.11L-373.816 1201.22H-444.968ZM-349.201 1201.22L-214.073 1183.11L-148.802 1183.11L-274.088 1201.22H-349.201ZM-251.233 1201.22L-125.947 1183.11L-54.8217 1183.11L-168.363 1201.22H-251.233ZM-147.605 1201.22L-34.0629 1183.11L31.1393 1183.11L-74.6764 1201.22H-147.605ZM-55.2939 1201.22L50.5219 1183.11L121.493 1183.11L25.5512 1201.22H-55.2939ZM43.179 1201.22L139.12 1183.11L206.664 1183.11L121.256 1201.22H43.179ZM137.019 1201.22L222.427 1183.11L295.079 1183.11L219.024 1201.22H137.019ZM233.14 1201.22L309.195 1183.11L385.61 1183.11L319.377 1201.22H233.14ZM331.774 1201.22L398.008 1183.11L481.332 1183.11L423.993 1201.22H331.774ZM434.789 1201.22L492.129 1183.11L572.101 1183.11L524.79 1201.22H434.789ZM533.87 1201.22L581.181 1183.11L658.048 1183.11L621.307 1201.22H533.87ZM628.631 1201.22L665.372 1183.11L743.994 1183.11L717.807 1201.22H628.631ZM723.485 1201.22L749.672 1183.11L829.911 1183.11L814.292 1201.22H723.485ZM818.559 1201.22L834.178 1183.11L915.809 1183.11L910.757 1201.22H818.559ZM914.142 1201.22L919.194 1183.11L1001.74 1183.11L1007.26 1201.22H914.142ZM1010.67 1201.22L1005.15 1183.11L1086.68 1183.11L1102.77 1201.22H1010.67ZM1107.1 1201.22L1091.01 1183.11L1172.41 1183.11L1199.06 1201.22H1107.1ZM1204.8 1201.22L1178.16 1183.11L1258.39 1183.11L1295.75 1201.22H1204.8ZM1408.08 1204.49L1458.65 1223.82H1557.48L1496.64 1204.49H1408.08ZM1507.44 1204.49L1568.28 1223.82H1667.92L1596.71 1204.49H1507.44ZM1609.19 1204.49L1680.41 1223.82H1777.32L1695.79 1204.49H1609.19ZM1709.97 1204.49L1791.49 1223.82H1887.22L1795.29 1204.49H1709.97ZM1811.18 1204.49L1903.11 1223.82H1997.81L1895.37 1204.49H1811.18ZM1913.01 1204.49L2015.44 1223.82H2106.94L1994.22 1204.49H1913.01ZM2013.57 1204.49L2126.29 1223.82H2218.39L2094.96 1204.49H2013.57ZM2116.09 1204.49L2239.53 1223.82H2327.98L2194.23 1204.49H2116.09ZM2217.1 1204.49L2350.85 1223.82H2439.04L2294.7 1204.49H2217.1ZM2319.34 1204.49L2463.68 1223.82H2550.95L2395.96 1204.49H2319.34ZM2422.38 1204.49L2577.38 1223.82H2662.26L2496.61 1204.49H2422.38ZM2524.82 1204.49L2690.47 1223.82H2770.33L2594.49 1204.49H2524.82ZM2624.42 1204.49L2800.25 1223.82H2883.44L2696.71 1204.49H2624.42ZM2728.47 1204.49L2915.2 1223.82H3000.51L2809.93 1204.49H2728.47ZM2842.34 1204.49L3032.92 1223.82H3110.81L2909.78 1204.49H2842.34ZM-969.364 1204.49L-1176.23 1223.82H-1098.62L-902.534 1204.49H-969.364ZM-869.197 1204.49L-1065.29 1223.82H-986.029L-800.534 1204.49H-869.197ZM-768.98 1204.49L-954.476 1223.82H-878.298L-702.617 1204.49H-768.98ZM-672.714 1204.49L-848.395 1223.82H-764.066L-599.243 1204.49H-672.714ZM-571.166 1204.49L-735.988 1223.82H-651.615L-497.367 1204.49H-571.166ZM-471.065 1204.49L-625.314 1223.82H-542.412L-398.213 1204.49H-471.065ZM-373.598 1204.49L-517.797 1223.82H-430.405L-296.708 1204.49H-373.598ZM-273.853 1204.49L-407.55 1223.82H-310.027L-188.863 1204.49H-273.853ZM-168.104 1204.49L-289.268 1223.82H-206.701L-93.7813 1204.49H-168.104ZM-74.3987 1204.49L-187.318 1223.82H-94.1529L8.22922 1204.49H-74.3987ZM25.857 1204.49L-76.5251 1223.82H14.6942L105.836 1204.49H25.857ZM121.599 1204.49L30.4571 1223.82H124.132L205.293 1204.49H121.599ZM219.408 1204.49L138.247 1223.82H236.74L307.419 1204.49H219.408ZM319.816 1204.49L249.137 1223.82H352.452L413.64 1204.49H319.816ZM424.437 1204.49L363.248 1223.82H465.761L516.248 1204.49H424.437ZM525.328 1204.49L474.841 1223.82H575.467L614.674 1204.49H525.328ZM621.997 1204.49L582.79 1223.82H685.134L713.079 1204.49H621.997ZM718.757 1204.49L690.811 1223.82H794.805L811.472 1204.49H718.757ZM815.739 1204.49L799.072 1223.82H904.454L909.845 1204.49H815.739ZM913.23 1204.49L907.839 1223.82H1014.14L1008.26 1204.49H913.23ZM1011.66 1204.49L1017.55 1223.82H1122.85L1105.68 1204.49H1011.66ZM1110 1204.49L1127.17 1223.82H1232.3L1203.87 1204.49H1110ZM1209.62 1204.49L1238.05 1223.82H1342.37L1302.5 1204.49H1209.62ZM1458.12 1227.09H1356.54L1409.75 1252.87L1409.2 1253.69H1527.75L1458.12 1227.09ZM1536.6 1253.6L1467.21 1227.09H1567.78L1651.54 1253.69H1536.55L1536.6 1253.6ZM1662.34 1253.69L1578.58 1227.09H1679.97L1778.01 1253.69H1662.34ZM1790.49 1253.69L1692.46 1227.09H1791.11L1903.35 1253.69H1790.49ZM1917.52 1253.69L1805.29 1227.09H1902.77L2029.32 1253.69H1917.52ZM2045.21 1253.69L1918.66 1227.09H2015.14L2156.16 1253.69H2045.21ZM2173.79 1253.69L2032.78 1227.09H2126.01L2281.19 1253.69H2173.79ZM2300.54 1253.69L2145.36 1227.09H2239.27L2409.2 1253.69H2300.54ZM2430.34 1253.69L2260.41 1227.09H2350.61L2534.74 1253.69H2430.34ZM2557.61 1253.69L2373.48 1227.09H2463.46L2662.15 1253.69H2557.61ZM2686.79 1253.69L2488.09 1227.09H2577.18L2790.55 1253.69H2686.79ZM2816.98 1253.69L2603.6 1227.09H2690.28L2918.32 1253.69H2816.98ZM2946.53 1253.69L2718.5 1227.09H2800.07L3042.13 1253.69H2946.53ZM3072.06 1253.69L2830 1227.09H2915.03L3172.09 1253.69H3072.06ZM3203.59 1253.66L2946.79 1227.09H3032.76L3295.12 1253.69H3203.58L3203.59 1253.66ZM3327.53 1253.69L3065.17 1227.09H3144.83L3421.57 1253.69H3327.53ZM-1496.01 1253.69L-1211.23 1227.09H-1131.8L-1401.74 1253.69H-1496.01ZM-1368.41 1253.69L-1098.46 1227.09H-1017.41L-1272.77 1253.69H-1368.41ZM-1241.22 1253.69L-985.86 1227.09H-908.021L-1149.87 1253.69H-1241.22ZM-1119.97 1253.69L-878.119 1227.09H-791.952L-1018.85 1253.69H-1119.97ZM-990.773 1253.69L-763.874 1227.09H-677.712L-890.055 1253.69H-990.773ZM-863.754 1253.69L-651.411 1227.09H-566.809L-765.317 1253.69H-863.754ZM-740.702 1253.69L-542.194 1227.09H-453.025L-637.076 1253.69H-740.702ZM-614.221 1253.69L-430.17 1227.09H-330.527L-497.324 1253.69H-614.221ZM-476.565 1253.69L-309.768 1227.09H-225.805L-381.253 1253.69H-476.565ZM-361.871 1253.69L-206.423 1227.09H-111.475L-252.417 1253.69H-361.871ZM-234.789 1253.69L-93.8471 1227.09H-0.726106L-126.194 1253.69H-234.789ZM-110.431 1253.69L15.037 1227.09H110.4L-1.32816 1253.69H-110.431ZM12.7873 1253.69L124.516 1227.09H224.781L127.482 1253.69H12.7873ZM139.879 1253.69L237.179 1227.09H342.099L257.866 1253.69H139.879ZM268.662 1253.69L352.896 1227.09H457.219L387.717 1253.69H268.662ZM396.797 1253.69L466.299 1227.09H568.833L514.859 1253.69H396.797ZM522.183 1253.69L576.157 1227.09H680.406L641.936 1253.69H522.183ZM647.613 1253.69L686.083 1227.09H791.985L769.04 1253.69H647.613ZM773.307 1253.69L796.252 1227.09H903.542L896.121 1253.69H773.307ZM899.506 1253.69L906.927 1227.09H1015.14L1023.25 1253.69H899.506ZM1026.65 1253.69L1018.55 1227.09H1125.76L1149.39 1253.69H1026.65ZM1153.72 1253.69L1130.08 1227.09H1237.11L1276.26 1253.69H1153.72Z" fill="url(#paint0_linear_2006_23)"/>
<path fill-rule="evenodd" clip-rule="evenodd" d="M516.502 4.89302L571.39 31.4965L677.648 31.4965L638.863 5.13593L639.091 4.89302L516.502 4.89302ZM610.583 54.0911L570.711 34.7661L470.947 34.7661L521.525 54.0911H610.583ZM617.329 57.3608L654.693 75.4702L577.478 75.4702L530.082 57.3608L617.329 57.3608ZM691.774 93.4429L661.439 78.7398L586.035 78.7398L624.516 93.4429L691.774 93.4429ZM698.52 96.7125L721.842 108.016L662.658 108.016L633.074 96.7125L698.52 96.7125ZM751.905 122.587L728.587 111.286L671.215 111.286L700.794 122.587L751.905 122.587ZM758.651 125.857L781.971 137.16L738.933 137.16L709.351 125.857L758.651 125.857ZM812.037 151.732L788.717 140.429L747.49 140.429L777.071 151.732L812.037 151.732ZM818.783 155.001L820.248 155.712L820.723 155.001L1475 155.001L1475.04 155.263L1476.69 155.001L1853.08 155.001V154.23L2000.82 140.429L2008.23 140.429V139.737L2156.8 125.857H2163.03V125.275L2312.78 111.286H2320.19V110.594L2468.78 96.7123H2475.34V96.0998L2661.17 78.7397H2668.64V78.0417L2890.02 57.3608H2895.06V56.8907L3131.89 34.7661H3145.75V33.4717L3451.67 4.89302H3460.21V4.09491L3460.27 4.08968L3460.21 3.48927V1.62341H3460.04L3459.96 0.834244L3451.52 1.62341L3331.8 1.62341L3331.71 0.675339L3322.09 1.62341H3203.58L3203.47 0.544159L3193.11 1.62341L3075.24 1.62341L3075.18 1.07481L3070.2 1.62341H2947.57L2947.45 0.652054L2939.17 1.62341L2819.33 1.62341L2819.19 0.517258L2810.36 1.62341H2691.02L2690.92 0.911118L2685.61 1.62341L2562.74 1.62341L2562.63 0.859818L2557.35 1.62341H2421.15L2421.06 1.06693L2417.57 1.62341L2309.49 1.62341L2309.27 0.291321L2301.48 1.62341L2179.78 1.62341L2179.53 0.317947L2172.62 1.62341H2050.13L2049.96 0.859116L2046.36 1.62341L1922.1 1.62341L1922.07 1.4767L1921.45 1.62341H1794.16L1794.05 1.22237L1792.59 1.62341L1666.04 1.62341L1665.58 0.555908L1662.2 1.62341H1536.25L1535.58 0.350601L1532.25 1.62341L1408.02 1.62341L1407.25 0.492081L1404.96 1.62341H1279.44L1278.72 0.868088L1277.62 1.62341L1150.35 1.62341L1150.13 1.49123L1150.02 1.62341L258.676 1.62341L256.566 0.953369L256.354 1.62341H130.449L128.556 1.10973L128.417 1.62341L3.36722 1.62341L0.690706 0.988968L0.540315 1.62341H-124.362L-127.414 0.981705L-127.549 1.62341L-252.981 1.62341L-255.506 1.14709L-255.596 1.62341L-379.759 1.62341L-383.952 0.904495L-384.076 1.62341H-509.574L-512.319 1.19359L-512.387 1.62341L-636.865 1.62341L-640.573 1.08775L-640.65 1.62341H-766.063L-768.991 1.23138L-769.043 1.62341L-896.265 1.62341L-897.378 1.4846L-897.395 1.62341H-1025.83L-1025.98 1.60625L-1025.98 1.62341L-1151.37 1.62341L-1154.27 1.30463L-1154.31 1.62341L-1406.86 1.62341L-1411.1 1.19293L-1411.14 1.62341L-1535.07 1.62341L-1539.45 1.20303L-1539.49 1.62341H-1539.72V4.06668L-1539.76 4.45764L-1539.72 4.46126V4.89302H-1535.23L-1233.97 33.8535V34.7661H-1224.47L-990.523 57.2559V57.3608H-989.432L-580.125 96.7126H-580.073L26.1839 154.992V155.002H26.2805L27.3184 155.101L27.3279 155.002L73.3282 155.002L74.2076 155.091L74.2166 155.002L167.073 155.002L167.969 155.094L167.979 155.002L214.235 155.002L214.846 155.069L214.854 155.002L260.649 155.002L261.7 155.124L261.714 155.002L307.474 155.002L308.579 155.139L308.596 155.002L354.839 155.002L355.459 155.085L355.47 155.002L401.836 155.002L402.32 155.071L402.33 155.002L448.957 155.002L449.193 155.038L449.199 155.002L495.558 155.001L496.042 155.084L496.056 155.001L542.404 155.001L542.9 155.095L542.918 155.001L589.332 155.001L589.746 155.088L589.764 155.001L636.263 155.001L636.604 155.082L636.623 155.001L683.188 155.001L683.427 155.066L683.445 155.001L776.534 155.001L777.828 155.496L778.088 155.001L818.783 155.001ZM671.139 151.732L629.487 140.429L588.961 140.429L636.645 151.732L671.139 151.732ZM622.469 151.732L574.786 140.429L535.908 140.429L589.672 151.732L622.469 151.732ZM573.779 151.732L520.015 140.429L482.796 140.429L542.709 151.732L573.779 151.732ZM525.072 151.732L465.159 140.429L429.907 140.429L495.836 151.732L525.072 151.732ZM476.487 151.732L410.557 140.429L377.019 140.429L449.212 151.732L476.487 151.732ZM428.074 151.732L355.88 140.429L323.843 140.429L402.071 151.732L428.074 151.732ZM379.206 151.732L300.978 140.429L270.64 140.429L355.057 151.732L379.206 151.732ZM330.419 151.732L246.002 140.429L217.025 140.429L307.677 151.732L330.419 151.732ZM281.251 151.732L190.598 140.429L163.957 140.429L260.839 151.732L281.251 151.732ZM232.623 151.732L135.741 140.429L111.575 140.429L214.414 151.732L232.623 151.732ZM184.486 151.732L81.647 140.429L58.0305 140.429L167.242 151.732L184.486 151.732ZM135.481 151.732L26.2698 140.429L-37.9712 140.429L73.4939 151.732L135.481 151.732ZM41.084 151.732L-70.3811 140.429L-91.1386 140.429L26.4375 151.732L41.084 151.732ZM683.624 151.732L641.972 140.429L684.898 140.429L720.484 151.732L683.624 151.732ZM731.285 151.732L767.977 151.732L738.396 140.429L695.699 140.429L731.285 151.732ZM1851.21 151.732L1851.15 151.127L1965.66 140.429L1946.98 140.429L1832.29 151.732L1851.21 151.732ZM1802.84 151.732L1802.81 151.352L1913.64 140.429L1892.31 140.429L1783.82 151.732L1802.84 151.732ZM1755.93 151.732L1755.89 151.354L1860.76 140.429L1838.24 140.429L1735.49 151.732L1755.93 151.732ZM1709.05 151.732L1709.01 151.356L1808.34 140.429L1783.38 140.429L1686.98 151.732L1709.05 151.732ZM1662.13 151.732L1662.09 151.358L1755.3 140.429L1728.74 140.429L1638.53 151.732L1662.13 151.732ZM1615.23 151.732L1615.18 151.362L1702.44 140.429L1674.49 140.429L1590.15 151.732L1615.23 151.732ZM1568.32 151.732L1568.27 151.365L1649.87 140.429L1619.9 140.429L1541.71 151.732L1568.32 151.732ZM1521.41 151.732L1521.36 151.37L1597.05 140.429L1568.05 140.429L1497.19 151.732L1521.41 151.732ZM1476.43 151.732L1547.29 140.429L1509.8 140.429L1443.76 151.732L1476.43 151.732ZM1427.59 151.732L1427.5 151.198L1490.42 140.429L1454.87 140.429L1394.99 151.732L1427.59 151.732ZM1380.67 151.732L1380.56 151.128L1437.24 140.429L1407.48 140.429L1354.18 151.732L1380.67 151.732ZM1338.41 151.732L1391.72 140.429L1352.62 140.429L1305.15 151.732L1338.41 151.732ZM1291.03 151.732L1338.5 140.429L1297.32 140.429L1255.98 151.732L1291.03 151.732ZM1244 151.732L1243.97 151.627L1284.92 140.429L1233.5 140.429L1197.71 151.732L1244 151.732ZM1188.94 151.732L1188.69 151.17L1222.7 140.429L1178.7 140.429L1149.17 151.732L1188.94 151.732ZM1142.49 151.732L1142.09 150.968L1169.62 140.429L1130.67 140.429L1107.74 151.732L1142.49 151.732ZM1101.97 151.732L1101.58 151.156L1123.35 140.429L1082.58 140.429L1066.23 151.732L1101.97 151.732ZM1061.24 151.732L1060.97 151.445L1076.9 140.429L1034.57 140.429L1024.82 151.732L1061.24 151.732ZM1020.56 151.732L1030.3 140.429L986.578 140.429L983.425 151.732L1020.56 151.732ZM980.04 151.732L983.193 140.429L938.559 140.429L942.003 151.732L980.04 151.732ZM938.595 151.732L935.151 140.429L891.543 140.429L901.585 151.732L938.595 151.732ZM897.264 151.732L887.221 140.429L843.671 140.429L860.301 151.732L897.264 151.732ZM854.556 151.732L819.461 151.732L796.142 140.429L837.926 140.429L854.556 151.732ZM700.257 125.857L729.838 137.16L685.405 137.16L649.819 125.857L700.257 125.857ZM674.604 137.16L629.923 137.16L588.271 125.857L639.018 125.857L674.604 137.16ZM575.786 125.857L617.438 137.16L575.168 137.16L527.484 125.857L575.786 125.857ZM513.308 125.857L560.992 137.16L520.355 137.16L466.591 125.857L513.308 125.857ZM450.698 125.857L504.462 137.16L465.465 137.16L405.552 125.857L450.698 125.857ZM387.915 125.857L447.828 137.16L410.835 137.16L344.906 125.857L387.915 125.857ZM325.556 125.857L391.485 137.16L356.135 137.16L283.942 125.857L325.556 125.857ZM262.803 125.857L334.996 137.16L301.213 137.16L222.985 125.857L262.803 125.857ZM200.12 125.857L278.348 137.16L246.22 137.16L161.804 125.857L200.12 125.857ZM137.167 125.857L221.583 137.16L190.801 137.16L100.148 125.857L137.167 125.857ZM73.7217 125.857L164.374 137.16L135.931 137.16L39.0493 125.857L73.7217 125.857ZM10.8335 125.857L107.715 137.16L81.8262 137.16L-21.0124 125.857L10.8335 125.857ZM-50.9406 125.857L51.898 137.16L26.4383 137.16L-82.7727 125.857L-50.9406 125.857ZM-114.533 125.857L-5.32248 137.16L-70.2155 137.16L-181.681 125.857L-114.533 125.857ZM-214.091 125.857L-102.625 137.16L-125.107 137.16V137.164L-242.727 125.857L-214.091 125.857ZM2121.65 125.857L2000.66 137.16L1980.15 137.16L2094.84 125.857L2121.65 125.857ZM2061.5 125.857L1946.82 137.16L1923.69 137.16L2032.18 125.857L2061.5 125.857ZM2000.63 125.857L1892.14 137.16L1867.96 137.16L1970.71 125.857L2000.63 125.857ZM1940.81 125.857L1838.06 137.16L1811.27 137.16L1907.67 125.857L1940.81 125.857ZM1879.59 125.857L1783.19 137.16L1754.84 137.16L1845.06 125.857L1879.59 125.857ZM1818.76 125.857L1728.54 137.16L1698.88 137.16L1783.22 125.857L1818.76 125.857ZM1758.61 125.857L1674.27 137.16L1642.52 137.16L1720.72 125.857L1758.61 125.857ZM1697.86 125.857L1619.67 137.16L1588.55 137.16L1659.42 125.857L1697.86 125.857ZM1638.66 125.857L1567.79 137.16L1528.91 137.16L1594.95 125.857L1638.66 125.857ZM1575.57 125.857L1509.53 137.16L1472.19 137.16L1532.07 125.857L1575.57 125.857ZM1514.44 125.857L1454.56 137.16L1422.9 137.16L1476.21 125.857L1514.44 125.857ZM1460.45 125.857L1407.14 137.16L1366.35 137.16L1413.82 125.857L1460.45 125.857ZM1399.7 125.857L1352.23 137.16L1309.27 137.16L1350.61 125.857L1399.7 125.857ZM1338.22 125.857L1296.88 137.16L1243.85 137.16L1279.64 125.857L1338.22 125.857ZM1268.84 125.857L1233.05 137.16L1187.24 137.16L1216.77 125.857L1268.84 125.857ZM1207.69 125.857L1178.16 137.16L1137.3 137.16L1160.23 125.857L1207.69 125.857ZM1152.91 125.857L1129.98 137.16L1087.31 137.16L1103.65 125.857L1152.91 125.857ZM1097.97 125.857L1081.63 137.16L1037.39 137.16L1047.14 125.857L1097.97 125.857ZM1042.87 125.857L1033.12 137.16L987.49 137.16L990.643 125.857L1042.87 125.857ZM987.258 125.857L984.105 137.16L937.563 137.16L934.119 125.857L987.258 125.857ZM930.711 125.857L934.155 137.16L888.637 137.16L878.595 125.857L930.711 125.857ZM874.273 125.857L884.316 137.16L838.86 137.16L822.23 125.857L874.273 125.857ZM816.485 125.857L833.115 137.16L789.396 137.16L766.076 125.857L816.485 125.857ZM691.7 122.587L639.525 122.587L603.942 111.286L662.121 111.286L691.7 122.587ZM628.724 122.587L593.141 111.286L534.573 111.286L576.221 122.587L628.724 122.587ZM563.737 122.587L522.088 111.286L466.011 111.286L513.69 122.587L563.737 122.587ZM499.514 122.587L451.835 111.286L397.278 111.286L451.038 122.587L499.514 122.587ZM435.145 122.587L381.386 111.286L328.313 111.286L388.221 122.587L435.145 122.587ZM370.584 122.587L310.676 111.286L259.911 111.286L325.834 122.587L370.584 122.587ZM306.484 122.587L240.561 111.286L190.871 111.286L263.058 122.587L306.484 122.587ZM241.919 122.587L169.732 111.286L122.134 111.286L200.356 122.587L241.919 122.587ZM177.491 122.587L99.2691 111.286L52.9754 111.286L137.384 122.587H177.491ZM112.747 122.587L28.3377 111.286L-16.7199 111.286L73.9248 122.587L112.747 122.587ZM47.4981 122.587L-43.1467 111.286L-85.8498 111.286L11.0237 122.587H47.4981ZM-17.1921 122.587L-114.066 111.286L-153.591 111.286L-50.7614 122.587L-17.1921 122.587ZM-80.6897 122.587L-183.519 111.286L-223.566 111.286L-114.365 122.587L-80.6897 122.587ZM-146.126 122.587L-255.327 111.286L-325.38 111.286L-213.925 122.587L-146.126 122.587ZM-246.335 122.587L-357.79 111.286L-394.305 111.286L-276.711 122.587L-246.335 122.587ZM2156.65 122.587L2277.63 111.286L2242.69 111.286L2128.02 122.587L2156.65 122.587ZM2094.68 122.587L2209.36 111.286H2172.05L2063.57 122.587H2094.68ZM2032.01 122.587L2140.5 111.286L2103.18 111.286L2000.44 122.587L2032.01 122.587ZM1970.54 122.587L2073.28 111.286L2031.94 111.286L1935.55 122.587L1970.54 122.587ZM1907.48 122.587L2003.87 111.286L1961.36 111.286L1871.15 122.587L1907.48 122.587ZM1844.85 122.587L1935.06 111.286L1891.95 111.286L1807.62 122.587L1844.85 122.587ZM1783 122.587L1867.33 111.286L1821.53 111.286L1743.34 122.587L1783 122.587ZM1720.48 122.587L1798.67 111.286L1750.77 111.286L1679.92 122.587L1720.48 122.587ZM1659.16 122.587L1730.02 111.286L1680.09 111.286L1614.06 122.587L1659.16 122.587ZM1594.67 122.587L1660.71 111.286L1609.27 111.286L1549.39 122.587L1594.67 122.587ZM1531.77 122.587L1591.64 111.286L1544.93 111.286L1491.63 122.587L1531.77 122.587ZM1475.87 122.587L1529.17 111.286L1475.01 111.286L1427.55 122.587L1475.87 122.587ZM1413.43 122.587L1460.9 111.286L1403.91 111.286L1362.57 122.587L1413.43 122.587ZM1350.17 122.587L1391.51 111.286L1325.77 111.286L1289.99 122.587L1350.17 122.587ZM1279.19 122.587L1314.98 111.286L1254.84 111.286L1225.31 122.587L1279.19 122.587ZM1216.23 122.587L1245.76 111.286L1189.8 111.286L1166.87 122.587L1216.23 122.587ZM1159.54 122.587L1182.47 111.286L1124.72 111.286L1108.38 122.587L1159.54 122.587ZM1102.7 122.587L1119.04 111.286L1059.71 111.286L1049.96 122.587L1102.7 122.587ZM1045.69 122.587L1055.44 111.286L994.708 111.286L991.555 122.587L1045.69 122.587ZM988.17 122.587L991.323 111.286L929.679 111.286L933.123 122.587L988.17 122.587ZM929.715 122.587L926.272 111.286L865.647 111.286L875.689 122.587L929.715 122.587ZM871.368 122.587L861.326 111.286L800.791 111.286L817.419 122.587L871.368 122.587ZM811.674 122.587L795.046 111.286L736.012 111.286L759.33 122.587L811.674 122.587ZM623.98 96.7125L653.564 108.016L593.648 108.016L558.059 96.7125L623.98 96.7125ZM547.258 96.7125L582.847 108.016L522.524 108.016L480.868 96.7125L547.258 96.7125ZM468.383 96.7125L510.039 108.016L452.217 108.016L404.529 96.7125L468.383 96.7125ZM390.354 96.7125L438.041 108.016L381.726 108.016L327.957 96.7125L390.354 96.7125ZM312.064 96.7125L365.833 108.016L310.982 108.016L251.064 96.7125L312.064 96.7125ZM233.427 96.7125L293.345 108.016L240.839 108.016L174.904 96.7125L233.427 96.7125ZM155.554 96.7125L221.489 108.016L169.987 108.016L97.7876 96.7125L155.554 96.7125ZM21.2693 96.7125L76.6492 96.7125L148.849 108.016L99.5042 108.016L21.2693 96.7125ZM-1.59567 96.7125L76.6392 108.016L28.5555 108.016L-55.8681 96.7125L-1.59567 96.7125ZM-80.5058 96.7125L3.91776 108.016L-42.9438 108.016L-133.604 96.7125L-80.5058 96.7125ZM-160.031 96.7125L-69.3706 108.016L-113.876 108.016L-210.766 96.7126L-160.031 96.7125ZM-238.982 96.7126L-142.092 108.016L-183.34 108.016L-286.188 96.7126L-238.982 96.7126ZM-316.116 96.7126L-213.269 108.016L-255.159 108.016L-364.379 96.7126L-316.116 96.7126ZM-396.14 96.7126L-286.92 108.016L-357.625 108.016L-469.099 96.7126L-396.14 96.7126ZM-501.509 96.7126L-390.035 108.016L-428.258 108.016V108.022L-545.904 96.7126L-501.509 96.7126ZM2433.63 96.7123L2312.63 108.016L2275.87 108.016L2390.57 96.7123L2433.63 96.7123ZM2357.23 96.7123L2242.53 108.016L2203.43 108.016L2311.93 96.7123L2357.23 96.7123ZM2280.38 96.7123L2171.88 108.016L2132.9 108.016L2235.66 96.7123L2280.38 96.7123ZM2205.76 96.7123L2103 108.016L2059.83 108.016L2156.24 96.7123L2205.76 96.7123ZM2128.16 96.7123L2031.75 108.016L1987.46 108.016L2077.68 96.7124L2128.16 96.7123ZM2051.38 96.7124L1961.16 108.016L1916.35 108.016L2000.69 96.7124L2051.38 96.7124ZM1976.08 96.7124L1891.73 108.016L1844.15 108.016L1922.35 96.7124L1976.08 96.7124ZM1899.49 96.7124L1821.29 108.016L1771.27 108.016L1842.15 96.7124L1899.49 96.7124ZM1821.39 96.7124L1750.52 108.016L1699.2 108.016L1765.25 96.7124L1821.39 96.7124ZM1745.86 96.7124L1679.82 108.016L1626.59 108.016L1686.48 96.7124L1745.86 96.7124ZM1668.85 96.7124L1608.96 108.016L1560.35 108.016L1613.66 96.7124L1668.85 96.7124ZM1597.9 96.7124L1544.59 108.016L1488.74 108.016L1536.22 96.7124L1597.9 96.7124ZM1522.1 96.7124L1474.63 108.016L1415.86 108.016L1457.21 96.7124L1522.1 96.7124ZM1444.81 96.7124L1403.47 108.016L1336.13 108.016L1371.92 96.7124L1444.81 96.7124ZM1361.12 96.7124L1325.33 108.016L1263.38 108.016L1292.91 96.7124L1361.12 96.7124ZM1283.83 96.7124L1254.3 108.016L1196.43 108.016L1219.36 96.7124L1283.83 96.7124ZM1212.04 96.7124L1189.11 108.016L1129.45 108.016L1145.8 96.7124L1212.04 96.7124ZM1140.12 96.7124L1123.77 108.016L1062.53 108.016L1072.28 96.7124L1140.12 96.7124ZM1068.01 96.7124L1058.26 108.016L995.62 108.016L998.773 96.7124L1068.01 96.7124ZM995.388 96.7124L992.235 108.016L928.683 108.016L925.239 96.7125L995.388 96.7124ZM921.831 96.7125L925.275 108.016L862.742 108.016L852.699 96.7125L921.831 96.7125ZM848.377 96.7125L858.421 108.016L795.98 108.016L779.349 96.7125L848.377 96.7125ZM773.603 96.7125L790.235 108.016L729.267 108.016L705.945 96.7125L773.603 96.7125ZM615.422 93.4429L576.941 78.7398L501.473 78.7399L547.765 93.4429L615.422 93.4429ZM468.819 93.4429L536.964 93.4429L490.672 78.7399L414.636 78.7399L468.819 93.4429ZM456.334 93.4429L402.151 78.7399L328.706 78.7399L390.735 93.4429L456.334 93.4429ZM376.56 93.4429L314.531 78.7399L242.465 78.7399L312.404 93.4429L376.56 93.4429ZM296.511 93.4429L226.572 78.7399L155.795 78.7399L233.733 93.4429L296.511 93.4429ZM216.096 93.4429L138.158 78.7399H70.0679L155.832 93.4429L216.096 93.4429ZM136.482 93.4429L50.718 78.7399L-17.0088 78.7399L76.9036 93.4429L136.482 93.4429ZM55.7652 93.4429L-38.1472 78.7399L-103.124 78.7399L-1.36032 93.4429L55.7652 93.4429ZM-24.2253 93.4429L-125.988 78.7399H-190.101L-80.2881 93.4429L-24.2253 93.4429ZM-104.926 93.4429L-214.738 78.7399H-277.753L-159.828 93.4429L-104.926 93.4429ZM-186.255 93.4429L-304.18 78.7399L-364.82 78.7399L-238.792 93.4429L-186.255 93.4429ZM-267.008 93.443L-393.036 78.7399L-449.715 78.7399L-315.937 93.443L-267.008 93.443ZM-345.865 93.443L-479.643 78.7399H-538.038L-395.971 93.443L-345.865 93.443ZM-427.732 93.443L-569.799 78.7399L-646.343 78.74L-501.344 93.443L-427.732 93.443ZM-533.754 93.443L-678.753 78.74L-732.865 78.74L-579.916 93.443L-533.754 93.443ZM2468.63 93.4427L2626.02 78.7397L2572.94 78.7397L2423.74 93.4427L2468.63 93.4427ZM2390.41 93.4427L2539.6 78.7397L2484.45 78.7397L2343.32 93.4427L2390.41 93.4427ZM2311.76 93.4427L2452.89 78.7397L2399.05 78.7397L2265.39 93.4427L2311.76 93.4427ZM2235.48 93.4427L2369.15 78.7397L2309.53 78.7397L2184.12 93.4427L2235.48 93.4427ZM2156.05 93.4427L2281.45 78.7397L2221.14 78.7397L2103.78 93.4427L2156.05 93.4427ZM2077.48 93.4427L2194.83 78.7397L2134.8 78.7397L2025.09 93.4427L2077.48 93.4427ZM2000.47 93.4428L2110.18 78.7397L2046.69 78.7397L1944.97 93.4428L2000.47 93.4428ZM1922.11 93.4428L2023.83 78.7397L1954.83 78.7397L1862.65 93.4428L1922.11 93.4428ZM1841.89 93.4428L1934.07 78.7397L1870.26 78.7397L1784.35 93.4428L1841.89 93.4428ZM1764.97 93.4428L1850.88 78.7397L1781.69 78.7397L1703.8 93.4428L1764.97 93.4428ZM1686.17 93.4428L1764.07 78.7397L1698.42 78.7397L1629.08 93.4428L1686.17 93.4428ZM1613.32 93.4428L1682.66 78.7397L1611.7 78.7398L1549.95 93.4428L1613.32 93.4428ZM1535.83 93.4428L1597.58 78.7398L1522.94 78.7398L1469.16 93.4428L1535.83 93.4428ZM1456.77 93.4428L1510.54 78.7398L1428.82 78.7398L1382.27 93.4428L1456.77 93.4428ZM1371.47 93.4428L1418.03 78.7398L1339.87 78.7398L1301.45 93.4428L1371.47 93.4428ZM1292.37 93.4428L1330.79 78.7398L1255.83 78.7398L1226 93.4428L1292.37 93.4428ZM1218.67 93.4428L1248.5 78.7398L1171.79 78.7398L1150.52 93.4428L1218.67 93.4428ZM1144.85 93.4428L1166.11 78.7398L1087.78 78.7398L1075.1 93.4428L1144.85 93.4428ZM1070.83 93.4428L1083.51 78.7398L1003.79 78.7398L999.686 93.4428L1070.83 93.4428ZM996.3 93.4428L1000.4 78.7398L919.762 78.7398L924.242 93.4428L996.3 93.4428ZM920.835 93.4428L916.355 78.7398L836.73 78.7398L849.794 93.4429L920.835 93.4428ZM845.472 93.4429L832.408 78.7398L752.905 78.7398L774.538 93.4429L845.472 93.4429ZM768.793 93.4429L747.159 78.7398L668.864 78.7398L699.199 93.4429L768.793 93.4429ZM491.179 75.4702L568.384 75.4702L520.988 57.3608L434.162 57.3608L491.179 75.4702ZM423.361 57.3608L480.378 75.4702L402.587 75.4703L335.85 57.3608L423.361 57.3608ZM323.366 57.3608L390.102 75.4703L314.912 75.4703L238.512 57.3608L323.366 57.3608ZM224.336 57.3608L300.737 75.4703L226.912 75.4703L140.769 57.3608L224.336 57.3608ZM124.876 57.3608L211.019 75.4703L138.464 75.4703L42.4693 57.3608H124.876ZM24.8323 57.3608L120.827 75.4703H50.9961L-54.6384 57.3608H24.8323ZM-73.9882 57.3608L31.6463 75.4703L-37.8928 75.4703L-153.563 57.3608L-73.9882 57.3608ZM-174.702 57.3608L-59.031 75.4703L-125.753 75.4703L-251.094 57.3608L-174.702 57.3608ZM-273.959 57.3608L-148.618 75.4703L-214.521 75.4703L-349.776 57.3608L-273.959 57.3608ZM-374.414 57.3608L-239.158 75.4703L-303.977 75.4703L-449.225 57.3608L-374.414 57.3608ZM-475.651 57.3608L-330.404 75.4703L-392.846 75.4703L-548.074 57.3608L-475.651 57.3608ZM-576.29 57.3608L-421.062 75.4703L-479.464 75.4703L-644.236 57.3608H-576.29ZM-674.165 57.3608L-509.392 75.4703L-569.631 75.4703L-744.613 57.3608H-674.165ZM-776.374 57.3608L-601.391 75.4703L-678.587 75.4704L-857.181 57.3608H-776.374ZM-889.591 57.3608L-710.997 75.4704L-766.877 75.4704H-766.918L-955.263 57.3608L-889.591 57.3608ZM2854.87 57.3608L2661.02 75.4701L2606.11 75.4701L2789.87 57.3608L2854.87 57.3608ZM2756.53 57.3608L2572.77 75.4701L2515.83 75.4701L2689.66 57.3608L2756.53 57.3608ZM2658.1 57.3608L2484.28 75.4701L2428.77 75.4701L2593.4 57.3608H2658.1ZM2563.5 57.3608L2398.87 75.4701L2337.41 75.4701L2491.86 57.3608H2563.5ZM2463.79 57.3608L2309.33 75.4701L2247.23 75.4701L2391.78 57.3608H2463.79ZM2365.48 57.3608L2220.93 75.4701L2159.2 75.4701L2294.32 57.3608L2365.48 57.3608ZM2269.71 57.3608L2134.58 75.4701L2069.31 75.4701L2194.6 57.3608L2269.71 57.3608ZM2171.74 57.3608L2046.45 75.4701L1975.33 75.4701L2088.87 57.3608L2171.74 57.3608ZM2068.11 57.3608L1954.57 75.4701L1889.37 75.4701L1995.18 57.3608L2068.11 57.3608ZM1975.8 57.3608L1869.99 75.4701L1799.02 75.4701L1894.96 57.3608H1975.8ZM1877.33 57.3608L1781.39 75.4701L1713.84 75.4701L1799.25 57.3608H1877.33ZM1783.49 57.3608L1698.08 75.4701L1625.43 75.4701L1701.48 57.3608L1783.49 57.3608ZM1687.37 57.3608L1611.31 75.4701L1534.9 75.4702L1601.13 57.3608L1687.37 57.3608ZM1588.73 57.3608L1522.5 75.4702L1439.18 75.4702L1496.51 57.3608L1588.73 57.3608ZM1485.72 57.3608L1428.38 75.4702L1348.41 75.4702L1395.72 57.3608L1485.72 57.3608ZM1386.64 57.3608L1339.33 75.4702L1262.46 75.4702L1299.2 57.3608L1386.64 57.3608ZM1291.88 57.3608L1255.14 75.4702L1176.51 75.4702L1202.7 57.3608H1291.88ZM1197.02 57.3608L1170.84 75.4702L1090.6 75.4702L1106.22 57.3608H1197.02ZM1101.95 57.3608L1086.33 75.4702L1004.7 75.4702L1009.75 57.3608L1101.95 57.3608ZM1006.37 57.3608L1001.31 75.4702L918.766 75.4702L913.248 57.3608L1006.37 57.3608ZM909.841 57.3608L915.359 75.4702L833.824 75.4702L817.733 57.3608L909.841 57.3608ZM813.412 57.3608L829.503 75.4702L748.094 75.4702L721.449 57.3608L813.412 57.3608ZM715.703 57.3608L742.349 75.4702L662.118 75.4702L624.754 57.3608H715.703ZM512.431 54.0911L461.853 34.7661L363.024 34.7661L423.868 54.0911L512.431 54.0911ZM413.067 54.0911L352.223 34.7661L252.585 34.7661L323.801 54.0911L413.067 54.0911ZM311.316 54.0911L240.1 34.7661L143.189 34.7661L224.718 54.0911L311.316 54.0911ZM210.542 54.0911L129.014 34.7661L33.2908 34.7661L125.216 54.0911L210.542 54.0911ZM109.324 54.0911L17.3982 34.7661H-77.3L25.1377 54.0911L109.324 54.0911ZM7.50076 54.0911L-94.937 34.7661H-186.435L-73.7102 54.0911H7.50076ZM-93.0603 54.0911L-205.785 34.7661H-297.882L-174.447 54.0911H-93.0603ZM-195.586 54.0911L-319.021 34.7661H-407.477L-273.724 54.0911H-195.586ZM-296.589 54.0911L-430.342 34.7661H-518.53L-374.196 54.0911L-296.589 54.0911ZM-398.833 54.0911L-543.167 34.7661H-630.445L-475.448 54.0911L-398.833 54.0911ZM-501.875 54.0911L-656.872 34.7661L-741.748 34.7661L-576.1 54.0911L-501.875 54.0911ZM-604.316 54.0911L-769.963 34.7661L-849.817 34.7661L-673.985 54.0911L-604.316 54.0911ZM-703.914 54.0911L-879.746 34.7661L-962.933 34.7661L-776.206 54.0911L-703.914 54.0911ZM-807.966 54.0911L-994.693 34.7661L-1080.01 34.7661L-889.426 54.0911H-807.966ZM-921.836 54.0911L-1112.42 34.7661L-1190.31 34.7661L-989.275 54.0911H-921.836ZM2889.87 54.0911L3096.74 34.7661L3019.13 34.7661L2823.04 54.0911H2889.87ZM2789.7 54.0911L2985.79 34.7661L2906.54 34.7661L2721.04 54.0911H2789.7ZM2689.49 54.0911L2874.98 34.7661L2798.81 34.7661L2623.12 54.0911H2689.49ZM2593.22 54.0911L2768.9 34.7661L2684.57 34.7661L2519.75 54.0911L2593.22 54.0911ZM2491.67 54.0911L2656.5 34.7661L2572.12 34.7661L2417.87 54.0911L2491.67 54.0911ZM2391.57 54.0911L2545.82 34.7661L2462.92 34.7661L2318.72 54.0911L2391.57 54.0911ZM2294.11 54.0911L2438.3 34.7661L2350.91 34.7661L2217.22 54.0911L2294.11 54.0911ZM2194.36 54.0911L2328.06 34.7661L2230.53 34.7661L2109.37 54.0911L2194.36 54.0911ZM2088.61 54.0911L2209.78 34.7661H2127.21L2014.29 54.0911H2088.61ZM1994.91 54.0911L2107.83 34.7661H2014.66L1912.28 54.0911H1994.91ZM1894.65 54.0911L1997.03 34.7661H1905.81L1814.67 54.0911L1894.65 54.0911ZM1798.91 54.0911L1890.05 34.7661H1796.38L1715.22 54.0911L1798.91 54.0911ZM1701.1 54.0911L1782.26 34.7661L1683.77 34.7661L1613.09 54.0911L1701.1 54.0911ZM1600.69 54.0911L1671.37 34.7661L1568.06 34.7661L1506.87 54.0911L1600.69 54.0911ZM1496.07 54.0911L1557.26 34.7661L1454.75 34.7661L1404.26 54.0911L1496.07 54.0911ZM1395.18 54.0911L1445.67 34.7661L1345.04 34.7661L1305.83 54.0911L1395.18 54.0911ZM1298.51 54.0911L1337.72 34.7661L1235.37 34.7661L1207.43 54.0911H1298.51ZM1201.75 54.0911L1229.7 34.7661L1125.7 34.7661L1109.04 54.0911L1201.75 54.0911ZM1104.77 54.0911L1121.44 34.7661L1016.05 34.7661L1010.66 54.0911L1104.77 54.0911ZM1007.28 54.0911L1012.67 34.7661L906.364 34.7661L912.252 54.0911L1007.28 54.0911ZM908.845 54.0911L902.956 34.7661L797.657 34.7661L814.828 54.0911L908.845 54.0911ZM810.507 54.0911L793.335 34.7661L688.204 34.7661L716.638 54.0911L810.507 54.0911ZM710.893 54.0911L682.459 34.7661L578.136 34.7661L618.008 54.0911H710.893ZM462.39 31.4965L563.965 31.4965L510.761 5.70914L511.307 4.89302H392.763L462.39 31.4965ZM383.906 4.9837L453.295 31.4965L352.73 31.4965L268.97 4.89302L383.954 4.89302L383.906 4.9837ZM258.169 4.89302L341.929 31.4965L240.536 31.4965L142.498 4.89302H258.169ZM130.013 4.89302L228.051 31.4965L129.396 31.4965L17.1612 4.89302L130.013 4.89302ZM2.98538 4.89302L115.22 31.4965L17.7381 31.4965L-108.809 4.89302H2.98538ZM-124.701 4.89302L1.84549 31.4965L-94.6313 31.4965L-235.65 4.89302L-124.701 4.89302ZM-253.287 4.89302L-112.268 31.4965L-205.507 31.4965L-360.687 4.89302H-253.287ZM-380.037 4.89302L-224.857 31.4965L-318.766 31.4965L-488.69 4.89302H-380.037ZM-509.828 4.89302L-339.905 31.4965L-430.107 31.4965L-614.236 4.89302L-509.828 4.89302ZM-637.101 4.89302L-452.972 31.4965H-542.95L-741.644 4.89302H-637.101ZM-766.281 4.89302L-567.587 31.4965H-656.668L-870.041 4.89302L-766.281 4.89302ZM-896.468 4.89302L-683.095 31.4965H-769.773L-997.808 4.89302H-896.468ZM-1026.02 4.89302L-797.989 31.4965H-879.566L-1121.62 4.89302L-1026.02 4.89302ZM-1151.55 4.89302L-909.495 31.4965H-994.525L-1251.58 4.89302H-1151.55ZM-1283.08 4.92001L-1026.29 31.4965H-1112.25L-1374.61 4.89302L-1283.08 4.89302L-1283.08 4.92001ZM-1407.02 4.89302L-1144.66 31.4965H-1224.32L-1501.06 4.89302H-1407.02ZM3416.52 4.89302L3131.74 31.4965L3052.31 31.4965L3322.25 4.89302L3416.52 4.89302ZM3288.91 4.89302L3018.97 31.4965L2937.92 31.4965L3193.28 4.89302H3288.91ZM3161.73 4.89302L2906.37 31.4965H2828.53L3070.38 4.89302L3161.73 4.89302ZM3040.47 4.89302L2798.63 31.4965H2712.46L2939.36 4.89302H3040.47ZM2911.28 4.89302L2684.38 31.4965H2598.22L2810.56 4.89302L2911.28 4.89302ZM2784.26 4.89302L2571.92 31.4965H2487.32L2685.83 4.89302H2784.26ZM2661.21 4.89302L2462.7 31.4965H2373.53L2557.58 4.89302L2661.21 4.89302ZM2534.73 4.89302L2350.68 31.4965H2251.03L2417.83 4.89302H2534.73ZM2397.07 4.89302L2230.28 31.4965H2146.31L2301.76 4.89302H2397.07ZM2282.38 4.89302L2126.93 31.4965L2031.98 31.4965L2172.92 4.89302L2282.38 4.89302ZM2155.3 4.89302L2014.35 31.4965L1921.23 31.4965L2046.7 4.89302H2155.3ZM2030.94 4.89302L1905.47 31.4965L1810.11 31.4965L1921.84 4.89302L2030.94 4.89302ZM1907.72 4.89302L1795.99 31.4965L1695.73 31.4965L1793.03 4.89302H1907.72ZM1780.63 4.89302L1683.33 31.4965L1578.41 31.4965L1662.64 4.89302L1780.63 4.89302ZM1651.85 4.89302L1567.61 31.4965L1463.29 31.4965L1532.79 4.89302H1651.85ZM1523.71 4.89302L1454.21 31.4965L1351.67 31.4965L1405.65 4.89302L1523.71 4.89302ZM1398.32 4.89302L1344.35 31.4965L1240.1 31.4965L1278.57 4.89302H1398.32ZM1272.89 4.89302L1234.42 31.4965L1128.52 31.4965L1151.47 4.89302L1272.89 4.89302ZM1147.2 4.89302L1124.26 31.4965L1016.97 31.4965L1024.39 4.89302H1147.2ZM1021 4.89302L1013.58 31.4965L905.367 31.4965L897.262 4.89302H1021ZM893.854 4.89302L901.96 31.4965L794.752 31.4965L771.114 4.89302L893.854 4.89302ZM766.792 4.89302L790.43 31.4965L683.393 31.4965L644.251 4.89302H766.792Z" fill="url(#paint1_linear_2006_23)"/>
<defs>
<linearGradient id="paint0_linear_2006_23" x1="960.254" y1="1102.87" x2="960.254" y2="1258.29" gradientUnits="userSpaceOnUse">
<stop stop-color="#DADADA" stop-opacity="0"/>
<stop offset="1" stop-color="#D6D6D6"/>
</linearGradient>
<linearGradient id="paint1_linear_2006_23" x1="960.254" y1="155.712" x2="960.254" y2="0.291336" gradientUnits="userSpaceOnUse">
<stop stop-color="#DADADA" stop-opacity="0"/>
<stop offset="1" stop-color="#D6D6D6"/>
</linearGradient>
</defs>
</svg>
