<svg width="376" height="122" viewBox="0 0 376 122" fill="none" xmlns="http://www.w3.org/2000/svg">
<path fill-rule="evenodd" clip-rule="evenodd" d="M-255.268 -29.107L-200.379 -2.50354L-94.1215 -2.50354L-132.907 -28.8641L-132.679 -29.107L-255.268 -29.107ZM-161.186 20.0911L-201.058 0.766068L-300.823 0.766068L-250.245 20.0911H-161.186ZM-154.441 23.3608L-117.077 41.4702L-194.291 41.4702L-241.688 23.3608L-154.441 23.3608ZM-79.9956 59.4429L-110.331 44.7398L-185.734 44.7398L-147.253 59.4429L-79.9956 59.4429ZM-73.2497 62.7125L-49.9279 74.0161L-109.112 74.0161L-138.696 62.7125L-73.2497 62.7125ZM-19.8642 88.5874L-43.1821 77.2857L-100.554 77.2857L-70.9756 88.5874L-19.8642 88.5874ZM-13.1184 91.857L10.2014 103.16L-32.8369 103.16L-62.4184 91.857L-13.1184 91.857ZM40.2671 117.732L16.9473 106.429L-24.2798 106.429L5.30179 117.732L40.2671 117.732ZM47.013 121.001L48.4783 121.712L48.9536 121.001L703.234 121.001L703.275 121.263L704.917 121.001L1081.31 121.001V120.23L1229.05 106.429L1236.46 106.429V105.737L1385.04 91.8568H1391.26V91.2753L1541.01 77.2856H1548.42V76.5939L1697.01 62.7123H1703.57V62.0998L1889.4 44.7397H1896.88V44.0417L2118.25 23.3608H2123.29V22.8907L2360.12 0.766068H2373.98V-0.528259L2679.9 -29.107H2688.44V-29.9051L2688.5 -29.9103L2688.44 -30.5107V-32.3766H2688.27L2688.19 -33.1658L2679.75 -32.3766L2560.03 -32.3766L2559.94 -33.3247L2550.32 -32.3766H2431.81L2431.7 -33.4558L2421.34 -32.3766L2303.48 -32.3766L2303.41 -32.9252L2298.43 -32.3766H2175.8L2175.68 -33.3479L2167.4 -32.3766L2047.56 -32.3766L2047.42 -33.4827L2038.59 -32.3766H1919.25L1919.15 -33.0889L1913.84 -32.3766L1790.97 -32.3766L1790.86 -33.1402L1785.58 -32.3766L1649.38 -32.3766L1649.29 -32.9331L1645.8 -32.3766L1537.73 -32.3766L1537.5 -33.7087L1529.71 -32.3766L1408.01 -32.3766L1407.77 -33.6821L1400.85 -32.3766H1278.36L1278.19 -33.1409L1274.59 -32.3766L1150.33 -32.3766L1150.3 -32.5233L1149.68 -32.3766H1022.39L1022.28 -32.7776L1020.82 -32.3766L894.274 -32.3766L893.809 -33.4441L890.429 -32.3766H764.481L763.808 -33.6494L760.483 -32.3766L636.254 -32.3766L635.484 -33.5079L633.189 -32.3766H507.667L506.946 -33.1319L505.853 -32.3766L378.577 -32.3766L378.365 -32.5088L378.251 -32.3766L-513.093 -32.3766L-515.203 -33.0466L-515.416 -32.3766H-641.321L-643.214 -32.8903L-643.353 -32.3766L-768.402 -32.3766L-771.079 -33.011L-771.229 -32.3766H-896.131L-899.184 -33.0183L-899.319 -32.3766L-1024.75 -32.3766L-1027.28 -32.8529L-1027.37 -32.3766L-1151.53 -32.3766L-1155.72 -33.0955L-1155.85 -32.3766H-1281.34L-1284.09 -32.8064L-1284.16 -32.3766L-1408.63 -32.3766L-1412.34 -32.9122L-1412.42 -32.3766H-1537.83L-1540.76 -32.7686L-1540.81 -32.3766L-1668.03 -32.3766L-1669.15 -32.5154L-1669.16 -32.3766H-1797.6L-1797.75 -32.3938L-1797.75 -32.3766L-1923.14 -32.3766L-1926.04 -32.6954L-1926.08 -32.3766L-2178.62 -32.3766L-2182.87 -32.8071L-2182.91 -32.3766L-2306.84 -32.3766L-2311.22 -32.797L-2311.26 -32.3766H-2311.49V-29.9333L-2311.53 -29.5424L-2311.49 -29.5387V-29.107H-2307L-2005.74 -0.146507V0.766068H-1996.24L-1762.29 23.2559V23.3608H-1761.2L-1351.89 62.7126H-1351.84L-745.586 120.992V121.002H-745.489L-744.451 121.101L-744.442 121.002L-698.441 121.002L-697.562 121.091L-697.553 121.002L-604.697 121.002L-603.801 121.094L-603.791 121.002L-557.535 121.002L-556.923 121.069L-556.916 121.002L-511.121 121.002L-510.07 121.124L-510.055 121.002L-464.295 121.002L-463.191 121.139L-463.174 121.002L-416.931 121.002L-416.311 121.085L-416.299 121.002L-369.934 121.002L-369.449 121.071L-369.439 121.002L-322.812 121.002L-322.577 121.038L-322.571 121.002L-276.211 121.001L-275.728 121.084L-275.714 121.001L-229.366 121.001L-228.87 121.095L-228.852 121.001L-182.437 121.001L-182.024 121.088L-182.005 121.001L-135.507 121.001L-135.165 121.082L-135.146 121.001L-88.5815 121.001L-88.3423 121.066L-88.3247 121.001L4.76468 121.001L6.05814 121.496L6.31888 121.001L47.013 121.001ZM-100.631 117.732L-142.283 106.429L-182.808 106.429L-135.124 117.732L-100.631 117.732ZM-149.3 117.732L-196.984 106.429L-235.862 106.429L-182.097 117.732L-149.3 117.732ZM-197.99 117.732L-251.754 106.429L-288.973 106.429L-229.06 117.732L-197.99 117.732ZM-246.697 117.732L-306.61 106.429L-341.862 106.429L-275.933 117.732L-246.697 117.732ZM-295.283 117.732L-361.212 106.429L-394.751 106.429L-322.558 117.732L-295.283 117.732ZM-343.696 117.732L-415.889 106.429L-447.926 106.429L-369.698 117.732L-343.696 117.732ZM-392.563 117.732L-470.791 106.429L-501.129 106.429L-416.713 117.732L-392.563 117.732ZM-441.351 117.732L-525.767 106.429L-554.745 106.429L-464.092 117.732L-441.351 117.732ZM-490.519 117.732L-581.171 106.429L-607.812 106.429L-510.931 117.732L-490.519 117.732ZM-539.146 117.732L-636.028 106.429L-660.194 106.429L-557.356 117.732L-539.146 117.732ZM-587.284 117.732L-690.123 106.429L-713.739 106.429L-604.528 117.732L-587.284 117.732ZM-636.289 117.732L-745.5 106.429L-809.741 106.429L-698.276 117.732L-636.289 117.732ZM-730.686 117.732L-842.151 106.429L-862.908 106.429L-745.332 117.732L-730.686 117.732ZM-88.1455 117.732L-129.798 106.429L-86.8711 106.429L-51.2851 117.732L-88.1455 117.732ZM-40.4841 117.732L-3.79245 117.732L-33.374 106.429L-76.07 106.429L-40.4841 117.732ZM1079.44 117.732L1079.38 117.127L1193.89 106.429L1175.21 106.429L1060.52 117.732L1079.44 117.732ZM1031.08 117.732L1031.04 117.352L1141.87 106.429L1120.54 106.429L1012.05 117.732L1031.08 117.732ZM984.163 117.732L984.123 117.354L1088.99 106.429L1066.47 106.429L963.721 117.732L984.163 117.732ZM937.277 117.732L937.236 117.356L1036.57 106.429L1011.61 106.429L915.212 117.732L937.277 117.732ZM890.363 117.732L890.319 117.358L983.534 106.429L956.974 106.429L866.759 117.732L890.363 117.732ZM843.459 117.732L843.413 117.362L930.673 106.429L902.718 106.429L818.38 117.732L843.459 117.732ZM796.55 117.732L796.501 117.365L878.103 106.429L848.133 106.429L769.938 117.732L796.55 117.732ZM749.639 117.732L749.587 117.37L825.278 106.429L796.281 106.429L725.416 117.732L749.639 117.732ZM704.658 117.732L775.523 106.429L738.034 106.429L671.991 117.732L704.658 117.732ZM655.821 117.732L655.73 117.198L718.651 106.429L683.1 106.429L623.22 117.732L655.821 117.732ZM608.904 117.732L608.79 117.128L665.472 106.429L635.713 106.429L582.407 117.732L608.904 117.732ZM566.644 117.732L619.949 106.429L580.846 106.429L533.377 117.732L566.644 117.732ZM519.262 117.732L566.731 106.429L525.547 106.429L484.209 117.732L519.262 117.732ZM472.226 117.732L472.197 117.627L513.15 106.429L461.728 106.429L425.94 117.732L472.226 117.732ZM417.167 117.732L416.922 117.17L450.931 106.429L406.931 106.429L377.403 117.732L417.167 117.732ZM370.722 117.732L370.319 116.968L397.852 106.429L358.899 106.429L335.968 117.732L370.722 117.732ZM330.205 117.732L329.813 117.156L351.576 106.429L310.809 106.429L294.465 117.732L330.205 117.732ZM289.475 117.732L289.202 117.445L305.132 106.429L262.802 106.429L253.054 117.732L289.475 117.732ZM248.787 117.732L258.535 106.429L214.809 106.429L211.656 117.732L248.787 117.732ZM208.27 117.732L211.423 106.429L166.789 106.429L170.233 117.732L208.27 117.732ZM166.825 117.732L163.382 106.429L119.773 106.429L129.816 117.732L166.825 117.732ZM125.494 117.732L115.452 106.429L71.9014 106.429L88.5315 117.732L125.494 117.732ZM82.7864 117.732L47.6919 117.732L24.3721 106.429L66.1563 106.429L82.7864 117.732ZM-71.5127 91.857L-41.9311 103.16L-86.3642 103.16L-121.95 91.857L-71.5127 91.857ZM-97.1653 103.16L-141.847 103.16L-183.499 91.857L-132.751 91.857L-97.1653 103.16ZM-195.984 91.857L-154.332 103.16L-196.602 103.16L-244.285 91.857L-195.984 91.857ZM-258.461 91.857L-210.778 103.16L-251.414 103.16L-305.179 91.857L-258.461 91.857ZM-321.072 91.857L-267.307 103.16L-306.304 103.16L-366.217 91.857L-321.072 91.857ZM-383.854 91.857L-323.941 103.16L-360.934 103.16L-426.863 91.857L-383.854 91.857ZM-446.213 91.857L-380.284 103.16L-415.635 103.16L-487.828 91.857L-446.213 91.857ZM-508.966 91.857L-436.773 103.16L-470.556 103.16L-548.784 91.857L-508.966 91.857ZM-571.649 91.857L-493.421 103.16L-525.549 103.16L-609.965 91.857L-571.649 91.857ZM-634.603 91.857L-550.187 103.16L-580.968 103.16L-671.621 91.857L-634.603 91.857ZM-698.048 91.857L-607.395 103.16L-635.838 103.16L-732.72 91.857L-698.048 91.857ZM-760.936 91.857L-664.054 103.16L-689.943 103.16L-792.782 91.857L-760.936 91.857ZM-822.71 91.857L-719.872 103.16L-745.331 103.16L-854.542 91.857L-822.71 91.857ZM-886.303 91.857L-777.092 103.16L-841.985 103.16L-953.45 91.8571L-886.303 91.857ZM-985.86 91.8571L-874.395 103.16L-896.876 103.16V103.164L-1014.5 91.8571L-985.86 91.8571ZM1349.88 91.8568L1228.89 103.16L1208.38 103.16L1323.07 91.8569L1349.88 91.8568ZM1289.73 91.8569L1175.05 103.16L1151.92 103.16L1260.41 91.8569L1289.73 91.8569ZM1228.86 91.8569L1120.37 103.16L1096.19 103.16L1198.95 91.8569L1228.86 91.8569ZM1169.04 91.8569L1066.29 103.16L1039.5 103.16L1135.9 91.8569L1169.04 91.8569ZM1107.82 91.8569L1011.42 103.16L983.072 103.16L1073.29 91.8569L1107.82 91.8569ZM1046.99 91.8569L956.77 103.16L927.115 103.16L1011.45 91.8569L1046.99 91.8569ZM986.838 91.8569L902.5 103.16L870.753 103.16L948.949 91.8569L986.838 91.8569ZM926.094 91.8569L847.898 103.16L816.781 103.16L887.646 91.8569L926.094 91.8569ZM866.887 91.8569L796.022 103.16L757.138 103.16L823.182 91.8569L866.887 91.8569ZM803.799 91.8569L737.756 103.16L700.422 103.16L760.303 91.8569L803.799 91.8569ZM742.675 91.8569L682.794 103.16L651.133 103.16L704.439 91.8569L742.675 91.8569ZM688.676 91.8569L635.37 103.16L594.577 103.16L642.046 91.8569L688.676 91.8569ZM627.931 91.8569L580.462 103.16L537.505 103.16L578.844 91.8569L627.931 91.8569ZM566.447 91.8569L525.108 103.16L472.08 103.16L507.868 91.8569L566.447 91.8569ZM497.071 91.8569L461.284 103.16L415.473 103.16L445.001 91.8569L497.071 91.8569ZM435.922 91.8569L406.394 103.16L365.533 103.16L388.464 91.8569L435.922 91.8569ZM381.14 91.8569L358.209 103.16L315.537 103.16L331.882 91.8569L381.14 91.8569ZM326.204 91.8569L309.86 103.16L265.622 103.16L275.37 91.8569L326.204 91.8569ZM271.103 91.8569L261.355 103.16L215.721 103.16L218.874 91.8569L271.103 91.8569ZM215.488 91.8569L212.335 103.16L165.793 103.16L162.349 91.857L215.488 91.8569ZM158.942 91.857L162.386 103.16L116.868 103.16L106.825 91.857L158.942 91.857ZM102.504 91.857L112.546 103.16L67.0909 103.16L50.4607 91.857L102.504 91.857ZM44.7156 91.857L61.3457 103.16L17.6263 103.16L-5.69357 91.857L44.7156 91.857ZM-80.0698 88.5874L-132.244 88.5874L-167.827 77.2857L-109.649 77.2857L-80.0698 88.5874ZM-143.045 88.5874L-178.628 77.2857L-237.197 77.2857L-195.548 88.5874L-143.045 88.5874ZM-208.033 88.5874L-249.681 77.2857L-305.759 77.2857L-258.079 88.5874L-208.033 88.5874ZM-272.255 88.5874L-319.935 77.2857L-374.491 77.2857L-320.731 88.5874L-272.255 88.5874ZM-336.624 88.5874L-390.384 77.2857L-443.456 77.2857L-383.549 88.5874L-336.624 88.5874ZM-401.186 88.5874L-461.093 77.2857L-511.859 77.2857L-445.935 88.5874L-401.186 88.5874ZM-465.285 88.5874L-531.209 77.2857L-580.899 77.2857L-508.712 88.5874L-465.285 88.5874ZM-529.85 88.5874L-602.037 77.2857L-649.635 77.2858L-571.414 88.5874L-529.85 88.5874ZM-594.279 88.5874L-672.5 77.2858L-718.794 77.2858L-634.385 88.5874H-594.279ZM-659.023 88.5874L-743.432 77.2858L-788.489 77.2858L-697.845 88.5874L-659.023 88.5874ZM-724.271 88.5874L-814.916 77.2858L-857.619 77.2858L-760.746 88.5874H-724.271ZM-788.962 88.5874L-885.835 77.2858L-925.361 77.2858L-822.531 88.5874L-788.962 88.5874ZM-852.459 88.5874L-955.289 77.2858L-995.336 77.2858L-886.134 88.5874L-852.459 88.5874ZM-917.895 88.5874L-1027.1 77.2858L-1097.15 77.2858L-985.695 88.5875L-917.895 88.5874ZM-1018.1 88.5875L-1129.56 77.2858L-1166.07 77.2858L-1048.48 88.5875L-1018.1 88.5875ZM1384.88 88.5872L1505.86 77.2856L1470.93 77.2856L1356.25 88.5872L1384.88 88.5872ZM1322.91 88.5872L1437.59 77.2856H1400.28L1291.8 88.5872H1322.91ZM1260.24 88.5873L1368.73 77.2856L1331.41 77.2856L1228.67 88.5873L1260.24 88.5873ZM1198.77 88.5873L1301.51 77.2856L1260.17 77.2856L1163.78 88.5873L1198.77 88.5873ZM1135.71 88.5873L1232.1 77.2856L1189.59 77.2856L1099.38 88.5873L1135.71 88.5873ZM1073.08 88.5873L1163.29 77.2856L1120.18 77.2856L1035.85 88.5873L1073.08 88.5873ZM1011.23 88.5873L1095.56 77.2856L1049.76 77.2856L971.569 88.5873L1011.23 88.5873ZM948.714 88.5873L1026.9 77.2856L979.005 77.2856L908.146 88.5873L948.714 88.5873ZM887.387 88.5873L958.246 77.2856L908.324 77.2856L842.286 88.5873L887.387 88.5873ZM822.904 88.5873L888.941 77.2856L837.499 77.2856L777.624 88.5873L822.904 88.5873ZM759.997 88.5873L819.871 77.2856L773.16 77.2856L719.859 88.5873L759.997 88.5873ZM704.096 88.5873L757.397 77.2856L703.242 77.2856L655.778 88.5873L704.096 88.5873ZM641.662 88.5873L689.127 77.2856L632.137 77.2856L590.802 88.5873L641.662 88.5873ZM578.405 88.5873L619.74 77.2856L554.004 77.2856L518.22 88.5873L578.405 88.5873ZM507.424 88.5873L543.208 77.2856L483.069 77.2857L453.543 88.5873L507.424 88.5873ZM444.464 88.5873L473.99 77.2857L418.027 77.2857L395.097 88.5873L444.464 88.5873ZM387.774 88.5873L410.703 77.2857L352.953 77.2857L336.61 88.5873L387.774 88.5873ZM330.932 88.5873L347.275 77.2857L287.937 77.2857L278.19 88.5873L330.932 88.5873ZM273.923 88.5873L283.67 77.2857L222.939 77.2857L219.786 88.5873L273.923 88.5873ZM216.4 88.5873L219.553 77.2857L157.909 77.2857L161.353 88.5873L216.4 88.5873ZM157.946 88.5873L154.502 77.2857L93.878 77.2857L103.92 88.5874L157.946 88.5873ZM99.5987 88.5874L89.5567 77.2857L29.0213 77.2857L45.6499 88.5874L99.5987 88.5874ZM39.9048 88.5874L23.2762 77.2857L-35.757 77.2857L-12.4394 88.5874L39.9048 88.5874ZM-147.79 62.7125L-118.206 74.0161L-178.121 74.0161L-213.71 62.7125L-147.79 62.7125ZM-224.511 62.7125L-188.922 74.0161L-249.246 74.0161L-290.901 62.7125L-224.511 62.7125ZM-303.386 62.7125L-261.73 74.0161L-319.552 74.0161L-367.24 62.7125L-303.386 62.7125ZM-381.416 62.7125L-333.728 74.0161L-390.044 74.0161L-443.813 62.7125L-381.416 62.7125ZM-459.706 62.7125L-405.937 74.0161L-460.788 74.0161L-520.706 62.7125L-459.706 62.7125ZM-538.342 62.7125L-478.425 74.0161L-530.931 74.0161L-596.866 62.7125L-538.342 62.7125ZM-616.216 62.7125L-550.281 74.0161L-601.782 74.0161L-673.982 62.7125L-616.216 62.7125ZM-750.5 62.7125L-695.12 62.7125L-622.921 74.0161L-672.265 74.0161L-750.5 62.7125ZM-773.365 62.7125L-695.13 74.0161L-743.214 74.0162L-827.638 62.7125L-773.365 62.7125ZM-852.275 62.7125L-767.852 74.0162L-814.713 74.0162L-905.374 62.7125L-852.275 62.7125ZM-931.801 62.7125L-841.14 74.0162L-885.645 74.0162L-982.535 62.7126L-931.801 62.7125ZM-1010.75 62.7126L-913.861 74.0162L-955.11 74.0162L-1057.96 62.7126L-1010.75 62.7126ZM-1087.89 62.7126L-985.038 74.0162L-1026.93 74.0162L-1136.15 62.7126L-1087.89 62.7126ZM-1167.91 62.7126L-1058.69 74.0162L-1129.39 74.0162L-1240.87 62.7126L-1167.91 62.7126ZM-1273.28 62.7126L-1161.8 74.0162L-1200.03 74.0162V74.0219L-1317.67 62.7126L-1273.28 62.7126ZM1661.86 62.7123L1540.86 74.016L1504.1 74.016L1618.8 62.7123L1661.86 62.7123ZM1585.46 62.7123L1470.76 74.016L1431.66 74.016L1540.16 62.7123L1585.46 62.7123ZM1508.61 62.7123L1400.11 74.016L1361.13 74.016L1463.89 62.7123L1508.61 62.7123ZM1433.99 62.7123L1331.23 74.016L1288.06 74.016L1384.47 62.7123L1433.99 62.7123ZM1356.39 62.7123L1259.98 74.016L1215.69 74.016L1305.91 62.7124L1356.39 62.7123ZM1279.61 62.7124L1189.39 74.016L1144.58 74.016L1228.92 62.7124L1279.61 62.7124ZM1204.31 62.7124L1119.96 74.016L1072.38 74.016L1150.58 62.7124L1204.31 62.7124ZM1127.72 62.7124L1049.52 74.016L999.505 74.016L1070.38 62.7124L1127.72 62.7124ZM1049.62 62.7124L978.746 74.016L927.428 74.016L993.477 62.7124L1049.62 62.7124ZM974.095 62.7124L908.046 74.016L854.821 74.016L914.707 62.7124L974.095 62.7124ZM897.079 62.7124L837.194 74.016L788.58 74.016L841.891 62.7124L897.079 62.7124ZM826.128 62.7124L772.817 74.016L716.974 74.016L764.446 62.7124L826.128 62.7124ZM750.331 62.7124L702.858 74.016L644.095 74.016L685.437 62.7124L750.331 62.7124ZM673.039 62.7124L631.698 74.016L564.357 74.016L600.147 62.7124L673.039 62.7124ZM589.351 62.7124L553.561 74.016L491.611 74.016L521.142 62.7124L589.351 62.7124ZM512.062 62.7124L482.532 74.016L424.66 74.0161L447.593 62.7124L512.062 62.7124ZM440.27 62.7124L417.337 74.0161L357.681 74.0161L374.026 62.7124L440.27 62.7124ZM368.349 62.7124L352.003 74.0161L290.757 74.0161L300.506 62.7124L368.349 62.7124ZM296.24 62.7124L286.491 74.0161L223.851 74.0161L227.004 62.7124L296.24 62.7124ZM223.618 62.7124L220.465 74.0161L156.913 74.0161L153.469 62.7125L223.618 62.7124ZM150.062 62.7125L153.506 74.0161L90.9729 74.0161L80.9292 62.7125L150.062 62.7125ZM76.6077 62.7125L86.6514 74.0161L24.2107 74.0161L7.57913 62.7125L76.6077 62.7125ZM1.83377 62.7125L18.4654 74.0161L-42.5029 74.0161L-65.8247 62.7125L1.83377 62.7125ZM-156.347 59.4429L-194.828 44.7398L-270.296 44.7399L-224.004 59.4429L-156.347 59.4429ZM-302.95 59.4429L-234.805 59.4429L-281.097 44.7399L-357.134 44.7399L-302.95 59.4429ZM-315.435 59.4429L-369.618 44.7399L-443.063 44.7399L-381.034 59.4429L-315.435 59.4429ZM-395.21 59.4429L-457.239 44.7399L-529.305 44.7399L-459.366 59.4429L-395.21 59.4429ZM-475.258 59.4429L-545.197 44.7399L-615.974 44.7399L-538.037 59.4429L-475.258 59.4429ZM-555.674 59.4429L-633.611 44.7399H-701.702L-615.938 59.4429L-555.674 59.4429ZM-635.288 59.4429L-721.051 44.7399L-788.778 44.7399L-694.866 59.4429L-635.288 59.4429ZM-716.004 59.4429L-809.917 44.7399L-874.893 44.7399L-773.13 59.4429L-716.004 59.4429ZM-795.995 59.4429L-897.758 44.7399H-961.871L-852.058 59.4429L-795.995 59.4429ZM-876.695 59.4429L-986.508 44.7399H-1049.52L-931.598 59.4429L-876.695 59.4429ZM-958.024 59.4429L-1075.95 44.7399L-1136.59 44.7399L-1010.56 59.4429L-958.024 59.4429ZM-1038.78 59.443L-1164.81 44.7399L-1221.48 44.7399L-1087.71 59.443L-1038.78 59.443ZM-1117.63 59.443L-1251.41 44.7399H-1309.81L-1167.74 59.443L-1117.63 59.443ZM-1199.5 59.443L-1341.57 44.7399L-1418.11 44.74L-1273.11 59.443L-1199.5 59.443ZM-1305.52 59.443L-1450.52 44.74L-1504.63 44.74L-1351.69 59.443L-1305.52 59.443ZM1696.86 59.4427L1854.25 44.7397L1801.17 44.7397L1651.98 59.4427L1696.86 59.4427ZM1618.64 59.4427L1767.83 44.7397L1712.68 44.7397L1571.55 59.4427L1618.64 59.4427ZM1539.99 59.4427L1681.12 44.7397L1627.28 44.7397L1493.62 59.4427L1539.99 59.4427ZM1463.71 59.4427L1597.38 44.7397L1537.76 44.7397L1412.36 59.4427L1463.71 59.4427ZM1384.28 59.4427L1509.68 44.7397L1449.37 44.7397L1332.01 59.4427L1384.28 59.4427ZM1305.71 59.4427L1423.06 44.7397L1363.03 44.7397L1253.32 59.4427L1305.71 59.4427ZM1228.7 59.4428L1338.41 44.7397L1274.92 44.7397L1173.2 59.4428L1228.7 59.4428ZM1150.34 59.4428L1252.06 44.7397L1183.06 44.7397L1090.88 59.4428L1150.34 59.4428ZM1070.12 59.4428L1162.3 44.7397L1098.49 44.7397L1012.58 59.4428L1070.12 59.4428ZM993.199 59.4428L1079.11 44.7397L1009.92 44.7397L932.029 59.4428L993.199 59.4428ZM914.401 59.4428L992.296 44.7397L926.654 44.7397L857.311 59.4428L914.401 59.4428ZM841.548 59.4428L910.891 44.7397L839.927 44.7398L778.178 59.4428L841.548 59.4428ZM764.062 59.4428L825.812 44.7398L751.17 44.7398L697.395 59.4428L764.062 59.4428ZM684.998 59.4428L738.772 44.7398L657.053 44.7398L610.5 59.4428L684.998 59.4428ZM599.703 59.4428L646.257 44.7398L568.095 44.7398L529.684 59.4428L599.703 59.4428ZM520.604 59.4428L559.016 44.7398L484.057 44.7398L454.227 59.4428L520.604 59.4428ZM446.903 59.4428L476.733 44.7398L400.016 44.7398L378.754 59.4428L446.903 59.4428ZM373.077 59.4428L394.338 44.7398L316.007 44.7398L303.326 59.4428L373.077 59.4428ZM299.06 59.4428L311.741 44.7398L232.018 44.7398L227.916 59.4428L299.06 59.4428ZM224.531 59.4428L228.632 44.7398L147.993 44.7398L152.473 59.4428L224.531 59.4428ZM149.065 59.4428L144.585 44.7398L64.96 44.7398L78.0242 59.4429L149.065 59.4428ZM73.7024 59.4429L60.6382 44.7398L-18.8647 44.7398L2.76859 59.4429L73.7024 59.4429ZM-2.97677 59.4429L-24.6101 44.7398L-102.906 44.7398L-72.5705 59.4429L-2.97677 59.4429ZM-280.59 41.4702L-203.385 41.4702L-250.782 23.3608L-337.607 23.3608L-280.59 41.4702ZM-348.408 23.3608L-291.391 41.4702L-369.183 41.4703L-435.919 23.3608L-348.408 23.3608ZM-448.404 23.3608L-381.667 41.4703L-456.857 41.4703L-533.258 23.3608L-448.404 23.3608ZM-547.433 23.3608L-471.033 41.4703L-544.858 41.4703L-631.001 23.3608L-547.433 23.3608ZM-646.893 23.3608L-560.75 41.4703L-633.306 41.4703L-729.3 23.3608H-646.893ZM-746.937 23.3608L-650.943 41.4703H-720.773L-826.408 23.3608H-746.937ZM-845.758 23.3608L-740.123 41.4703L-809.662 41.4703L-925.333 23.3608L-845.758 23.3608ZM-946.471 23.3608L-830.801 41.4703L-897.523 41.4703L-1022.86 23.3608L-946.471 23.3608ZM-1045.73 23.3608L-920.388 41.4703L-986.29 41.4703L-1121.55 23.3608L-1045.73 23.3608ZM-1146.18 23.3608L-1010.93 41.4703L-1075.75 41.4703L-1220.99 23.3608L-1146.18 23.3608ZM-1247.42 23.3608L-1102.17 41.4703L-1164.62 41.4703L-1319.84 23.3608L-1247.42 23.3608ZM-1348.06 23.3608L-1192.83 41.4703L-1251.23 41.4703L-1416.01 23.3608H-1348.06ZM-1445.93 23.3608L-1281.16 41.4703L-1341.4 41.4703L-1516.38 23.3608H-1445.93ZM-1548.14 23.3608L-1373.16 41.4703L-1450.36 41.4704L-1628.95 23.3608H-1548.14ZM-1661.36 23.3608L-1482.77 41.4704L-1538.65 41.4704H-1538.69L-1727.03 23.3608L-1661.36 23.3608ZM2083.1 23.3608L1889.25 41.4701L1834.34 41.4701L2018.1 23.3608L2083.1 23.3608ZM1984.76 23.3608L1801.01 41.4701L1744.06 41.4701L1917.89 23.3608L1984.76 23.3608ZM1886.33 23.3608L1712.51 41.4701L1657 41.4701L1821.63 23.3608H1886.33ZM1791.73 23.3608L1627.1 41.4701L1565.64 41.4701L1720.1 23.3608L1791.73 23.3608ZM1692.02 23.3608L1537.57 41.4701L1475.46 41.4701L1620.01 23.3608H1692.02ZM1593.71 23.3608L1449.16 41.4701L1387.43 41.4701L1522.55 23.3608L1593.71 23.3608ZM1497.94 23.3608L1362.81 41.4701L1297.54 41.4701L1422.83 23.3608L1497.94 23.3608ZM1399.97 23.3608L1274.68 41.4701L1203.56 41.4701L1317.1 23.3608L1399.97 23.3608ZM1296.34 23.3608L1182.8 41.4701L1117.6 41.4701L1223.41 23.3608L1296.34 23.3608ZM1204.03 23.3608L1098.22 41.4701L1027.25 41.4701L1123.19 23.3608H1204.03ZM1105.56 23.3608L1009.62 41.4701L942.074 41.4701L1027.48 23.3608H1105.56ZM1011.72 23.3608L926.311 41.4701L853.659 41.4701L929.714 23.3608L1011.72 23.3608ZM915.599 23.3608L839.543 41.4701L763.128 41.4702L829.361 23.3608L915.599 23.3608ZM816.964 23.3608L750.731 41.4702L667.406 41.4702L724.745 23.3608L816.964 23.3608ZM713.949 23.3608L656.61 41.4702L576.637 41.4702L623.949 23.3608L713.949 23.3608ZM614.869 23.3608L567.558 41.4702L490.69 41.4702L527.431 23.3608L614.869 23.3608ZM520.107 23.3608L483.366 41.4702L404.744 41.4702L430.931 23.3608H520.107ZM425.254 23.3608L399.066 41.4702L318.827 41.4702L334.446 23.3608H425.254ZM330.179 23.3608L314.561 41.4702L232.93 41.4702L237.981 23.3608L330.179 23.3608ZM234.596 23.3608L229.544 41.4702L146.997 41.4702L141.479 23.3608L234.596 23.3608ZM138.071 23.3608L143.589 41.4702L62.0547 41.4702L45.9639 23.3608L138.071 23.3608ZM41.6421 23.3608L57.7332 41.4702L-23.6755 41.4702L-50.3208 23.3608L41.6421 23.3608ZM-56.0661 23.3608L-29.4209 41.4702L-109.652 41.4702L-147.016 23.3608H-56.0661ZM-259.339 20.0911L-309.917 0.766068L-408.745 0.766068L-347.901 20.0911L-259.339 20.0911ZM-358.702 20.0911L-419.547 0.766068L-519.184 0.766068L-447.968 20.0911L-358.702 20.0911ZM-460.453 20.0911L-531.669 0.766068L-628.58 0.766068L-547.051 20.0911L-460.453 20.0911ZM-561.227 20.0911L-642.756 0.766068L-738.479 0.766068L-646.553 20.0911L-561.227 20.0911ZM-662.446 20.0911L-754.371 0.766068H-849.07L-746.632 20.0911L-662.446 20.0911ZM-764.269 20.0911L-866.707 0.766068H-958.205L-845.48 20.0911H-764.269ZM-864.83 20.0911L-977.555 0.766068H-1069.65L-946.217 20.0911H-864.83ZM-967.355 20.0911L-1090.79 0.766068H-1179.25L-1045.49 20.0911H-967.355ZM-1068.36 20.0911L-1202.11 0.766068H-1290.3L-1145.97 20.0911L-1068.36 20.0911ZM-1170.6 20.0911L-1314.94 0.766068H-1402.21L-1247.22 20.0911L-1170.6 20.0911ZM-1273.64 20.0911L-1428.64 0.766068L-1513.52 0.766068L-1347.87 20.0911L-1273.64 20.0911ZM-1376.09 20.0911L-1541.73 0.766068L-1621.59 0.766068L-1445.75 20.0911L-1376.09 20.0911ZM-1475.68 20.0911L-1651.52 0.766068L-1734.7 0.766068L-1547.98 20.0911L-1475.68 20.0911ZM-1579.74 20.0911L-1766.46 0.766068L-1851.78 0.766068L-1661.2 20.0911H-1579.74ZM-1693.61 20.0911L-1884.19 0.766068L-1962.07 0.766068L-1761.04 20.0911H-1693.61ZM2118.1 20.0911L2324.97 0.766068L2247.36 0.766068L2051.27 20.0911H2118.1ZM2017.94 20.0911L2214.03 0.766068L2134.77 0.766068L1949.27 20.0911H2017.94ZM1917.72 20.0911L2103.21 0.766068L2027.04 0.766068L1851.36 20.0911H1917.72ZM1821.45 20.0911L1997.13 0.766068L1912.8 0.766068L1747.98 20.0911L1821.45 20.0911ZM1719.9 20.0911L1884.73 0.766068L1800.35 0.766068L1646.11 20.0911L1719.9 20.0911ZM1619.8 20.0911L1774.05 0.766068L1691.15 0.766068L1546.95 20.0911L1619.8 20.0911ZM1522.34 20.0911L1666.54 0.766068L1579.14 0.766068L1445.45 20.0911L1522.34 20.0911ZM1422.59 20.0911L1556.29 0.766068L1458.77 0.766068L1337.6 20.0911L1422.59 20.0911ZM1316.84 20.0911L1438.01 0.766068H1355.44L1242.52 20.0911H1316.84ZM1223.14 20.0911L1336.06 0.766068H1242.89L1140.51 20.0911H1223.14ZM1122.88 20.0911L1225.26 0.766068H1134.04L1042.9 20.0911L1122.88 20.0911ZM1027.14 20.0911L1118.28 0.766068H1024.61L943.446 20.0911L1027.14 20.0911ZM929.33 20.0911L1010.49 0.766068L911.999 0.766068L841.319 20.0911L929.33 20.0911ZM828.922 20.0911L899.601 0.766068L796.286 0.766068L735.098 20.0911L828.922 20.0911ZM724.301 20.0911L785.49 0.766068L682.977 0.766068L632.49 20.0911L724.301 20.0911ZM623.411 20.0911L673.898 0.766068L573.272 0.766068L534.064 20.0911L623.411 20.0911ZM526.741 20.0911L565.948 0.766068L463.605 0.766068L435.659 20.0911H526.741ZM429.982 20.0911L457.927 0.766068L353.934 0.766068L337.266 20.0911L429.982 20.0911ZM332.999 20.0911L349.667 0.766068L244.284 0.766068L238.894 20.0911L332.999 20.0911ZM235.508 20.0911L240.899 0.766068L134.594 0.766068L140.482 20.0911L235.508 20.0911ZM137.075 20.0911L131.187 0.766068L25.8877 0.766068L43.0589 20.0911L137.075 20.0911ZM38.7371 20.0911L21.566 0.766068L-83.5654 0.766068L-55.1316 20.0911L38.7371 20.0911ZM-60.8769 20.0911L-89.3108 0.766068L-193.633 0.766068L-153.761 20.0911H-60.8769ZM-309.38 -2.50354L-207.804 -2.50354L-261.009 -28.2909L-260.463 -29.107H-379.007L-309.38 -2.50354ZM-387.863 -29.0163L-318.474 -2.50354L-419.04 -2.50354L-502.799 -29.107L-387.816 -29.107L-387.863 -29.0163ZM-513.601 -29.107L-429.841 -2.50354L-531.233 -2.50354L-629.271 -29.107H-513.601ZM-641.757 -29.107L-543.718 -2.50354L-642.374 -2.50354L-754.608 -29.107L-641.757 -29.107ZM-768.784 -29.107L-656.55 -2.50354L-754.031 -2.50354L-880.578 -29.107H-768.784ZM-896.471 -29.107L-769.924 -2.50354L-866.401 -2.50354L-1007.42 -29.107L-896.471 -29.107ZM-1025.06 -29.107L-884.038 -2.50354L-977.276 -2.50354L-1132.46 -29.107H-1025.06ZM-1151.81 -29.107L-996.626 -2.50354L-1090.54 -2.50354L-1260.46 -29.107H-1151.81ZM-1281.6 -29.107L-1111.67 -2.50354L-1201.88 -2.50354L-1386.01 -29.107L-1281.6 -29.107ZM-1408.87 -29.107L-1224.74 -2.50354H-1314.72L-1513.41 -29.107H-1408.87ZM-1538.05 -29.107L-1339.36 -2.50354H-1428.44L-1641.81 -29.107L-1538.05 -29.107ZM-1668.24 -29.107L-1454.86 -2.50354H-1541.54L-1769.58 -29.107H-1668.24ZM-1797.79 -29.107L-1569.76 -2.50354H-1651.34L-1893.39 -29.107L-1797.79 -29.107ZM-1923.32 -29.107L-1681.26 -2.50354H-1766.29L-2023.35 -29.107L-1923.32 -29.107ZM-2054.85 -29.08L-1798.06 -2.50354H-1884.02L-2146.38 -29.107L-2054.85 -29.107L-2054.85 -29.08ZM-2178.79 -29.107L-1916.43 -2.50354L-1996.09 -2.50354L-2272.83 -29.107H-2178.79ZM2644.75 -29.107L2359.97 -2.50354L2280.54 -2.50354L2550.48 -29.107L2644.75 -29.107ZM2517.14 -29.107L2247.2 -2.50354L2166.15 -2.50354L2421.51 -29.107H2517.14ZM2389.96 -29.107L2134.6 -2.50354H2056.76L2298.61 -29.107L2389.96 -29.107ZM2268.7 -29.107L2026.86 -2.50354H1940.69L2167.59 -29.107H2268.7ZM2139.51 -29.107L1912.61 -2.50354H1826.45L2038.79 -29.107L2139.51 -29.107ZM2012.49 -29.107L1800.15 -2.50354L1715.55 -2.50354L1914.06 -29.107H2012.49ZM1889.44 -29.107L1690.93 -2.50354H1601.76L1785.81 -29.107L1889.44 -29.107ZM1762.96 -29.107L1578.91 -2.50354H1479.26L1646.06 -29.107H1762.96ZM1625.3 -29.107L1458.51 -2.50354H1374.54L1529.99 -29.107H1625.3ZM1510.61 -29.107L1355.16 -2.50354L1260.21 -2.50354L1401.16 -29.107L1510.61 -29.107ZM1383.53 -29.107L1242.59 -2.50354L1149.46 -2.50354L1274.93 -29.107H1383.53ZM1259.17 -29.107L1133.7 -2.50354L1038.34 -2.50354L1150.07 -29.107L1259.17 -29.107ZM1135.95 -29.107L1024.22 -2.50354L923.957 -2.50354L1021.26 -29.107H1135.95ZM1008.86 -29.107L911.56 -2.50354L806.639 -2.50354L890.873 -29.107L1008.86 -29.107ZM880.076 -29.107L795.842 -2.50354L691.519 -2.50354L761.021 -29.107H880.076ZM751.941 -29.107L682.439 -2.50354L579.905 -2.50354L633.879 -29.107L751.941 -29.107ZM626.555 -29.107L572.582 -2.50354L468.333 -2.50354L506.803 -29.107H626.555ZM501.125 -29.107L462.655 -2.50354L356.753 -2.50354L379.698 -29.107L501.125 -29.107ZM375.431 -29.107L352.487 -2.50354L245.197 -2.50354L252.618 -29.107H375.431ZM249.232 -29.107L241.811 -2.50354L133.598 -2.50354L125.492 -29.107H249.232ZM122.085 -29.107L130.191 -2.50354L22.9827 -2.50354L-0.655485 -29.107L122.085 -29.107ZM-4.97726 -29.107L18.6609 -2.50354L-88.3762 -2.50354L-127.519 -29.107H-4.97726Z" fill="url(#paint0_linear_23_1457)"/>
<defs>
<linearGradient id="paint0_linear_23_1457" x1="188.484" y1="121.712" x2="188.484" y2="-33.7087" gradientUnits="userSpaceOnUse">
<stop stop-color="#DADADA" stop-opacity="0"/>
<stop offset="1" stop-color="#D6D6D6"/>
</linearGradient>
</defs>
</svg>
