<svg width="25" height="24" viewBox="0 0 25 24" fill="none" xmlns="http://www.w3.org/2000/svg">
<path d="M12.7363 7.1931C10.0762 7.1931 7.92929 9.33998 7.92929 12.0001C7.92929 14.6603 10.0762 16.8072 12.7363 16.8072C15.3965 16.8072 17.5433 14.6603 17.5433 12.0001C17.5433 9.33998 15.3965 7.1931 12.7363 7.1931ZM12.7363 15.1244C11.016 15.1244 9.6121 13.7204 9.6121 12.0001C9.6121 10.2798 11.016 8.87592 12.7363 8.87592C14.4566 8.87592 15.8605 10.2798 15.8605 12.0001C15.8605 13.7204 14.4566 15.1244 12.7363 15.1244ZM17.7402 5.87592C17.1191 5.87592 16.6176 6.37748 16.6176 6.99857C16.6176 7.61967 17.1191 8.12123 17.7402 8.12123C18.3613 8.12123 18.8629 7.62201 18.8629 6.99857C18.8631 6.85109 18.8342 6.70502 18.7778 6.56873C18.7214 6.43244 18.6388 6.30861 18.5345 6.20432C18.4302 6.10004 18.3064 6.01735 18.1701 5.961C18.0338 5.90464 17.8877 5.87573 17.7402 5.87592ZM22.1066 12.0001C22.1066 10.7064 22.1183 9.42435 22.0457 8.13295C21.973 6.63295 21.6308 5.3017 20.534 4.20482C19.4348 3.1056 18.1058 2.76576 16.6058 2.6931C15.3121 2.62045 14.0301 2.63217 12.7387 2.63217C11.4449 2.63217 10.1629 2.62045 8.87147 2.6931C7.37147 2.76576 6.04022 3.10795 4.94335 4.20482C3.84413 5.30404 3.50429 6.63295 3.43163 8.13295C3.35897 9.4267 3.37069 10.7087 3.37069 12.0001C3.37069 13.2915 3.35897 14.5759 3.43163 15.8673C3.50429 17.3673 3.84647 18.6986 4.94335 19.7954C6.04257 20.8947 7.37147 21.2345 8.87147 21.3072C10.1652 21.3798 11.4473 21.3681 12.7387 21.3681C14.0324 21.3681 15.3144 21.3798 16.6058 21.3072C18.1058 21.2345 19.4371 20.8923 20.534 19.7954C21.6332 18.6962 21.973 17.3673 22.0457 15.8673C22.1207 14.5759 22.1066 13.2939 22.1066 12.0001ZM20.0441 17.5267C19.873 17.9533 19.6668 18.272 19.3363 18.6001C19.0058 18.9306 18.6894 19.1369 18.2629 19.3079C17.0301 19.7978 14.1027 19.6876 12.7363 19.6876C11.3699 19.6876 8.44022 19.7978 7.20741 19.3103C6.78085 19.1392 6.4621 18.9329 6.13397 18.6025C5.8035 18.272 5.59725 17.9556 5.42616 17.529C4.93866 16.2939 5.04882 13.3665 5.04882 12.0001C5.04882 10.6337 4.93866 7.70404 5.42616 6.47123C5.59725 6.04467 5.8035 5.72592 6.13397 5.39779C6.46444 5.06967 6.78085 4.86107 7.20741 4.68998C8.44022 4.20248 11.3699 4.31264 12.7363 4.31264C14.1027 4.31264 17.0324 4.20248 18.2652 4.68998C18.6918 4.86107 19.0105 5.06732 19.3387 5.39779C19.6691 5.72826 19.8754 6.04467 20.0465 6.47123C20.534 7.70404 20.4238 10.6337 20.4238 12.0001C20.4238 13.3665 20.534 16.2939 20.0441 17.5267Z" fill="#294F74"/>
</svg>
