<svg width="343" height="651" viewBox="0 0 343 651" fill="none" xmlns="http://www.w3.org/2000/svg">
<path fill-rule="evenodd" clip-rule="evenodd" d="M-272.252 -68.9466L-217.364 -42.3431L-111.106 -42.3431L-149.891 -68.7037L-149.663 -68.9466L-272.252 -68.9466ZM-178.171 -19.7485L-218.043 -39.0735L-317.807 -39.0735L-267.229 -19.7485H-178.171ZM-171.425 -16.4788L-134.061 1.63063L-211.276 1.63064L-258.672 -16.4788L-171.425 -16.4788ZM-96.9799 19.6033L-127.315 4.90024L-202.718 4.90025L-164.238 19.6033L-96.9799 19.6033ZM-90.2341 22.8729L-66.9123 34.1765L-126.096 34.1765L-155.68 22.8729L-90.2341 22.8729ZM-36.8486 48.7478L-60.1665 37.4461L-117.539 37.4461L-87.9599 48.7478L-36.8486 48.7478ZM-30.1028 52.0174L-6.78293 63.32L-49.8213 63.32L-79.4028 52.0174L-30.1028 52.0174ZM23.2827 77.8923L-0.0370773 66.5896L-41.2641 66.5896L-11.6826 77.8923L23.2827 77.8923ZM30.0286 81.1619L31.4939 81.8721L31.9693 81.1619L686.249 81.1618L686.291 81.4236L687.932 81.1618L1064.33 81.1618V80.3907L1212.06 66.5895L1219.47 66.5895V65.8971L1368.05 52.0172H1374.28V51.4357L1524.03 37.446H1531.43V36.7543L1680.03 22.8727H1686.59V22.2602L1872.42 4.90006H1879.89V4.20206L2101.27 -16.4788H2106.3V-16.9489L2343.14 -39.0735H2356.99V-40.3679L2662.91 -68.9466H2671.46V-69.7447L2671.51 -69.7499L2671.46 -70.3503V-72.2162H2671.28L2671.21 -73.0054L2662.76 -72.2162L2543.05 -72.2162L2542.96 -73.1643L2533.34 -72.2162H2414.83L2414.72 -73.2954L2404.36 -72.2162L2286.49 -72.2162L2286.43 -72.7648L2281.44 -72.2162L2158.81 -72.2162L2158.7 -73.1875L2150.41 -72.2162L2030.57 -72.2162L2030.43 -73.3223L2021.61 -72.2162H1902.26L1902.17 -72.9285L1896.85 -72.2162L1773.99 -72.2162L1773.88 -72.9798L1768.59 -72.2162H1632.4L1632.31 -72.7727L1628.82 -72.2162L1520.74 -72.2162L1520.51 -73.5483L1512.73 -72.2162L1391.03 -72.2162L1390.78 -73.5217L1383.86 -72.2162L1261.37 -72.2162L1261.21 -72.9805L1257.61 -72.2162L1133.35 -72.2162L1133.31 -72.3629L1132.7 -72.2162H1005.41L1005.3 -72.6172L1003.83 -72.2162L877.29 -72.2162L876.824 -73.2837L873.444 -72.2162H747.497L746.824 -73.489L743.499 -72.2162L619.27 -72.2162L618.5 -73.3475L616.205 -72.2162H490.682L489.961 -72.9715L488.869 -72.2162L361.593 -72.2162L361.381 -72.3484L361.267 -72.2162L-530.078 -72.2162L-532.187 -72.8862L-532.4 -72.2162L-658.305 -72.2162L-660.198 -72.7299L-660.337 -72.2162L-785.387 -72.2162L-788.063 -72.8506L-788.214 -72.2162H-913.115L-916.168 -72.8579L-916.303 -72.2162L-1041.74 -72.2162L-1044.26 -72.6925L-1044.35 -72.2162L-1168.51 -72.2162L-1172.71 -72.9351L-1172.83 -72.2162H-1298.33L-1301.07 -72.646L-1301.14 -72.2162L-1425.62 -72.2162L-1429.33 -72.7518L-1429.4 -72.2162L-1554.82 -72.2162L-1557.75 -72.6082L-1557.8 -72.2162L-1685.02 -72.2162L-1686.13 -72.355L-1686.15 -72.2162H-1814.59L-1814.73 -72.2334L-1814.74 -72.2162L-1940.12 -72.2162L-1943.02 -72.535L-1943.06 -72.2162L-2195.61 -72.2162L-2199.85 -72.6467L-2199.9 -72.2162L-2323.83 -72.2162L-2328.2 -72.6366L-2328.24 -72.2162H-2328.48V-69.7729L-2328.51 -69.382L-2328.48 -69.3783V-68.9466H-2323.98L-2022.72 -39.9861V-39.0735H-2013.23L-1779.28 -16.5837V-16.4788H-1778.19L-1368.88 22.873H-1368.83L-762.57 81.1526V81.1619H-762.473L-761.436 81.2617L-761.426 81.1619L-715.426 81.1619L-714.546 81.2511L-714.537 81.1619L-621.681 81.1619L-620.785 81.2547L-620.775 81.1619L-574.519 81.1619L-573.908 81.2291L-573.9 81.1619L-528.105 81.1619L-527.054 81.2846L-527.04 81.1619L-481.28 81.1619L-480.175 81.2996L-480.158 81.1619L-433.915 81.1619L-433.295 81.245L-433.284 81.1619L-386.918 81.1619L-386.434 81.2319L-386.424 81.1619L-339.797 81.1619L-339.561 81.1987L-339.555 81.1619L-293.196 81.1619L-292.712 81.2447L-292.698 81.1619L-246.35 81.1619L-245.854 81.2555L-245.836 81.1619L-199.422 81.1619L-199.008 81.2489L-198.99 81.1619L-152.491 81.1619L-152.15 81.2427L-152.131 81.1619L-105.566 81.1619L-105.327 81.2268L-105.309 81.1619L-12.2197 81.1619L-10.9262 81.656L-10.6655 81.1619L30.0286 81.1619ZM-117.615 77.8923L-159.267 66.5896L-199.792 66.5896L-152.109 77.8923L-117.615 77.8923ZM-166.285 77.8923L-213.968 66.5896L-252.846 66.5896L-199.082 77.8923L-166.285 77.8923ZM-214.975 77.8923L-268.739 66.5896L-305.957 66.5896L-246.045 77.8923L-214.975 77.8923ZM-263.682 77.8923L-323.594 66.5896L-358.847 66.5897L-292.917 77.8923L-263.682 77.8923ZM-312.267 77.8923L-378.197 66.5897L-411.735 66.5897L-339.542 77.8923L-312.267 77.8923ZM-360.68 77.8923L-432.874 66.5897L-464.911 66.5897L-386.683 77.8923L-360.68 77.8923ZM-409.548 77.8923L-487.776 66.5897L-518.113 66.5897L-433.697 77.8923L-409.548 77.8923ZM-458.335 77.8923L-542.751 66.5897L-571.729 66.5897L-481.077 77.8923L-458.335 77.8923ZM-507.503 77.8923L-598.156 66.5897L-624.797 66.5897L-527.915 77.8923L-507.503 77.8923ZM-556.131 77.8923L-653.013 66.5897L-677.179 66.5897L-574.34 77.8923L-556.131 77.8923ZM-604.268 77.8923L-707.107 66.5897L-730.723 66.5897L-621.512 77.8923L-604.268 77.8923ZM-653.273 77.8923L-762.484 66.5897L-826.725 66.5897L-715.26 77.8923L-653.273 77.8923ZM-747.67 77.8923L-859.135 66.5897L-879.893 66.5897L-762.316 77.8923L-747.67 77.8923ZM-105.13 77.8923L-146.782 66.5896L-103.855 66.5896L-68.2695 77.8923L-105.13 77.8923ZM-57.4685 77.8923L-20.7768 77.8923L-50.3584 66.5896L-93.0544 66.5896L-57.4685 77.8923ZM1062.45 77.8922L1062.4 77.2872L1176.91 66.5895L1158.22 66.5895L1043.54 77.8922L1062.45 77.8922ZM1014.09 77.8922L1014.05 77.5124L1124.89 66.5895L1103.56 66.5895L995.065 77.8922L1014.09 77.8922ZM967.178 77.8922L967.139 77.5142L1072 66.5895L1049.49 66.5895L946.737 77.8922L967.178 77.8922ZM920.293 77.8922L920.252 77.5162L1019.58 66.5895L994.627 66.5895L898.228 77.8922L920.293 77.8922ZM873.378 77.8922L873.335 77.5189L966.55 66.5895L939.99 66.5895L849.775 77.8922L873.378 77.8922ZM826.475 77.8922L826.428 77.522L913.689 66.5895L885.734 66.5895L801.396 77.8922L826.475 77.8922ZM779.565 77.8922L779.516 77.5256L861.118 66.5895L831.149 66.5895L752.954 77.8922L779.565 77.8922ZM732.655 77.8922L732.602 77.5303L808.294 66.5895L779.297 66.5896L708.432 77.8922L732.655 77.8922ZM687.673 77.8922L758.538 66.5896L721.049 66.5896L655.006 77.8922L687.673 77.8922ZM638.837 77.8922L638.746 77.3579L701.667 66.5896L666.116 66.5896L606.236 77.8922L638.837 77.8922ZM591.919 77.8922L591.805 77.2887L648.488 66.5896L618.728 66.5896L565.422 77.8922L591.919 77.8922ZM549.659 77.8922L602.965 66.5896L563.862 66.5896L516.393 77.8922L549.659 77.8922ZM502.278 77.8922L549.746 66.5896L508.563 66.5896L467.225 77.8922L502.278 77.8922ZM455.241 77.8922L455.212 77.787L496.166 66.5896L444.743 66.5896L408.956 77.8922L455.241 77.8922ZM400.182 77.8922L399.938 77.3308L433.947 66.5896L389.947 66.5896L360.419 77.8922L400.182 77.8922ZM353.738 77.8922L353.334 77.1285L380.867 66.5896L341.915 66.5896L318.984 77.8922L353.738 77.8922ZM313.221 77.8922L312.829 77.3163L334.591 66.5896L293.825 66.5896L277.481 77.8922L313.221 77.8922ZM272.491 77.8922L272.217 77.6057L288.147 66.5896L245.817 66.5896L236.069 77.8922L272.491 77.8922ZM231.802 77.8922L241.551 66.5896L197.824 66.5896L194.671 77.8922L231.802 77.8922ZM191.286 77.8923L194.439 66.5896L149.805 66.5896L153.249 77.8923L191.286 77.8923ZM149.841 77.8923L146.397 66.5896L102.789 66.5896L112.832 77.8923L149.841 77.8923ZM108.51 77.8923L98.4673 66.5896L54.917 66.5896L71.5472 77.8923L108.51 77.8923ZM65.802 77.8923L30.7076 77.8923L7.38773 66.5896L49.1719 66.5896L65.802 77.8923ZM-88.497 52.0174L-58.9155 63.32L-103.349 63.32L-138.935 52.0174L-88.497 52.0174ZM-114.15 63.32L-158.831 63.32L-200.483 52.0174L-149.736 52.0174L-114.15 63.32ZM-212.968 52.0174L-171.316 63.32L-213.586 63.32L-261.27 52.0174L-212.968 52.0174ZM-275.446 52.0174L-227.762 63.32L-268.399 63.32L-322.163 52.0174L-275.446 52.0174ZM-338.056 52.0174L-284.292 63.32L-323.289 63.32L-383.202 52.0174L-338.056 52.0174ZM-400.839 52.0174L-340.926 63.32L-377.919 63.32L-443.848 52.0174L-400.839 52.0174ZM-463.198 52.0174L-397.269 63.32L-432.619 63.3201L-504.812 52.0174L-463.198 52.0174ZM-525.951 52.0174L-453.758 63.3201L-487.54 63.3201L-565.769 52.0174L-525.951 52.0174ZM-588.634 52.0174L-510.405 63.3201L-542.533 63.3201L-626.95 52.0174L-588.634 52.0174ZM-651.587 52.0174L-567.171 63.3201L-597.953 63.3201L-688.605 52.0174L-651.587 52.0174ZM-715.032 52.0174L-624.38 63.3201L-652.823 63.3201L-749.705 52.0174L-715.032 52.0174ZM-777.92 52.0174L-681.039 63.3201L-706.928 63.3201L-809.766 52.0174L-777.92 52.0174ZM-839.695 52.0174L-736.856 63.3201L-762.316 63.3201L-871.527 52.0174L-839.695 52.0174ZM-903.287 52.0174L-794.076 63.3201L-858.969 63.3201L-970.435 52.0175L-903.287 52.0174ZM-1002.84 52.0175L-891.379 63.3201L-913.861 63.3201V63.3243L-1031.48 52.0175L-1002.84 52.0175ZM1332.9 52.0173L1211.91 63.3199L1191.4 63.3199L1306.09 52.0173L1332.9 52.0173ZM1272.75 52.0173L1158.06 63.3199L1134.94 63.3199L1243.43 52.0173L1272.75 52.0173ZM1211.88 52.0173L1103.39 63.3199L1079.21 63.3199L1181.96 52.0173L1211.88 52.0173ZM1152.06 52.0173L1049.31 63.3199L1022.51 63.3199L1118.91 52.0173L1152.06 52.0173ZM1090.84 52.0173L994.436 63.3199L966.087 63.3199L1056.3 52.0173L1090.84 52.0173ZM1030 52.0173L939.786 63.3199L910.131 63.3199L994.468 52.0173L1030 52.0173ZM969.853 52.0173L885.516 63.3199L853.769 63.3199L931.964 52.0173L969.853 52.0173ZM909.109 52.0173L830.914 63.3199L799.797 63.3199L870.662 52.0173L909.109 52.0173ZM849.903 52.0173L779.038 63.3199L740.154 63.32L806.197 52.0173L849.903 52.0173ZM786.815 52.0173L720.772 63.32L683.438 63.32L743.318 52.0173L786.815 52.0173ZM725.69 52.0173L665.81 63.32L634.148 63.32L687.454 52.0173L725.69 52.0173ZM671.691 52.0173L618.386 63.32L577.593 63.32L625.062 52.0173L671.691 52.0173ZM610.946 52.0173L563.478 63.32L520.521 63.32L561.859 52.0173L610.946 52.0173ZM549.462 52.0173L508.124 63.32L455.096 63.32L490.883 52.0173L549.462 52.0173ZM480.087 52.0173L444.3 63.32L398.489 63.32L428.017 52.0173L480.087 52.0173ZM418.938 52.0173L389.409 63.32L348.549 63.32L371.48 52.0173L418.938 52.0173ZM364.156 52.0173L341.225 63.32L298.553 63.32L314.897 52.0173L364.156 52.0173ZM309.22 52.0173L292.876 63.32L248.637 63.32L258.386 52.0173L309.22 52.0173ZM254.119 52.0173L244.37 63.32L198.736 63.32L201.889 52.0173L254.119 52.0173ZM198.504 52.0173L195.351 63.32L148.809 63.32L145.365 52.0174L198.504 52.0173ZM141.957 52.0174L145.401 63.32L99.8836 63.32L89.8409 52.0174L141.957 52.0174ZM85.5193 52.0174L95.562 63.32L50.1065 63.32L33.4764 52.0174L85.5193 52.0174ZM27.7312 52.0174L44.3614 63.32L0.641878 63.32L-22.6779 52.0174L27.7312 52.0174ZM-97.0542 48.7478L-149.229 48.7478L-184.811 37.4461L-126.633 37.4461L-97.0542 48.7478ZM-160.03 48.7478L-195.613 37.4461L-254.181 37.4461L-212.532 48.7478L-160.03 48.7478ZM-225.017 48.7478L-266.666 37.4461L-322.743 37.4461L-275.064 48.7478L-225.017 48.7478ZM-289.239 48.7478L-336.919 37.4461L-391.476 37.4461L-337.716 48.7478L-289.239 48.7478ZM-353.609 48.7478L-407.368 37.4461L-460.441 37.4461L-400.533 48.7478L-353.609 48.7478ZM-418.17 48.7478L-478.078 37.4461L-528.843 37.4461L-462.92 48.7478L-418.17 48.7478ZM-482.269 48.7478L-548.193 37.4461L-597.883 37.4461L-525.696 48.7478L-482.269 48.7478ZM-546.834 48.7478L-619.021 37.4461L-666.62 37.4462L-588.398 48.7478L-546.834 48.7478ZM-611.263 48.7478L-689.485 37.4462L-735.779 37.4462L-651.37 48.7478H-611.263ZM-676.007 48.7478L-760.416 37.4462L-805.474 37.4462L-714.829 48.7478L-676.007 48.7478ZM-741.256 48.7478L-831.901 37.4462L-874.604 37.4462L-777.73 48.7478H-741.256ZM-805.946 48.7478L-902.82 37.4462L-942.345 37.4462L-839.515 48.7478L-805.946 48.7478ZM-869.444 48.7478L-972.273 37.4462L-1012.32 37.4462L-903.119 48.7478L-869.444 48.7478ZM-934.88 48.7478L-1044.08 37.4462L-1114.13 37.4462L-1002.68 48.7479L-934.88 48.7478ZM-1035.09 48.7479L-1146.54 37.4462L-1183.06 37.4462L-1065.47 48.7479L-1035.09 48.7479ZM1367.9 48.7476L1488.88 37.446L1453.94 37.446L1339.26 48.7476L1367.9 48.7476ZM1305.93 48.7477L1420.6 37.446H1383.3L1274.81 48.7477L1305.93 48.7477ZM1243.26 48.7477L1351.74 37.446L1314.43 37.446L1211.68 48.7477L1243.26 48.7477ZM1181.78 48.7477L1284.52 37.446L1243.19 37.446L1146.8 48.7477L1181.78 48.7477ZM1118.72 48.7477L1215.11 37.446L1172.61 37.446L1082.4 48.7477L1118.72 48.7477ZM1056.1 48.7477L1146.31 37.446L1103.2 37.446L1018.87 48.7477L1056.1 48.7477ZM994.25 48.7477L1078.58 37.446L1032.77 37.446L954.585 48.7477L994.25 48.7477ZM931.729 48.7477L1009.92 37.446L962.021 37.446L891.162 48.7477L931.729 48.7477ZM870.403 48.7477L941.262 37.446L891.339 37.446L825.302 48.7477L870.403 48.7477ZM805.919 48.7477L871.957 37.446L820.515 37.446L760.64 48.7477L805.919 48.7477ZM743.012 48.7477L802.887 37.446L756.176 37.446L702.875 48.7477L743.012 48.7477ZM687.112 48.7477L740.413 37.446L686.258 37.446L638.793 48.7477L687.112 48.7477ZM624.678 48.7477L672.142 37.446L615.152 37.446L573.817 48.7477L624.678 48.7477ZM561.42 48.7477L602.755 37.446L537.02 37.446L501.236 48.7477L561.42 48.7477ZM490.439 48.7477L526.224 37.446L466.085 37.4461L436.559 48.7477L490.439 48.7477ZM427.48 48.7477L457.005 37.4461L401.042 37.4461L378.113 48.7477L427.48 48.7477ZM370.79 48.7477L393.719 37.4461L335.968 37.4461L319.625 48.7477L370.79 48.7477ZM313.948 48.7477L330.291 37.4461L270.953 37.4461L261.206 48.7477L313.948 48.7477ZM256.939 48.7477L266.686 37.4461L205.954 37.4461L202.802 48.7477L256.939 48.7477ZM199.416 48.7477L202.569 37.4461L140.925 37.4461L144.369 48.7477L199.416 48.7477ZM140.961 48.7477L137.518 37.4461L76.8936 37.4461L86.9356 48.7478L140.961 48.7477ZM82.6143 48.7478L72.5723 37.4461L12.0369 37.4461L28.6656 48.7478L82.6143 48.7478ZM22.9204 48.7478L6.29178 37.4461L-52.7414 37.4461L-29.4238 48.7478L22.9204 48.7478ZM-164.774 22.8729L-135.19 34.1765L-195.106 34.1765L-230.695 22.8729L-164.774 22.8729ZM-241.496 22.8729L-205.907 34.1765L-266.23 34.1765L-307.886 22.8729L-241.496 22.8729ZM-320.371 22.8729L-278.715 34.1765L-336.537 34.1765L-384.225 22.8729L-320.371 22.8729ZM-398.4 22.8729L-350.713 34.1765L-407.028 34.1765L-460.797 22.8729L-398.4 22.8729ZM-476.69 22.8729L-422.921 34.1765L-477.772 34.1765L-537.69 22.8729L-476.69 22.8729ZM-555.327 22.8729L-495.409 34.1765L-547.915 34.1765L-613.85 22.8729L-555.327 22.8729ZM-633.2 22.8729L-567.265 34.1765L-618.767 34.1765L-690.966 22.8729L-633.2 22.8729ZM-767.485 22.8729L-712.105 22.8729L-639.905 34.1765L-689.25 34.1765L-767.485 22.8729ZM-790.35 22.8729L-712.115 34.1765L-760.198 34.1766L-844.622 22.8729L-790.35 22.8729ZM-869.26 22.8729L-784.836 34.1766L-831.698 34.1766L-922.358 22.8729L-869.26 22.8729ZM-948.785 22.8729L-858.124 34.1766L-902.63 34.1766L-999.52 22.873L-948.785 22.8729ZM-1027.74 22.873L-930.845 34.1766L-972.094 34.1766L-1074.94 22.873L-1027.74 22.873ZM-1104.87 22.873L-1002.02 34.1766L-1043.91 34.1766L-1153.13 22.873L-1104.87 22.873ZM-1184.89 22.873L-1075.67 34.1766L-1146.38 34.1766L-1257.85 22.873L-1184.89 22.873ZM-1290.26 22.873L-1178.79 34.1766L-1217.01 34.1766V34.1823L-1334.66 22.873L-1290.26 22.873ZM1644.88 22.8727L1523.88 34.1764L1487.12 34.1764L1601.81 22.8727L1644.88 22.8727ZM1568.48 22.8727L1453.78 34.1764L1414.68 34.1764L1523.18 22.8727L1568.48 22.8727ZM1491.63 22.8727L1383.13 34.1764L1344.15 34.1764L1446.91 22.8727L1491.63 22.8727ZM1417.01 22.8727L1314.25 34.1764L1271.08 34.1764L1367.48 22.8727L1417.01 22.8727ZM1339.41 22.8727L1243 34.1764L1198.7 34.1764L1288.93 22.8728L1339.41 22.8727ZM1262.63 22.8728L1172.4 34.1764L1127.59 34.1764L1211.94 22.8728L1262.63 22.8728ZM1187.32 22.8728L1102.98 34.1764L1055.39 34.1764L1133.6 22.8728L1187.32 22.8728ZM1110.74 22.8728L1032.54 34.1764L982.52 34.1764L1053.39 22.8728L1110.74 22.8728ZM1032.63 22.8728L961.762 34.1764L910.444 34.1764L976.493 22.8728L1032.63 22.8728ZM957.11 22.8728L891.062 34.1764L837.837 34.1764L897.722 22.8728L957.11 22.8728ZM880.094 22.8728L820.209 34.1764L771.596 34.1764L824.907 22.8728L880.094 22.8728ZM809.144 22.8728L755.833 34.1764L699.989 34.1764L747.462 22.8728L809.144 22.8728ZM733.346 22.8728L685.874 34.1764L627.11 34.1764L668.452 22.8728L733.346 22.8728ZM656.055 22.8728L614.713 34.1764L547.373 34.1764L583.163 22.8728L656.055 22.8728ZM572.366 22.8728L536.576 34.1764L474.627 34.1764L504.158 22.8728L572.366 22.8728ZM495.078 22.8728L465.547 34.1764L407.676 34.1765L430.609 22.8728L495.078 22.8728ZM423.285 22.8728L400.352 34.1765L340.696 34.1765L357.042 22.8728L423.285 22.8728ZM351.365 22.8728L335.019 34.1765L273.773 34.1765L283.522 22.8728L351.365 22.8728ZM279.255 22.8728L269.506 34.1765L206.866 34.1765L210.02 22.8728L279.255 22.8728ZM206.634 22.8728L203.481 34.1765L139.929 34.1765L136.485 22.8729L206.634 22.8728ZM133.077 22.8729L136.521 34.1765L73.9886 34.1765L63.9449 22.8729L133.077 22.8729ZM59.6233 22.8729L69.667 34.1765L7.22635 34.1765L-9.40524 22.8729L59.6233 22.8729ZM-15.1506 22.8729L1.48099 34.1765L-59.4873 34.1765L-82.809 22.8729L-15.1506 22.8729ZM-173.332 19.6033L-211.812 4.90025L-287.28 4.90025L-240.989 19.6033L-173.332 19.6033ZM-319.935 19.6033L-251.79 19.6033L-298.082 4.90025L-374.118 4.90026L-319.935 19.6033ZM-332.42 19.6033L-386.603 4.90026L-460.048 4.90027L-398.019 19.6033L-332.42 19.6033ZM-412.194 19.6033L-474.223 4.90027L-546.289 4.90028L-476.35 19.6033L-412.194 19.6033ZM-492.243 19.6033L-562.182 4.90028L-632.959 4.90028L-555.021 19.6033L-492.243 19.6033ZM-572.658 19.6033L-650.596 4.90028H-718.686L-632.922 19.6033L-572.658 19.6033ZM-652.272 19.6033L-738.036 4.90029L-805.763 4.90029L-711.85 19.6033L-652.272 19.6033ZM-732.989 19.6033L-826.901 4.9003L-891.877 4.9003L-790.114 19.6033L-732.989 19.6033ZM-812.979 19.6033L-914.742 4.90031H-978.855L-869.042 19.6033L-812.979 19.6033ZM-893.679 19.6033L-1003.49 4.90031H-1066.51L-948.582 19.6033L-893.679 19.6033ZM-975.009 19.6033L-1092.93 4.90032L-1153.57 4.90032L-1027.55 19.6033L-975.009 19.6033ZM-1055.76 19.6034L-1181.79 4.90033L-1238.47 4.90033L-1104.69 19.6034L-1055.76 19.6034ZM-1134.62 19.6034L-1268.4 4.90034H-1326.79L-1184.73 19.6034L-1134.62 19.6034ZM-1216.49 19.6034L-1358.55 4.90034L-1435.1 4.90035L-1290.1 19.6034L-1216.49 19.6034ZM-1322.51 19.6034L-1467.51 4.90035L-1521.62 4.90036L-1368.67 19.6034L-1322.51 19.6034ZM1679.88 19.6031L1837.27 4.90006L1784.18 4.90007L1634.99 19.6031L1679.88 19.6031ZM1601.65 19.6031L1750.84 4.90007L1695.69 4.90008L1554.56 19.6031L1601.65 19.6031ZM1523.01 19.6031L1664.14 4.90008L1610.3 4.90009L1476.63 19.6031L1523.01 19.6031ZM1446.73 19.6031L1580.39 4.90009L1520.77 4.90009L1395.37 19.6031L1446.73 19.6031ZM1367.29 19.6031L1492.69 4.90009L1432.38 4.9001L1315.02 19.6031L1367.29 19.6031ZM1288.72 19.6031L1406.08 4.9001L1346.05 4.90011L1236.33 19.6031L1288.72 19.6031ZM1211.72 19.6032L1321.43 4.90011L1257.94 4.90012L1156.22 19.6032L1211.72 19.6032ZM1133.36 19.6032L1235.08 4.90012L1166.08 4.90012L1073.89 19.6032L1133.36 19.6032ZM1053.13 19.6032L1145.32 4.90012L1081.51 4.90013L995.598 19.6032L1053.13 19.6032ZM976.215 19.6032L1062.13 4.90013L992.939 4.90014L915.044 19.6032L976.215 19.6032ZM897.416 19.6032L975.311 4.90014L909.67 4.90015L840.327 19.6032L897.416 19.6032ZM824.564 19.6032L893.907 4.90015L822.943 4.90015L761.194 19.6032L824.564 19.6032ZM747.078 19.6032L808.827 4.90015L734.185 4.90016L680.41 19.6032L747.078 19.6032ZM668.013 19.6032L721.788 4.90016L640.069 4.90017L593.515 19.6032L668.013 19.6032ZM582.719 19.6032L629.273 4.90017L551.111 4.90018L512.699 19.6032L582.719 19.6032ZM503.62 19.6032L542.032 4.90018L467.072 4.90018L437.242 19.6032L503.62 19.6032ZM429.919 19.6032L459.749 4.90018L383.032 4.90019L361.77 19.6032L429.919 19.6032ZM356.093 19.6032L377.354 4.90019L299.023 4.9002L286.342 19.6032L356.093 19.6032ZM282.075 19.6032L294.756 4.9002L215.033 4.90021L210.932 19.6032L282.075 19.6032ZM207.546 19.6032L211.648 4.90021L131.009 4.90022L135.489 19.6032L207.546 19.6032ZM132.081 19.6032L127.601 4.90022L47.9756 4.90022L61.0398 19.6033L132.081 19.6032ZM56.718 19.6033L43.6538 4.90022L-35.8491 4.90023L-14.2158 19.6033L56.718 19.6033ZM-19.9611 19.6033L-41.5945 4.90023L-119.89 4.90024L-89.5549 19.6033L-19.9611 19.6033ZM-297.575 1.63065L-220.37 1.63064L-267.766 -16.4788L-354.592 -16.4788L-297.575 1.63065ZM-365.393 -16.4788L-308.376 1.63065L-386.167 1.63065L-452.904 -16.4788L-365.393 -16.4788ZM-465.388 -16.4788L-398.652 1.63066L-473.842 1.63066L-550.242 -16.4788L-465.388 -16.4788ZM-564.418 -16.4788L-488.017 1.63067L-561.842 1.63067L-647.985 -16.4788L-564.418 -16.4788ZM-663.878 -16.4788L-577.735 1.63068L-650.29 1.63068L-746.285 -16.4788H-663.878ZM-763.922 -16.4788L-667.927 1.63068H-737.758L-843.392 -16.4788H-763.922ZM-862.742 -16.4788L-757.108 1.63069L-826.647 1.6307L-942.317 -16.4788L-862.742 -16.4788ZM-963.456 -16.4788L-847.785 1.6307L-914.507 1.63071L-1039.85 -16.4788L-963.456 -16.4788ZM-1062.71 -16.4788L-937.372 1.63071L-1003.27 1.63071L-1138.53 -16.4788L-1062.71 -16.4788ZM-1163.17 -16.4788L-1027.91 1.63071L-1092.73 1.63072L-1237.98 -16.4788L-1163.17 -16.4788ZM-1264.41 -16.4788L-1119.16 1.63072L-1181.6 1.63073L-1336.83 -16.4788L-1264.41 -16.4788ZM-1365.04 -16.4788L-1209.82 1.63073L-1268.22 1.63074L-1432.99 -16.4788H-1365.04ZM-1462.92 -16.4788L-1298.15 1.63074L-1358.38 1.63074L-1533.37 -16.4788L-1462.92 -16.4788ZM-1565.13 -16.4788L-1390.15 1.63074L-1467.34 1.63075L-1645.94 -16.4788H-1565.13ZM-1678.35 -16.4788L-1499.75 1.63075L-1555.63 1.63076H-1555.67L-1744.02 -16.4788L-1678.35 -16.4788ZM2066.12 -16.4788L1872.27 1.63046L1817.36 1.63046L2001.11 -16.4788L2066.12 -16.4788ZM1967.77 -16.4788L1784.02 1.63046L1727.08 1.63047L1900.9 -16.4788L1967.77 -16.4788ZM1869.35 -16.4788L1695.52 1.63047L1640.02 1.63048L1804.65 -16.4788H1869.35ZM1774.74 -16.4788L1610.12 1.63048L1548.66 1.63049L1703.11 -16.4788H1774.74ZM1675.03 -16.4788L1520.58 1.63049L1458.48 1.63049L1603.02 -16.4788H1675.03ZM1576.72 -16.4788L1432.18 1.63049L1370.44 1.6305L1505.57 -16.4788L1576.72 -16.4788ZM1480.95 -16.4788L1345.83 1.6305L1280.56 1.63051L1405.84 -16.4788L1480.95 -16.4788ZM1382.99 -16.4788L1257.7 1.63051L1186.58 1.63052L1300.12 -16.4788L1382.99 -16.4788ZM1279.36 -16.4788L1165.82 1.63052L1100.61 1.63052L1206.43 -16.4788L1279.36 -16.4788ZM1187.05 -16.4788L1081.23 1.63052L1010.26 1.63053L1106.2 -16.4788H1187.05ZM1088.57 -16.4788L992.633 1.63053L925.09 1.63054L1010.5 -16.4788H1088.57ZM994.735 -16.4788L909.327 1.63054L836.674 1.63055L912.73 -16.4788L994.735 -16.4788ZM898.614 -16.4788L822.559 1.63055L746.143 1.63055L812.377 -16.4788L898.614 -16.4788ZM799.98 -16.4788L733.746 1.63055L650.422 1.63056L707.761 -16.4788L799.98 -16.4788ZM696.965 -16.4788L639.625 1.63056L559.653 1.63057L606.964 -16.4788L696.965 -16.4788ZM597.884 -16.4788L550.573 1.63057L473.706 1.63058L510.447 -16.4788L597.884 -16.4788ZM503.123 -16.4788L466.382 1.63058L387.76 1.63058L413.947 -16.4788H503.123ZM408.269 -16.4788L382.082 1.63058L301.843 1.63059L317.462 -16.4788L408.269 -16.4788ZM313.195 -16.4788L297.576 1.63059L215.945 1.6306L220.997 -16.4788L313.195 -16.4788ZM217.612 -16.4788L212.56 1.6306L130.012 1.63061L124.494 -16.4788L217.612 -16.4788ZM121.087 -16.4788L126.605 1.63061L45.0703 1.63062L28.9795 -16.4788L121.087 -16.4788ZM24.6577 -16.4788L40.7488 1.63062L-40.6599 1.63062L-67.3051 -16.4788L24.6577 -16.4788ZM-73.0505 -16.4788L-46.4052 1.63062L-126.636 1.63063L-164 -16.4788H-73.0505ZM-276.323 -19.7485L-326.901 -39.0735L-425.73 -39.0735L-364.886 -19.7485L-276.323 -19.7485ZM-375.687 -19.7485L-436.531 -39.0735L-536.169 -39.0735L-464.953 -19.7485L-375.687 -19.7485ZM-477.437 -19.7485L-548.654 -39.0735L-645.564 -39.0735L-564.036 -19.7485L-477.437 -19.7485ZM-578.212 -19.7485L-659.74 -39.0735L-755.463 -39.0735L-663.538 -19.7485L-578.212 -19.7485ZM-679.43 -19.7485L-771.356 -39.0735H-866.054L-763.616 -19.7485L-679.43 -19.7485ZM-781.253 -19.7485L-883.691 -39.0735H-975.189L-862.464 -19.7485H-781.253ZM-881.814 -19.7485L-994.539 -39.0735H-1086.64L-963.201 -19.7485H-881.814ZM-984.34 -19.7485L-1107.77 -39.0735H-1196.23L-1062.48 -19.7485H-984.34ZM-1085.34 -19.7485L-1219.1 -39.0735H-1307.28L-1162.95 -19.7485L-1085.34 -19.7485ZM-1187.59 -19.7485L-1331.92 -39.0735H-1419.2L-1264.2 -19.7485L-1187.59 -19.7485ZM-1290.63 -19.7485L-1445.63 -39.0735L-1530.5 -39.0735L-1364.85 -19.7485L-1290.63 -19.7485ZM-1393.07 -19.7485L-1558.72 -39.0735L-1638.57 -39.0735L-1462.74 -19.7485L-1393.07 -19.7485ZM-1492.67 -19.7485L-1668.5 -39.0735L-1751.69 -39.0735L-1564.96 -19.7485L-1492.67 -19.7485ZM-1596.72 -19.7485L-1783.45 -39.0735L-1868.76 -39.0735L-1678.18 -19.7485H-1596.72ZM-1710.59 -19.7485L-1901.17 -39.0735L-1979.06 -39.0735L-1778.03 -19.7485H-1710.59ZM2101.12 -19.7485L2307.98 -39.0735L2230.38 -39.0735L2034.29 -19.7485H2101.12ZM2000.95 -19.7485L2197.04 -39.0735L2117.78 -39.0735L1932.29 -19.7485H2000.95ZM1900.73 -19.7485L2086.23 -39.0735L2010.05 -39.0735L1834.37 -19.7485H1900.73ZM1804.47 -19.7485L1980.15 -39.0735L1895.82 -39.0735L1731 -19.7485L1804.47 -19.7485ZM1702.92 -19.7485L1867.74 -39.0735L1783.37 -39.0735L1629.12 -19.7485L1702.92 -19.7485ZM1602.82 -19.7485L1757.07 -39.0735L1674.17 -39.0735L1529.97 -19.7485L1602.82 -19.7485ZM1505.35 -19.7485L1649.55 -39.0735L1562.16 -39.0735L1428.46 -19.7485L1505.35 -19.7485ZM1405.61 -19.7485L1539.3 -39.0735L1441.78 -39.0735L1320.62 -19.7485L1405.61 -19.7485ZM1299.86 -19.7485L1421.02 -39.0735H1338.45L1225.54 -19.7485L1299.86 -19.7485ZM1206.15 -19.7485L1319.07 -39.0735L1225.91 -39.0735L1123.52 -19.7485H1206.15ZM1105.9 -19.7485L1208.28 -39.0735H1117.06L1025.92 -19.7485L1105.9 -19.7485ZM1010.16 -19.7485L1101.3 -39.0735H1007.62L926.461 -19.7485L1010.16 -19.7485ZM912.346 -19.7485L993.507 -39.0735L895.014 -39.0735L824.335 -19.7485L912.346 -19.7485ZM811.938 -19.7485L882.617 -39.0735L779.302 -39.0735L718.113 -19.7485L811.938 -19.7485ZM707.317 -19.7485L768.506 -39.0735L665.993 -39.0735L615.506 -19.7485L707.317 -19.7485ZM606.426 -19.7485L656.913 -39.0735L556.287 -39.0735L517.08 -19.7485L606.426 -19.7485ZM509.757 -19.7485L548.964 -39.0735L446.62 -39.0735L418.675 -19.7485H509.757ZM412.997 -19.7485L440.943 -39.0735L336.949 -39.0735L320.282 -19.7485L412.997 -19.7485ZM316.015 -19.7485L332.682 -39.0735L227.3 -39.0735L221.909 -19.7485L316.015 -19.7485ZM218.524 -19.7485L223.915 -39.0735L117.61 -39.0735L123.498 -19.7485L218.524 -19.7485ZM120.091 -19.7485L114.202 -39.0735L8.90335 -39.0735L26.0745 -19.7485L120.091 -19.7485ZM21.7527 -19.7485L4.58158 -39.0735L-100.55 -39.0735L-72.1159 -19.7485L21.7527 -19.7485ZM-77.8613 -19.7485L-106.295 -39.0735L-210.618 -39.0735L-170.746 -19.7485H-77.8613ZM-326.364 -42.3431L-224.789 -42.3431L-277.993 -68.1305L-277.447 -68.9466H-395.991L-326.364 -42.3431ZM-404.848 -68.8559L-335.458 -42.3431L-436.024 -42.3431L-519.784 -68.9466L-404.8 -68.9466L-404.848 -68.8559ZM-530.585 -68.9466L-446.825 -42.3431L-548.218 -42.3431L-646.256 -68.9466L-530.585 -68.9466ZM-658.741 -68.9466L-560.703 -42.3431L-659.358 -42.3431L-771.593 -68.9466L-658.741 -68.9466ZM-785.769 -68.9466L-673.534 -42.3431L-771.016 -42.3431L-897.563 -68.9466H-785.769ZM-913.455 -68.9466L-786.908 -42.3431L-883.385 -42.3431L-1024.4 -68.9466L-913.455 -68.9466ZM-1042.04 -68.9466L-901.022 -42.3431L-994.261 -42.3431L-1149.44 -68.9466H-1042.04ZM-1168.79 -68.9466L-1013.61 -42.3431L-1107.52 -42.3431L-1277.44 -68.9466H-1168.79ZM-1298.58 -68.9466L-1128.66 -42.3431L-1218.86 -42.3431L-1402.99 -68.9466L-1298.58 -68.9466ZM-1425.85 -68.9466L-1241.73 -42.3431H-1331.7L-1530.4 -68.9466L-1425.85 -68.9466ZM-1555.03 -68.9466L-1356.34 -42.3431H-1445.42L-1658.79 -68.9466L-1555.03 -68.9466ZM-1685.22 -68.9466L-1471.85 -42.3431L-1558.53 -42.3431L-1786.56 -68.9466H-1685.22ZM-1814.78 -68.9466L-1586.74 -42.3431H-1668.32L-1910.38 -68.9466L-1814.78 -68.9466ZM-1940.3 -68.9466L-1698.25 -42.3431H-1783.28L-2040.33 -68.9466H-1940.3ZM-2071.83 -68.9196L-1815.04 -42.3431H-1901.01L-2163.36 -68.9466L-2071.83 -68.9466L-2071.83 -68.9196ZM-2195.77 -68.9466L-1933.42 -42.3431H-2013.07L-2289.81 -68.9466H-2195.77ZM2627.76 -68.9466L2342.98 -42.3431L2263.55 -42.3431L2533.5 -68.9466L2627.76 -68.9466ZM2500.16 -68.9466L2230.22 -42.3431L2149.17 -42.3431L2404.53 -68.9466H2500.16ZM2372.97 -68.9466L2117.61 -42.3431H2039.78L2281.62 -68.9466L2372.97 -68.9466ZM2251.72 -68.9466L2009.87 -42.3431H1923.71L2150.6 -68.9466L2251.72 -68.9466ZM2122.53 -68.9466L1895.63 -42.3431H1809.47L2021.81 -68.9466L2122.53 -68.9466ZM1995.51 -68.9466L1783.17 -42.3431H1698.56L1897.07 -68.9466H1995.51ZM1872.46 -68.9466L1673.95 -42.3431H1584.78L1768.83 -68.9466L1872.46 -68.9466ZM1745.97 -68.9466L1561.92 -42.3431H1462.28L1629.08 -68.9466H1745.97ZM1608.32 -68.9466L1441.52 -42.3431H1357.56L1513.01 -68.9466H1608.32ZM1493.62 -68.9466L1338.18 -42.3431L1243.23 -42.3431L1384.17 -68.9466L1493.62 -68.9466ZM1366.54 -68.9466L1225.6 -42.3431L1132.48 -42.3431L1257.95 -68.9466L1366.54 -68.9466ZM1242.18 -68.9466L1116.72 -42.3431L1021.35 -42.3431L1133.08 -68.9466L1242.18 -68.9466ZM1118.97 -68.9466L1007.24 -42.3431L906.973 -42.3431L1004.27 -68.9466H1118.97ZM991.875 -68.9466L894.575 -42.3431L789.654 -42.3431L873.888 -68.9466L991.875 -68.9466ZM863.092 -68.9466L778.858 -42.3431L674.535 -42.3431L744.037 -68.9466H863.092ZM734.957 -68.9466L665.455 -42.3431L562.921 -42.3431L616.895 -68.9466L734.957 -68.9466ZM609.571 -68.9466L555.597 -42.3431L451.348 -42.3431L489.818 -68.9466H609.571ZM484.141 -68.9466L445.671 -42.3431L339.769 -42.3431L362.714 -68.9466L484.141 -68.9466ZM358.447 -68.9466L335.502 -42.3431L228.212 -42.3431L235.633 -68.9466H358.447ZM232.248 -68.9466L224.827 -42.3431L116.614 -42.3431L108.508 -68.9466H232.248ZM105.1 -68.9466L113.206 -42.3431L5.99832 -42.3431L-17.6399 -68.9466L105.1 -68.9466ZM-21.9616 -68.9466L1.67655 -42.3431L-105.361 -42.3431L-144.503 -68.9466H-21.9616Z" fill="url(#paint0_linear_2009_25)"/>
<path fill-rule="evenodd" clip-rule="evenodd" d="M615.252 740.691L560.364 714.087H454.106L492.891 740.448L492.663 740.691H615.252ZM521.171 691.493L561.043 710.818H660.807L610.229 691.493H521.171ZM514.425 688.223L477.061 670.114L554.276 670.114L601.672 688.223H514.425ZM439.98 652.141L470.315 666.844L545.718 666.844L507.238 652.141L439.98 652.141ZM433.234 648.871L409.912 637.568L469.096 637.568L498.68 648.871L433.234 648.871ZM379.849 622.996L403.166 634.298L460.539 634.298L430.96 622.996L379.849 622.996ZM373.103 619.727L349.783 608.424L392.821 608.424L422.403 619.727L373.103 619.727ZM319.717 593.852L343.037 605.155L384.264 605.155L354.683 593.852L319.717 593.852ZM312.971 590.582L311.506 589.872L311.031 590.582L-343.249 590.582L-343.291 590.321L-344.932 590.582L-721.326 590.582V591.353L-869.061 605.155L-876.473 605.155V605.847L-1025.05 619.727H-1031.28V620.308L-1181.03 634.298H-1188.43V634.99L-1337.03 648.871H-1343.59V649.484L-1529.42 666.844H-1536.89V667.542L-1758.27 688.223H-1763.3V688.693L-2000.14 710.818H-2013.99V712.112L-2319.91 740.691H-2328.46V741.489L-2328.51 741.494L-2328.46 742.094V743.96H-2328.28L-2328.21 744.749L-2319.76 743.96H-2200.05L-2199.96 744.908L-2190.34 743.96H-2071.83L-2071.72 745.04L-2061.36 743.96H-1943.49L-1943.43 744.509L-1938.44 743.96H-1815.81L-1815.7 744.932L-1807.41 743.96H-1687.57L-1687.43 745.066L-1678.61 743.96H-1559.26L-1559.17 744.673L-1553.85 743.96H-1430.99L-1430.88 744.724L-1425.59 743.96H-1289.4L-1289.31 744.517L-1285.82 743.96H-1177.74L-1177.51 745.292L-1169.73 743.96H-1048.03L-1047.78 745.266L-1040.86 743.96H-918.372L-918.21 744.725L-914.605 743.96H-790.349L-790.314 744.107L-789.698 743.96H-662.409L-662.3 744.361L-660.833 743.96H-534.29L-533.824 745.028L-530.444 743.96H-404.497L-403.824 745.233L-400.499 743.96H-276.27L-275.5 745.092L-273.205 743.96H-147.682L-146.961 744.716L-145.869 743.96H-18.5926L-18.3809 744.093L-18.2669 743.96H873.078L875.187 744.63L875.4 743.96H1001.3L1003.2 744.474L1003.34 743.96H1128.39L1131.06 744.595L1131.21 743.96H1256.12L1259.17 744.602L1259.3 743.96H1384.74L1387.26 744.437L1387.35 743.96H1511.51L1515.71 744.679L1515.83 743.96H1641.33L1644.07 744.39L1644.14 743.96H1768.62L1772.33 744.496L1772.4 743.96H1897.82L1900.75 744.352L1900.8 743.96H2028.02L2029.13 744.099L2029.15 743.96H2157.59L2157.73 743.977L2157.74 743.96H2283.12L2286.02 744.279L2286.06 743.96H2538.61L2542.85 744.391L2542.9 743.96H2666.83L2671.2 744.381L2671.24 743.96H2671.48V741.517L2671.51 741.126L2671.48 741.122V740.691H2666.98L2365.72 711.73V710.818H2356.23L2122.28 688.328V688.223H2121.19L1711.88 648.871H1711.83L1105.57 590.592V590.582H1105.47L1104.44 590.482L1104.43 590.582L1058.43 590.582L1057.55 590.493L1057.54 590.582L964.681 590.582L963.785 590.489L963.775 590.582L917.519 590.582L916.908 590.515L916.9 590.582L871.105 590.582L870.054 590.46L870.04 590.582L824.28 590.582L823.175 590.445L823.158 590.582L776.915 590.582L776.295 590.499L776.284 590.582L729.918 590.582L729.434 590.512L729.424 590.582L682.797 590.582L682.561 590.545L682.555 590.582L636.196 590.582L635.712 590.499L635.698 590.582L589.35 590.582L588.854 590.489L588.836 590.582L542.422 590.582L542.008 590.495L541.99 590.582L495.491 590.582L495.15 590.501L495.131 590.582L448.566 590.582L448.327 590.517L448.309 590.582L355.22 590.582L353.926 590.088L353.665 590.582L312.971 590.582ZM460.615 593.852L502.267 605.155L542.792 605.155L495.109 593.852L460.615 593.852ZM509.285 593.852L556.968 605.155L595.846 605.154L542.082 593.852L509.285 593.852ZM557.975 593.852L611.739 605.154L648.957 605.154L589.045 593.852L557.975 593.852ZM606.682 593.852L666.594 605.154L701.847 605.154L635.917 593.852L606.682 593.852ZM655.267 593.852L721.197 605.154L754.735 605.154L682.542 593.852L655.267 593.852ZM703.68 593.852L775.874 605.154L807.911 605.154L729.683 593.852L703.68 593.852ZM752.548 593.852L830.776 605.154L861.113 605.154L776.697 593.852L752.548 593.852ZM801.335 593.852L885.751 605.154L914.729 605.154L824.077 593.852L801.335 593.852ZM850.503 593.852L941.156 605.154L967.797 605.154L870.915 593.852L850.503 593.852ZM899.131 593.852L996.013 605.154L1020.18 605.154L917.34 593.852L899.131 593.852ZM947.268 593.852L1050.11 605.154L1073.72 605.154L964.512 593.852L947.268 593.852ZM996.273 593.852L1105.48 605.154L1169.73 605.154L1058.26 593.852L996.273 593.852ZM1090.67 593.852L1202.13 605.154L1222.89 605.154L1105.32 593.852L1090.67 593.852ZM448.13 593.852L489.782 605.155L446.855 605.155L411.269 593.852L448.13 593.852ZM400.468 593.852L363.777 593.852L393.358 605.155L436.054 605.155L400.468 593.852ZM-719.452 593.852L-719.396 594.457L-833.909 605.155L-815.224 605.155L-700.537 593.852L-719.452 593.852ZM-671.091 593.852L-671.053 594.232L-781.887 605.155L-760.556 605.155L-652.065 593.852L-671.091 593.852ZM-624.178 593.852L-624.139 594.23L-729.002 605.155L-706.487 605.155L-603.737 593.852L-624.178 593.852ZM-577.293 593.852L-577.252 594.228L-676.584 605.155L-651.627 605.155L-555.228 593.852L-577.293 593.852ZM-530.378 593.852L-530.335 594.225L-623.55 605.155L-596.99 605.155L-506.775 593.852L-530.378 593.852ZM-483.475 593.852L-483.428 594.222L-570.689 605.155L-542.734 605.155L-458.396 593.852L-483.475 593.852ZM-436.565 593.852L-436.516 594.219L-518.118 605.155L-488.149 605.155L-409.954 593.852L-436.565 593.852ZM-389.655 593.852L-389.602 594.214L-465.294 605.155L-436.297 605.155L-365.432 593.852L-389.655 593.852ZM-344.673 593.852L-415.538 605.155L-378.049 605.155L-312.006 593.852L-344.673 593.852ZM-295.837 593.852L-295.746 594.386L-358.667 605.155L-323.116 605.155L-263.236 593.852L-295.837 593.852ZM-248.919 593.852L-248.805 594.455L-305.488 605.155L-275.728 605.155L-222.422 593.852L-248.919 593.852ZM-206.659 593.852L-259.965 605.155L-220.862 605.155L-173.393 593.852L-206.659 593.852ZM-159.278 593.852L-206.746 605.155L-165.563 605.155L-124.225 593.852L-159.278 593.852ZM-112.241 593.852L-112.212 593.957L-153.166 605.155L-101.743 605.155L-65.9561 593.852L-112.241 593.852ZM-57.1824 593.852L-56.9375 594.413L-90.9471 605.155L-46.9471 605.155L-17.4187 593.852L-57.1824 593.852ZM-10.7378 593.852L-10.3343 594.616L-37.8675 605.155L1.08493 605.155L24.0161 593.852L-10.7378 593.852ZM29.779 593.852L30.1711 594.428L8.40866 605.155L49.1753 605.155L65.5195 593.852L29.779 593.852ZM70.509 593.852L70.7827 594.138L54.8528 605.155L97.1826 605.155L106.931 593.852L70.509 593.852ZM111.198 593.852L101.449 605.155L145.176 605.155L148.329 593.852L111.198 593.852ZM151.714 593.852L148.561 605.155L193.195 605.155L189.751 593.852L151.714 593.852ZM193.159 593.852L196.603 605.155L240.211 605.155L230.168 593.852L193.159 593.852ZM234.49 593.852L244.533 605.155L288.083 605.155L271.453 593.852L234.49 593.852ZM277.198 593.852L312.292 593.852L335.612 605.155L293.828 605.155L277.198 593.852ZM431.497 619.727L401.915 608.424L446.349 608.424L481.935 619.727L431.497 619.727ZM457.15 608.424L501.831 608.424L543.483 619.727L492.736 619.727L457.15 608.424ZM555.968 619.727L514.316 608.424L556.586 608.424L604.27 619.727L555.968 619.727ZM618.446 619.727L570.762 608.424L611.399 608.424L665.163 619.727L618.446 619.727ZM681.056 619.727L627.292 608.424L666.289 608.424L726.202 619.727L681.056 619.727ZM743.839 619.727L683.926 608.424L720.919 608.424L786.848 619.727L743.839 619.727ZM806.198 619.727L740.269 608.424L775.619 608.424L847.812 619.727L806.198 619.727ZM868.951 619.727L796.758 608.424L830.54 608.424L908.769 619.727L868.951 619.727ZM931.634 619.727L853.405 608.424L885.533 608.424L969.95 619.727L931.634 619.727ZM994.587 619.727L910.171 608.424L940.953 608.424L1031.61 619.727L994.587 619.727ZM1058.03 619.727L967.38 608.424L995.823 608.424L1092.7 619.727L1058.03 619.727ZM1120.92 619.727L1024.04 608.424L1049.93 608.424L1152.77 619.727L1120.92 619.727ZM1182.69 619.727L1079.86 608.424L1105.32 608.424L1214.53 619.727L1182.69 619.727ZM1246.29 619.727L1137.08 608.424L1201.97 608.424L1313.43 619.727L1246.29 619.727ZM1345.84 619.727L1234.38 608.424L1256.86 608.424V608.42L1374.48 619.727L1345.84 619.727ZM-989.899 619.727L-868.909 608.424L-848.4 608.424L-963.087 619.727L-989.899 619.727ZM-929.75 619.727L-815.063 608.424L-791.939 608.424L-900.43 619.727L-929.75 619.727ZM-868.876 619.727L-760.386 608.424L-736.211 608.424L-838.961 619.727L-868.876 619.727ZM-809.058 619.727L-706.308 608.424L-679.513 608.424L-775.913 619.727L-809.058 619.727ZM-747.836 619.727L-651.436 608.424L-623.087 608.424L-713.303 619.727L-747.836 619.727ZM-687.001 619.727L-596.786 608.424L-567.131 608.424L-651.468 619.727L-687.001 619.727ZM-626.853 619.727L-542.516 608.424L-510.769 608.424L-588.964 619.727L-626.853 619.727ZM-566.109 619.727L-487.914 608.424L-456.797 608.424L-527.662 619.727L-566.109 619.727ZM-506.903 619.727L-436.038 608.424L-397.154 608.424L-463.197 619.727L-506.903 619.727ZM-443.815 619.727L-377.772 608.424L-340.438 608.424L-400.318 619.727L-443.815 619.727ZM-382.69 619.727L-322.81 608.424L-291.148 608.424L-344.454 619.727L-382.69 619.727ZM-328.691 619.727L-275.386 608.424L-234.593 608.424L-282.062 619.727L-328.691 619.727ZM-267.946 619.727L-220.478 608.424L-177.521 608.424L-218.859 619.727L-267.946 619.727ZM-206.462 619.727L-165.124 608.424L-112.096 608.424L-147.883 619.727L-206.462 619.727ZM-137.087 619.727L-101.3 608.424L-55.4888 608.424L-85.0171 619.727L-137.087 619.727ZM-75.9375 619.727L-46.4092 608.424L-5.54862 608.424L-28.4798 619.727L-75.9375 619.727ZM-21.156 619.727L1.77511 608.424L44.4472 608.424L28.1028 619.727L-21.156 619.727ZM33.7802 619.727L50.1245 608.424L94.3628 608.424L84.6145 619.727L33.7802 619.727ZM88.8813 619.727L98.6296 608.424L144.264 608.424L141.111 619.727L88.8813 619.727ZM144.496 619.727L147.649 608.424L194.191 608.424L197.635 619.727L144.496 619.727ZM201.043 619.727L197.599 608.424L243.116 608.424L253.159 619.727L201.043 619.727ZM257.481 619.727L247.438 608.424L292.894 608.424L309.524 619.727L257.481 619.727ZM315.269 619.727L298.639 608.424L342.358 608.424L365.678 619.727L315.269 619.727ZM440.054 622.996L492.229 622.996L527.811 634.298L469.633 634.298L440.054 622.996ZM503.03 622.996L538.613 634.298L597.181 634.298L555.532 622.996L503.03 622.996ZM568.017 622.996L609.666 634.298L665.743 634.298L618.064 622.996L568.017 622.996ZM632.239 622.996L679.919 634.298L734.476 634.298L680.716 622.996L632.239 622.996ZM696.609 622.996L750.368 634.298L803.441 634.298L743.533 622.996L696.609 622.996ZM761.17 622.996L821.078 634.298L871.843 634.298L805.92 622.996L761.17 622.996ZM825.269 622.996L891.193 634.298L940.883 634.298L868.696 622.996L825.269 622.996ZM889.834 622.996L962.021 634.298L1009.62 634.298L931.398 622.996L889.834 622.996ZM954.263 622.996L1032.48 634.298L1078.78 634.298L994.37 622.996H954.263ZM1019.01 622.996L1103.42 634.298L1148.47 634.298L1057.83 622.996L1019.01 622.996ZM1084.26 622.996L1174.9 634.298L1217.6 634.298L1120.73 622.996H1084.26ZM1148.95 622.996L1245.82 634.298L1285.35 634.298L1182.52 622.996L1148.95 622.996ZM1212.44 622.996L1315.27 634.298L1355.32 634.298L1246.12 622.996H1212.44ZM1277.88 622.996L1387.08 634.298L1457.13 634.298L1345.68 622.996L1277.88 622.996ZM1378.09 622.996L1489.54 634.298L1526.06 634.298L1408.47 622.996L1378.09 622.996ZM-1024.9 622.996L-1145.88 634.298L-1110.94 634.298L-996.264 622.996L-1024.9 622.996ZM-962.927 622.996L-1077.6 634.298H-1040.3L-931.814 622.996H-962.927ZM-900.261 622.996L-1008.74 634.298L-971.426 634.298L-868.685 622.996L-900.261 622.996ZM-838.782 622.996L-941.523 634.298L-900.19 634.298L-803.799 622.996L-838.782 622.996ZM-775.722 622.996L-872.113 634.298L-829.607 634.298L-739.4 622.996L-775.722 622.996ZM-713.099 622.996L-803.306 634.298L-760.196 634.298L-675.865 622.996L-713.099 622.996ZM-651.25 622.996L-735.581 634.298L-689.773 634.298L-611.585 622.996L-651.25 622.996ZM-588.729 622.996L-666.918 634.298L-619.021 634.298L-548.162 622.996L-588.729 622.996ZM-527.403 622.996L-598.262 634.298L-548.339 634.298L-482.302 622.996L-527.403 622.996ZM-462.919 622.996L-528.957 634.298L-477.515 634.298L-417.64 622.996L-462.919 622.996ZM-400.012 622.996L-459.887 634.298L-413.176 634.298L-359.875 622.996L-400.012 622.996ZM-344.112 622.996L-397.413 634.298L-343.258 634.298L-295.793 622.996L-344.112 622.996ZM-281.678 622.996L-329.142 634.298L-272.152 634.298L-230.817 622.996L-281.678 622.996ZM-218.42 622.996L-259.755 634.298L-194.02 634.298L-158.236 622.996L-218.42 622.996ZM-147.439 622.996L-183.224 634.298L-123.085 634.298L-93.5591 622.996L-147.439 622.996ZM-84.4795 622.996L-114.005 634.298L-58.0423 634.298L-35.1131 622.996L-84.4795 622.996ZM-27.7896 622.996L-50.7188 634.298L7.03171 634.298L23.3747 622.996L-27.7896 622.996ZM29.0522 622.996L12.7092 634.298L72.0471 634.298L81.7944 622.996L29.0522 622.996ZM86.0612 622.996L76.3139 634.298L137.046 634.298L140.198 622.996L86.0612 622.996ZM143.584 622.996L140.431 634.298L202.075 634.298L198.631 622.996L143.584 622.996ZM202.039 622.996L205.482 634.298L266.106 634.298L256.064 622.996L202.039 622.996ZM260.386 622.996L270.428 634.298L330.963 634.298L314.334 622.996L260.386 622.996ZM320.08 622.996L336.708 634.298L395.741 634.298L372.424 622.996L320.08 622.996ZM507.774 648.871L478.19 637.568L538.106 637.568L573.695 648.871L507.774 648.871ZM584.496 648.871L548.907 637.568L609.23 637.568L650.886 648.871L584.496 648.871ZM663.371 648.871L621.715 637.568L679.537 637.568L727.225 648.871L663.371 648.871ZM741.4 648.871L693.713 637.568L750.028 637.568L803.797 648.871L741.4 648.871ZM819.69 648.871L765.921 637.568L820.772 637.568L880.69 648.871L819.69 648.871ZM898.327 648.871L838.409 637.568L890.915 637.568L956.85 648.871L898.327 648.871ZM976.2 648.871L910.265 637.568L961.767 637.568L1033.97 648.871L976.2 648.871ZM1110.48 648.871L1055.1 648.871L982.905 637.568L1032.25 637.568L1110.48 648.871ZM1133.35 648.871L1055.11 637.568L1103.2 637.568L1187.62 648.871L1133.35 648.871ZM1212.26 648.871L1127.84 637.568L1174.7 637.568L1265.36 648.871L1212.26 648.871ZM1291.78 648.871L1201.12 637.568L1245.63 637.568L1342.52 648.871L1291.78 648.871ZM1370.74 648.871L1273.85 637.568L1315.09 637.568L1417.94 648.871L1370.74 648.871ZM1447.87 648.871L1345.02 637.568L1386.91 637.568L1496.13 648.871L1447.87 648.871ZM1527.89 648.871L1418.67 637.568L1489.38 637.568L1600.85 648.871L1527.89 648.871ZM1633.26 648.871L1521.79 637.568L1560.01 637.568V637.562L1677.66 648.871L1633.26 648.871ZM-1301.88 648.871L-1180.88 637.568L-1144.12 637.568L-1258.81 648.871L-1301.88 648.871ZM-1225.48 648.871L-1110.78 637.568L-1071.68 637.568L-1180.18 648.871L-1225.48 648.871ZM-1148.63 648.871L-1040.13 637.568L-1001.15 637.568L-1103.91 648.871L-1148.63 648.871ZM-1074.01 648.871L-971.247 637.568L-928.077 637.568L-1024.48 648.871L-1074.01 648.871ZM-996.407 648.871L-899.999 637.568L-855.705 637.568L-945.928 648.871L-996.407 648.871ZM-919.626 648.871L-829.403 637.568L-784.593 637.568L-868.938 648.871L-919.626 648.871ZM-844.323 648.871L-759.978 637.568L-712.393 637.568L-790.595 648.871L-844.323 648.871ZM-767.74 648.871L-689.538 637.568L-639.52 637.568L-710.392 648.871L-767.74 648.871ZM-689.633 648.871L-618.762 637.568L-567.444 637.568L-633.493 648.871L-689.633 648.871ZM-614.11 648.871L-548.062 637.568L-494.837 637.568L-554.722 648.871L-614.11 648.871ZM-537.094 648.871L-477.209 637.568L-428.596 637.568L-481.907 648.871L-537.094 648.871ZM-466.144 648.871L-412.833 637.568L-356.989 637.568L-404.462 648.871L-466.144 648.871ZM-390.346 648.871L-342.874 637.568L-284.11 637.568L-325.452 648.871L-390.346 648.871ZM-313.055 648.871L-271.713 637.568L-204.373 637.568L-240.163 648.871L-313.055 648.871ZM-229.366 648.871L-193.576 637.568L-131.627 637.568L-161.158 648.871L-229.366 648.871ZM-152.078 648.871L-122.547 637.568L-64.6758 637.568L-87.6089 648.871L-152.078 648.871ZM-80.2854 648.871L-57.3523 637.568L2.30368 637.568L-14.042 648.871L-80.2854 648.871ZM-8.36453 648.871L7.98117 637.568L69.227 637.568L59.478 648.871L-8.36453 648.871ZM63.7448 648.871L73.4939 637.568L136.134 637.568L132.98 648.871L63.7448 648.871ZM136.366 648.871L139.519 637.568L203.071 637.568L206.515 648.871L136.366 648.871ZM209.923 648.871L206.479 637.568L269.011 637.568L279.055 648.871L209.923 648.871ZM283.377 648.871L273.333 637.568L335.774 637.568L352.405 648.871L283.377 648.871ZM358.151 648.871L341.519 637.568L402.487 637.568L425.809 648.871L358.151 648.871ZM516.332 652.141L554.812 666.844L630.28 666.844L583.989 652.141L516.332 652.141ZM662.935 652.141L594.79 652.141L641.082 666.844L717.118 666.844L662.935 652.141ZM675.42 652.141L729.603 666.844L803.048 666.844L741.019 652.141L675.42 652.141ZM755.194 652.141L817.223 666.844L889.289 666.844L819.35 652.141L755.194 652.141ZM835.243 652.141L905.182 666.844L975.959 666.844L898.021 652.141L835.243 652.141ZM915.658 652.141L993.596 666.844H1061.69L975.922 652.141L915.658 652.141ZM995.272 652.141L1081.04 666.844H1148.76L1054.85 652.141L995.272 652.141ZM1075.99 652.141L1169.9 666.844H1234.88L1133.11 652.141L1075.99 652.141ZM1155.98 652.141L1257.74 666.844H1321.85L1212.04 652.141L1155.98 652.141ZM1236.68 652.141L1346.49 666.844H1409.51L1291.58 652.141L1236.68 652.141ZM1318.01 652.141L1435.93 666.844H1496.57L1370.55 652.141L1318.01 652.141ZM1398.76 652.141L1524.79 666.844H1581.47L1447.69 652.141L1398.76 652.141ZM1477.62 652.141L1611.4 666.844H1669.79L1527.73 652.141L1477.62 652.141ZM1559.49 652.141L1701.55 666.844L1778.1 666.844L1633.1 652.141L1559.49 652.141ZM1665.51 652.141L1810.51 666.844L1864.62 666.844L1711.67 652.141L1665.51 652.141ZM-1336.88 652.141L-1494.27 666.844L-1441.18 666.844L-1291.99 652.141L-1336.88 652.141ZM-1258.65 652.141L-1407.84 666.844L-1352.69 666.844L-1211.56 652.141L-1258.65 652.141ZM-1180.01 652.141L-1321.14 666.844L-1267.3 666.844L-1133.63 652.141L-1180.01 652.141ZM-1103.73 652.141L-1237.39 666.844L-1177.77 666.844L-1052.37 652.141L-1103.73 652.141ZM-1024.29 652.141L-1149.69 666.844L-1089.38 666.844L-972.025 652.141L-1024.29 652.141ZM-945.724 652.141L-1063.08 666.844L-1003.05 666.844L-893.335 652.141L-945.724 652.141ZM-868.72 652.141L-978.43 666.844L-914.936 666.844L-813.215 652.141L-868.72 652.141ZM-790.36 652.141L-892.08 666.844L-823.076 666.844L-730.891 652.141L-790.36 652.141ZM-710.132 652.141L-802.317 666.844L-738.51 666.844L-652.598 652.141L-710.132 652.141ZM-633.215 652.141L-719.127 666.844L-649.939 666.844L-572.044 652.141L-633.215 652.141ZM-554.416 652.141L-632.311 666.844L-566.67 666.844L-497.327 652.141L-554.416 652.141ZM-481.564 652.141L-550.907 666.844L-479.943 666.844L-418.194 652.141L-481.564 652.141ZM-404.078 652.141L-465.827 666.844L-391.185 666.844L-337.41 652.141L-404.078 652.141ZM-325.013 652.141L-378.788 666.844L-297.069 666.844L-250.515 652.141L-325.013 652.141ZM-239.719 652.141L-286.273 666.844L-208.111 666.844L-169.699 652.141L-239.719 652.141ZM-160.62 652.141L-199.032 666.844L-124.072 666.844L-94.2425 652.141L-160.62 652.141ZM-86.9187 652.141L-116.749 666.844L-40.0315 666.844L-18.7701 652.141L-86.9187 652.141ZM-13.0926 652.141L-34.354 666.844L43.977 666.844L56.6579 652.141L-13.0926 652.141ZM60.9248 652.141L48.2439 666.844L127.967 666.844L132.068 652.141L60.9248 652.141ZM135.454 652.141L131.352 666.844L211.991 666.844L207.511 652.141L135.454 652.141ZM210.919 652.141L215.399 666.844L295.024 666.844L281.96 652.141L210.919 652.141ZM286.282 652.141L299.346 666.844L378.849 666.844L357.216 652.141L286.282 652.141ZM362.961 652.141L384.594 666.844L462.89 666.844L432.555 652.141L362.961 652.141ZM640.575 670.113L563.37 670.114L610.766 688.223H697.592L640.575 670.113ZM708.393 688.223L651.376 670.113L729.167 670.113L795.904 688.223H708.393ZM808.388 688.223L741.652 670.113H816.842L893.242 688.223H808.388ZM907.418 688.223L831.017 670.113H904.842L990.985 688.223H907.418ZM1006.88 688.223L920.735 670.113H993.29L1089.28 688.223H1006.88ZM1106.92 688.223L1010.93 670.113H1080.76L1186.39 688.223H1106.92ZM1205.74 688.223L1100.11 670.113L1169.65 670.113L1285.32 688.223H1205.74ZM1306.46 688.223L1190.78 670.113L1257.51 670.113L1382.85 688.223H1306.46ZM1405.71 688.223L1280.37 670.113L1346.27 670.113L1481.53 688.223H1405.71ZM1506.17 688.223L1370.91 670.113L1435.73 670.113L1580.98 688.223H1506.17ZM1607.41 688.223L1462.16 670.113L1524.6 670.113L1679.83 688.223H1607.41ZM1708.04 688.223L1552.82 670.113L1611.22 670.113L1775.99 688.223H1708.04ZM1805.92 688.223L1641.15 670.113L1701.38 670.113L1876.37 688.223H1805.92ZM1908.13 688.223L1733.15 670.113L1810.34 670.113L1988.94 688.223H1908.13ZM2021.35 688.223L1842.75 670.113L1898.63 670.113H1898.67L2087.02 688.223H2021.35ZM-1723.12 688.223L-1529.27 670.114L-1474.36 670.114L-1658.11 688.223H-1723.12ZM-1624.77 688.223L-1441.02 670.114L-1384.08 670.114L-1557.9 688.223H-1624.77ZM-1526.35 688.223L-1352.52 670.114L-1297.02 670.114L-1461.65 688.223H-1526.35ZM-1431.74 688.223L-1267.12 670.114L-1205.66 670.114L-1360.11 688.223H-1431.74ZM-1332.03 688.223L-1177.58 670.114L-1115.48 670.114L-1260.02 688.223H-1332.03ZM-1233.72 688.223L-1089.18 670.114L-1027.44 670.114L-1162.57 688.223H-1233.72ZM-1137.95 688.223L-1002.83 670.114L-937.556 670.114L-1062.84 688.223H-1137.95ZM-1039.99 688.223L-914.7 670.114L-843.576 670.114L-957.117 688.223H-1039.99ZM-936.358 688.223L-822.817 670.114L-757.615 670.114L-863.43 688.223H-936.358ZM-844.048 688.223L-738.232 670.114L-667.261 670.114L-763.203 688.223H-844.048ZM-745.575 688.223L-649.633 670.114L-582.09 670.114L-667.498 688.223H-745.575ZM-651.735 688.223L-566.327 670.114L-493.674 670.114L-569.73 688.223H-651.735ZM-555.614 688.223L-479.559 670.114L-403.143 670.114L-469.377 688.223H-555.614ZM-456.98 688.223L-390.746 670.114L-307.422 670.114L-364.761 688.223H-456.98ZM-353.965 688.223L-296.625 670.114L-216.653 670.114L-263.964 688.223H-353.965ZM-254.884 688.223L-207.573 670.114L-130.706 670.114L-167.447 688.223H-254.884ZM-160.123 688.223L-123.382 670.114L-44.7596 670.114L-70.9468 688.223H-160.123ZM-65.2693 688.223L-39.0821 670.114L41.157 670.114L25.5381 688.223H-65.2693ZM29.8049 688.223L45.4238 670.114L127.055 670.114L122.003 688.223H29.8049ZM125.388 688.223L130.44 670.114L212.988 670.114L218.506 688.223H125.388ZM221.913 688.223L216.395 670.114L297.93 670.114L314.02 688.223H221.913ZM318.342 688.223L302.251 670.114L383.66 670.114L410.305 688.223H318.342ZM416.051 688.223L389.405 670.114L469.636 670.114L507 688.223H416.051ZM619.323 691.493L669.901 710.818H768.73L707.886 691.493H619.323ZM718.687 691.493L779.531 710.818H879.169L807.953 691.493H718.687ZM820.437 691.493L891.654 710.818H988.564L907.036 691.493H820.437ZM921.212 691.493L1002.74 710.818H1098.46L1006.54 691.493H921.212ZM1022.43 691.493L1114.36 710.818H1209.05L1106.62 691.493H1022.43ZM1124.25 691.493L1226.69 710.818H1318.19L1205.46 691.493H1124.25ZM1224.81 691.493L1337.54 710.818H1429.64L1306.2 691.493H1224.81ZM1327.34 691.493L1450.77 710.818H1539.23L1405.48 691.493H1327.34ZM1428.34 691.493L1562.1 710.818H1650.28L1505.95 691.493H1428.34ZM1530.59 691.493L1674.92 710.818H1762.2L1607.2 691.493H1530.59ZM1633.63 691.493L1788.63 710.818H1873.5L1707.85 691.493H1633.63ZM1736.07 691.493L1901.72 710.818H1981.57L1805.74 691.493H1736.07ZM1835.67 691.493L2011.5 710.818H2094.69L1907.96 691.493H1835.67ZM1939.72 691.493L2126.45 710.818H2211.76L2021.18 691.493H1939.72ZM2053.59 691.493L2244.17 710.818H2322.06L2121.03 691.493H2053.59ZM-1758.12 691.493L-1964.98 710.818H-1887.38L-1691.29 691.493H-1758.12ZM-1657.95 691.493L-1854.04 710.818H-1774.78L-1589.29 691.493H-1657.95ZM-1557.73 691.493L-1743.23 710.818H-1667.05L-1491.37 691.493H-1557.73ZM-1461.47 691.493L-1637.15 710.818H-1552.82L-1388 691.493H-1461.47ZM-1359.92 691.493L-1524.74 710.818H-1440.37L-1286.12 691.493H-1359.92ZM-1259.82 691.493L-1414.07 710.818H-1331.17L-1186.97 691.493H-1259.82ZM-1162.35 691.493L-1306.55 710.818H-1219.16L-1085.46 691.493H-1162.35ZM-1062.61 691.493L-1196.3 710.818H-1098.78L-977.617 691.493H-1062.61ZM-956.858 691.493L-1078.02 710.818H-995.454L-882.535 691.493H-956.858ZM-863.153 691.493L-976.072 710.818H-882.907L-780.525 691.493H-863.153ZM-762.897 691.493L-865.279 710.818H-774.06L-682.918 691.493H-762.897ZM-667.155 691.493L-758.297 710.818H-664.622L-583.461 691.493H-667.155ZM-569.346 691.493L-650.507 710.818H-552.014L-481.335 691.493H-569.346ZM-468.938 691.493L-539.617 710.818H-436.302L-375.113 691.493H-468.938ZM-364.317 691.493L-425.506 710.818H-322.993L-272.506 691.493H-364.317ZM-263.426 691.493L-313.913 710.818H-213.287L-174.08 691.493H-263.426ZM-166.757 691.493L-205.964 710.818H-103.62L-75.6748 691.493H-166.757ZM-69.9973 691.493L-97.9427 710.818H6.05075L22.7182 691.493H-69.9973ZM26.9851 691.493L10.3176 710.818H115.7L121.091 691.493H26.9851ZM124.476 691.493L119.085 710.818H225.39L219.502 691.493H124.476ZM222.909 691.493L228.798 710.818H334.097L316.926 691.493H222.909ZM321.247 691.493L338.418 710.818H443.55L415.116 691.493H321.247ZM420.861 691.493L449.295 710.818H553.618L513.746 691.493H420.861ZM669.364 714.087H567.789L620.993 739.875L620.447 740.691H738.991L669.364 714.087ZM747.848 740.6L678.458 714.087H779.024L862.784 740.691H747.8L747.848 740.6ZM873.585 740.691L789.825 714.087H891.218L989.256 740.691H873.585ZM1001.74 740.691L903.703 714.087H1002.36L1114.59 740.691H1001.74ZM1128.77 740.691L1016.53 714.087H1114.02L1240.56 740.691H1128.77ZM1256.46 740.691L1129.91 714.087H1226.39L1367.4 740.691H1256.46ZM1385.04 740.691L1244.02 714.087H1337.26L1492.44 740.691H1385.04ZM1511.79 740.691L1356.61 714.087H1450.52L1620.44 740.691H1511.79ZM1641.58 740.691L1471.66 714.087H1561.86L1745.99 740.691H1641.58ZM1768.85 740.691L1584.73 714.087H1674.7L1873.4 740.691H1768.85ZM1898.03 740.691L1699.34 714.087H1788.42L2001.79 740.691H1898.03ZM2028.22 740.691L1814.85 714.087H1901.53L2129.56 740.691H2028.22ZM2157.78 740.691L1929.74 714.087H2011.32L2253.38 740.691H2157.78ZM2283.3 740.691L2041.25 714.087H2126.28L2383.33 740.691H2283.3ZM2414.83 740.664L2158.04 714.087H2244.01L2506.36 740.691H2414.83L2414.83 740.664ZM2538.77 740.691L2276.42 714.087H2356.07L2632.81 740.691H2538.77ZM-2284.76 740.691L-1999.98 714.087H-1920.55L-2190.5 740.691H-2284.76ZM-2157.16 740.691L-1887.22 714.087H-1806.17L-2061.53 740.691H-2157.16ZM-2029.97 740.691L-1774.61 714.087H-1696.78L-1938.62 740.691H-2029.97ZM-1908.72 740.691L-1666.87 714.087H-1580.71L-1807.6 740.691H-1908.72ZM-1779.53 740.691L-1552.63 714.087H-1466.47L-1678.81 740.691H-1779.53ZM-1652.51 740.691L-1440.17 714.087H-1355.56L-1554.07 740.691H-1652.51ZM-1529.46 740.691L-1330.95 714.087H-1241.78L-1425.83 740.691H-1529.46ZM-1402.97 740.691L-1218.92 714.087H-1119.28L-1286.08 740.691H-1402.97ZM-1265.32 740.691L-1098.52 714.087H-1014.56L-1170.01 740.691H-1265.32ZM-1150.62 740.691L-995.177 714.087H-900.229L-1041.17 740.691H-1150.62ZM-1023.54 740.691L-882.601 714.087H-789.48L-914.948 740.691H-1023.54ZM-899.185 740.691L-773.717 714.087H-678.354L-790.082 740.691H-899.185ZM-775.967 740.691L-664.238 714.087H-563.973L-661.272 740.691H-775.967ZM-648.875 740.691L-551.575 714.087H-446.654L-530.888 740.691H-648.875ZM-520.092 740.691L-435.858 714.087H-331.535L-401.037 740.691H-520.092ZM-391.957 740.691L-322.455 714.087H-219.921L-273.895 740.691H-391.957ZM-266.571 740.691L-212.597 714.087H-108.348L-146.818 740.691H-266.571ZM-141.141 740.691L-102.671 714.087H3.23092L-19.7139 740.691H-141.141ZM-15.4471 740.691L7.49777 714.087H114.788L107.367 740.691H-15.4471ZM110.752 740.691L118.173 714.087H226.386L234.492 740.691H110.752ZM237.9 740.691L229.794 714.087H337.002L360.64 740.691H237.9ZM364.962 740.691L341.323 714.087H448.361L487.503 740.691H364.962Z" fill="url(#paint1_linear_2009_25)"/>
<defs>
<linearGradient id="paint0_linear_2009_25" x1="161.223" y1="81.8721" x2="156.051" y2="-73.5482" gradientUnits="userSpaceOnUse">
<stop stop-color="#2F5478"/>
<stop offset="1" stop-color="#5B8BBA" stop-opacity="0"/>
</linearGradient>
<linearGradient id="paint1_linear_2009_25" x1="146.855" y1="745.292" x2="144.534" y2="589.872" gradientUnits="userSpaceOnUse">
<stop stop-color="#2F5478"/>
<stop offset="1" stop-color="#5B8BBA" stop-opacity="0"/>
</linearGradient>
</defs>
</svg>
