<svg width="19" height="16" viewBox="0 0 19 16" fill="none" xmlns="http://www.w3.org/2000/svg">
<path d="M18.182 0.741281L18.7868 0.701358C18.779 0.582603 18.7363 0.468804 18.6641 0.374207C18.5918 0.27961 18.4933 0.208419 18.3808 0.169546C18.2684 0.130673 18.1469 0.125846 18.0317 0.155669C17.9165 0.185493 17.8126 0.248641 17.7331 0.337208L18.182 0.741281ZM17.5795 4.32108C17.5795 4.16065 17.5158 4.00679 17.4023 3.89335C17.2889 3.77991 17.1351 3.71618 16.9746 3.71618C16.8142 3.71618 16.6604 3.77991 16.5469 3.89335C16.4335 4.00679 16.3698 4.16065 16.3698 4.32108H17.5795ZM1.27224 14.0491V13.4442C1.14236 13.444 1.01588 13.4857 0.911505 13.563C0.807133 13.6403 0.730414 13.7491 0.692695 13.8734C0.654977 13.9977 0.658263 14.1308 0.702068 14.2531C0.745873 14.3754 0.82787 14.4803 0.935929 14.5523L1.27224 14.0491ZM2.47956 0.741281L3.04692 0.529566C3.00569 0.419121 2.93309 0.323131 2.83804 0.253398C2.74299 0.183665 2.62963 0.143229 2.51191 0.137059C2.39418 0.13089 2.27722 0.159257 2.17541 0.218674C2.07359 0.27809 1.99135 0.365965 1.9388 0.471496L2.47956 0.741281ZM7.31125 11.6295L7.7395 12.0565C7.81216 11.9836 7.86501 11.8934 7.89307 11.7944C7.92113 11.6954 7.92346 11.5908 7.89984 11.4907C7.87622 11.3905 7.82743 11.298 7.7581 11.2219C7.68876 11.1459 7.60116 11.0888 7.5036 11.056L7.31125 11.6295ZM16.0504 1.91842L15.6028 2.32491L15.8206 2.56566L16.1411 2.51727L16.0504 1.91842ZM17.5795 0.781204C17.6412 1.72243 17.5831 2.29345 17.4307 2.72414C17.2831 3.14152 17.0242 3.4851 16.5561 3.93394L17.3932 4.80742C17.9231 4.2993 18.332 3.80086 18.5715 3.12821C18.805 2.46766 18.8534 1.70307 18.7868 0.701358L17.5795 0.781204ZM17.5795 5.20181V4.32108H16.3698V5.20302H17.5795V5.20181ZM9.12344 4.42028V5.58048H10.3332V4.42028H9.12344ZM9.12344 5.58048V6.18538H10.3332V5.58048H9.12344ZM13.3999 0.136381C12.8376 0.136699 12.281 0.247757 11.7617 0.463215C11.2424 0.678673 10.7706 0.994311 10.3733 1.39211C9.97594 1.7899 9.66085 2.26207 9.44599 2.78164C9.23112 3.30122 9.1207 3.85803 9.12102 4.42028H10.3308C10.3304 4.0168 10.4096 3.61721 10.5638 3.24433C10.7179 2.87146 10.944 2.53261 11.2291 2.24714C11.5142 1.96167 11.8528 1.73517 12.2255 1.58058C12.5981 1.42599 12.9976 1.34634 13.4011 1.34618V0.136381H13.3999ZM16.3686 5.20181C16.3698 10.4233 12.1442 14.654 6.93381 14.654V15.8638C12.8131 15.8638 17.5795 11.0899 17.5795 5.20181H16.3686ZM1.9134 0.952996C2.5715 2.70962 5.03936 6.18538 9.72831 6.18538V4.97558C5.71682 4.97558 3.59614 1.99947 3.04571 0.529566L1.9134 0.952996ZM1.9388 0.471496C0.672206 3.00723 0.477438 5.46797 1.39805 7.56334C2.31624 9.65266 4.29174 11.2593 7.12011 12.2029L7.5036 11.056C4.89661 10.185 3.24774 8.76709 2.50496 7.07579C1.7646 5.39054 1.87227 3.31331 3.02152 1.01107L1.9388 0.471496ZM6.883 11.2024C6.15474 11.9319 3.96511 13.4442 1.27224 13.4442V14.654C4.37643 14.654 6.8576 12.9409 7.7395 12.0565L6.883 11.2024ZM16.4992 1.51313C16.1081 1.07936 15.6302 0.732647 15.0965 0.49547C14.5627 0.258294 13.9851 0.135953 13.4011 0.136381V1.34618C14.2733 1.34618 15.0584 1.72243 15.6028 2.32491L16.4992 1.51313ZM16.1411 2.51727C17.1047 2.35983 17.9848 1.87537 18.6332 1.14535L17.7331 0.337208C17.2719 0.858316 16.6459 1.20548 15.9597 1.32077L16.1411 2.51727ZM0.935929 14.5523C2.92111 15.8759 5.00186 15.8638 6.93381 15.8638V14.654C4.96194 14.654 3.24653 14.6407 1.60854 13.5458L0.935929 14.5523Z" fill="#294F74"/>
</svg>
